<svg width="45" height="45" viewBox="0 0 45 45" fill="none" xmlns="http://www.w3.org/2000/svg">
<rect x="0.333344" y="0.410767" width="44" height="44" rx="5" fill="#FF4405" fill-opacity="0.5"/>
<path d="M32.3053 23.2388L29.2947 21.5125L28.7754 21.288L16.4597 21.3792V27.6248L32.3053 27.6318V23.2388Z" fill="white"/>
<path d="M26.8246 27.0564C26.9719 26.5511 26.9158 26.088 26.6702 25.7441C26.4456 25.4283 26.0667 25.2459 25.6105 25.2248L16.9719 25.1125C16.9158 25.1125 16.8667 25.0845 16.8386 25.0424C16.8105 25.0003 16.8035 24.9441 16.8176 24.888C16.8456 24.8038 16.9298 24.7406 17.0211 24.7336L25.7368 24.6213C26.7684 24.5722 27.8912 23.7371 28.2842 22.7125L28.7825 21.4143C28.8035 21.3582 28.8105 21.302 28.7965 21.2459C28.2351 18.7055 25.9684 16.8108 23.2597 16.8108C20.7614 16.8108 18.6421 18.4248 17.8842 20.6634C17.393 20.2985 16.7684 20.102 16.0947 20.1652C14.8947 20.2845 13.9333 21.2459 13.814 22.4459C13.786 22.7547 13.807 23.0564 13.8772 23.3371C11.9193 23.3932 10.3544 24.9932 10.3544 26.9652C10.3544 27.1406 10.3684 27.3161 10.3895 27.4915C10.4035 27.5757 10.4737 27.6389 10.5579 27.6389H26.5018C26.593 27.6389 26.6772 27.5757 26.7053 27.4845L26.8246 27.0564Z" fill="#F38020"/>
<path d="M29.5754 21.5055C29.4983 21.5055 29.414 21.5055 29.3368 21.5125C29.2807 21.5125 29.2316 21.5546 29.2105 21.6108L28.8737 22.7827C28.7263 23.2879 28.7825 23.7511 29.0281 24.095C29.2526 24.4108 29.6316 24.5932 30.0877 24.6143L31.9263 24.7265C31.9825 24.7265 32.0316 24.7546 32.0597 24.7967C32.0877 24.8388 32.0947 24.902 32.0807 24.9511C32.0526 25.0353 31.9684 25.0985 31.8772 25.1055L29.9614 25.2178C28.9228 25.2669 27.807 26.102 27.414 27.1265L27.2737 27.4844C27.2456 27.5546 27.2947 27.6248 27.3719 27.6248H33.9544C34.0316 27.6248 34.1018 27.5757 34.1228 27.4985C34.2351 27.0915 34.2983 26.6634 34.2983 26.2213C34.2983 23.6178 32.186 21.5055 29.5754 21.5055" fill="#FAAE40"/>
</svg>
