<svg width="22" height="20" viewBox="0 0 22 20" fill="none" xmlns="http://www.w3.org/2000/svg">
<path d="M15 1.9146C16.4817 2.65095 17.5 4.17998 17.5 5.94684C17.5 7.7137 16.4817 9.24273 15 9.97908M17 15.2132C18.5115 15.8972 19.8725 17.0118 21 18.4468M1 18.4468C2.94649 15.9694 5.58918 14.4468 8.5 14.4468C11.4108 14.4468 14.0535 15.9694 16 18.4468M13 5.94684C13 8.43212 10.9853 10.4468 8.5 10.4468C6.01472 10.4468 4 8.43212 4 5.94684C4 3.46156 6.01472 1.44684 8.5 1.44684C10.9853 1.44684 13 3.46156 13 5.94684Z" stroke="#CBD5E1" stroke-width="2" stroke-linecap="round" stroke-linejoin="round"/>
</svg>
