<svg width="44" height="44" viewBox="0 0 44 44" fill="none" xmlns="http://www.w3.org/2000/svg">
<rect width="44" height="44" rx="5" fill="#059669" fill-opacity="0.5"/>
<path d="M21.5558 25.5703L20.8374 27.5086C20.8374 27.5086 17.1499 27.4002 15.0605 25.9374C15.3914 25.946 15.8027 25.8631 16.0184 25.4608C16.3826 24.7804 17.269 23.4375 18.4106 23.2623C18.3729 23.3614 18.3554 23.4608 18.3633 23.562C18.4537 24.6616 21.5562 25.5703 21.5562 25.5703" fill="#B3CD38"/>
<path d="M30.3173 27.5975C30.3173 27.5975 30.0826 25.9585 31.1549 26.0809C32.2272 26.2032 32.5645 25.7489 32.5645 25.7489C32.5645 25.7489 32.6159 27.7112 31.6458 28.0324C30.9539 28.2618 30.5279 27.7349 30.5279 27.7349" fill="#38276B"/>
<g opacity="0.35">
<path d="M32.5631 25.9301C32.4009 26.148 32.0022 26.5259 31.2285 26.4376C30.463 26.35 30.3632 27.1607 30.369 27.6316L30.3173 27.5978C30.3173 27.5978 30.0822 25.9589 31.1545 26.0812C32.2272 26.2032 32.5642 25.7493 32.5642 25.7493C32.5642 25.7493 32.5664 25.8175 32.5628 25.9305L32.5631 25.9301Z" fill="white"/>
</g>
<g opacity="0.15">
<path d="M31.6462 28.0321C30.9539 28.2614 30.5283 27.7346 30.5283 27.7346L30.318 27.5975C30.318 27.5975 30.271 27.2677 30.3151 26.9149C30.4522 27.0972 30.7023 27.3129 31.1197 27.3259C31.7958 27.3467 32.2986 26.5385 32.561 25.9901C32.5387 26.5241 32.4052 27.7805 31.6462 28.0321Z" fill="#38276B"/>
</g>
<path d="M31.2974 28.265C30.7408 28.265 30.4095 27.8649 30.3927 27.8441C30.3736 27.8208 30.3618 27.7942 30.3568 27.7666C30.3518 27.7676 30.3467 27.7687 30.3417 27.7694C30.2466 27.7834 30.1587 27.717 30.1454 27.6223C30.1393 27.5807 30.0051 26.6002 30.4537 26.1387C30.6349 25.9521 30.8782 25.8746 31.1747 25.9087C32.116 26.016 32.4239 25.6467 32.4268 25.6431C32.4709 25.5835 32.547 25.5598 32.6177 25.5821C32.6884 25.6043 32.7361 25.6704 32.7379 25.7447C32.7401 25.8301 32.7803 27.8401 31.7001 28.1979C31.5554 28.246 31.4208 28.2654 31.297 28.2654L31.2974 28.265ZM30.5276 27.5613C30.5782 27.5613 30.6284 27.5832 30.6629 27.6259C30.6769 27.6428 31.0264 28.0544 31.591 27.8678C32.1623 27.6786 32.3435 26.714 32.3826 26.0942C32.1397 26.2155 31.7424 26.3232 31.1352 26.2539C30.9482 26.2324 30.8068 26.274 30.7031 26.3806C30.4321 26.6591 30.4555 27.323 30.4885 27.566C30.5014 27.5631 30.5147 27.5613 30.528 27.5613H30.5276Z" fill="#38276B"/>
<path d="M19.3429 28.5945C19.3429 28.5945 16.3743 28.2148 15.5456 30.5999C14.7923 32.7683 16.8738 34.5655 16.8738 34.5655C16.8738 34.5655 15.9199 34.7048 15.8076 35.3777C15.696 36.0477 16.0584 36.7224 18.9366 36.3671C20.6495 36.1557 19.8044 33.4986 19.8044 33.1788C19.8044 32.8591 21.6741 32.6104 24.2896 31.8994C24.7303 31.7796 19.3429 28.5945 19.3429 28.5945Z" fill="#B3CD38"/>
<path d="M17.5603 36.6373C16.7044 36.6373 16.1413 36.4876 15.8521 36.1858C15.6515 35.9762 15.5786 35.6948 15.6364 35.3489C15.7229 34.8303 16.2009 34.5834 16.5303 34.4732C16.3326 34.2669 16.039 33.9256 15.7778 33.4834C15.1935 32.4958 15.0564 31.4788 15.3816 30.5425C15.7408 29.5085 16.5472 28.8141 17.7143 28.5338C18.581 28.3257 19.3332 28.4183 19.3647 28.4222C19.3881 28.4251 19.4107 28.433 19.4308 28.4448C19.4433 28.4524 20.7008 29.1959 21.9368 29.969C24.5283 31.5897 24.5071 31.7465 24.4866 31.8983C24.4755 31.9794 24.4177 32.0436 24.3348 32.0659C23.377 32.3261 22.5125 32.5263 21.8177 32.6871C20.9531 32.887 20.1345 33.0765 19.9802 33.2071C19.987 33.2606 20.0068 33.3621 20.0247 33.4537C20.1421 34.0587 20.3861 35.3173 19.8665 36.0329C19.6583 36.3197 19.3525 36.4898 18.9581 36.5382C18.427 36.6039 17.9615 36.6365 17.5607 36.6365L17.5603 36.6373ZM18.8961 28.7459C18.6104 28.7459 18.2095 28.7703 17.7853 28.8733C16.7295 29.1296 16.0308 29.7296 15.7089 30.6562C15.0037 32.6857 16.9667 34.4165 16.9865 34.4338C17.0378 34.4783 17.0582 34.5482 17.0392 34.6135C17.0202 34.6785 16.9649 34.7266 16.8978 34.7363C16.8899 34.7374 16.0674 34.8666 15.9777 35.4056C15.9378 35.6446 15.9773 35.8161 16.1018 35.9461C16.3348 36.189 17.0123 36.4298 18.9151 36.1948C19.2144 36.1578 19.4337 36.0383 19.5855 35.8294C20.0168 35.2355 19.7922 34.0767 19.6841 33.5197C19.6483 33.3345 19.631 33.2426 19.631 33.178C19.631 32.8518 20.103 32.728 21.7394 32.3494C22.3779 32.2015 23.1602 32.0207 24.0248 31.7906C23.4653 31.3126 21.2894 29.9471 19.2869 28.7624C19.2259 28.7567 19.0866 28.7456 18.8961 28.7456V28.7459Z" fill="#38276B"/>
<path d="M16.9736 34.4236C16.9736 34.4236 16.9697 34.4211 16.97 34.4215L16.9711 34.4226C16.9711 34.4226 16.9718 34.4236 16.974 34.4247L16.9829 34.4312C16.9908 34.4359 16.9973 34.4405 17.0063 34.4452C17.0228 34.4545 17.0414 34.4635 17.0605 34.4725C17.0992 34.4893 17.1398 34.5058 17.1825 34.5195C17.2675 34.5475 17.3569 34.5715 17.4488 34.5898C17.5403 34.6092 17.6336 34.6232 17.728 34.6361L17.8701 34.6519L18.0133 34.6641H18.0158C18.0635 34.6684 18.099 34.7104 18.0951 34.7581C18.0915 34.8015 18.0563 34.8349 18.0143 34.8374L17.8661 34.8471L17.7172 34.8529C17.6178 34.8543 17.5173 34.8543 17.4161 34.8482C17.3149 34.8435 17.213 34.8324 17.1096 34.8145C17.0579 34.8059 17.0055 34.7936 16.9524 34.7793C16.9255 34.7714 16.899 34.7635 16.871 34.7531C16.8573 34.7484 16.8426 34.742 16.8283 34.7362L16.8053 34.7255C16.8017 34.724 16.7967 34.7212 16.7924 34.7186L16.7856 34.7151L16.7744 34.7079C16.6962 34.6526 16.6775 34.5446 16.7328 34.4664C16.7881 34.3881 16.8961 34.3695 16.9743 34.4247" fill="#38276B"/>
<g opacity="0.3">
<path d="M24.1738 31.9582C21.5956 32.6587 19.7525 32.9042 19.7525 33.2193C19.7525 33.3352 19.8651 33.763 19.924 34.2679C20.0241 35.1357 19.9646 36.2306 18.8973 36.3627C16.06 36.7126 15.7025 36.0472 15.8127 35.3873C15.822 35.3309 15.8378 35.2785 15.8583 35.2294C15.9825 35.4691 16.3388 35.894 17.3053 35.9166C18.9306 35.9554 19.4661 35.5721 19.5195 34.9703C19.578 34.3178 19.1162 33.0219 18.7713 32.4237C18.2104 31.4515 17.3168 30.6411 17.6699 29.2365C17.7173 29.0495 17.8242 28.8905 17.9757 28.756C18.7035 28.6242 19.2978 28.7003 19.2978 28.7003C19.2978 28.7003 24.6088 31.8401 24.1745 31.9582" fill="#010101"/>
</g>
<path d="M27.3904 28.8922C27.3904 28.8922 28.828 29.082 29.6746 28.0929C30.6012 27.0102 31.231 27.0601 31.2806 27.3605C31.3301 27.6608 30.8122 27.8249 30.3597 28.7167C29.9337 29.5561 29.3645 30.2882 28.0489 30.117" fill="#B3CD38"/>
<g opacity="0.15">
<path d="M30.3601 28.7168C29.9337 29.5566 29.3645 30.2887 28.0489 30.1172L27.3904 28.8923C27.3904 28.8923 27.4905 28.9056 27.6527 28.907L27.7202 29.1367C28.9723 29.576 29.6803 28.9774 30.2711 28.2446C30.6902 27.7235 31.071 27.5272 31.2809 27.3628C31.3279 27.6621 30.8112 27.8275 30.3597 28.7172" fill="#010101"/>
</g>
<path d="M28.415 30.3149C28.2922 30.3149 28.1634 30.3067 28.0266 30.2888C27.9315 30.2765 27.8648 30.1893 27.8774 30.0946C27.8896 29.9999 27.9768 29.9324 28.0715 29.9453C29.217 30.0946 29.7528 29.5308 30.2057 28.6383C30.4527 28.152 30.7139 27.8764 30.9045 27.6751C31.0419 27.5301 31.1194 27.4454 31.1101 27.3887C31.1087 27.3804 31.1062 27.3653 31.0688 27.3549C30.9199 27.3133 30.4645 27.4375 29.807 28.2055C28.9095 29.2541 27.4309 29.0722 27.3685 29.0639C27.2737 29.0513 27.207 28.9641 27.2195 28.8694C27.2321 28.7746 27.3189 28.7075 27.4137 28.7205C27.4273 28.7223 28.7702 28.8841 29.544 27.9805C30.1544 27.2674 30.7591 26.9092 31.1622 27.0215C31.319 27.0653 31.4274 27.1816 31.4521 27.3327C31.4898 27.5616 31.3427 27.717 31.1564 27.9137C30.9802 28.0996 30.739 28.354 30.5151 28.7955C30.1282 29.5581 29.5756 30.3153 28.4157 30.3153L28.415 30.3149Z" fill="#38276B"/>
<path d="M32.3439 20.8374C30.4777 22.2579 28.0891 23.3862 26.9597 23.8821C26.5556 24.0598 26.3126 24.1563 26.3126 24.1563L26.2918 24.0684L26.047 23.038L25.433 20.4488L25.382 20.2338C25.7144 20.1523 26.1558 19.9761 26.6622 19.7482C28.7149 18.8248 31.8286 17.0574 32.9924 17.3459C33.2895 17.4195 33.7471 17.8254 33.8167 18.4491C33.8864 19.0682 33.5741 19.9015 32.3443 20.8374" fill="#B3CD38"/>
<g opacity="0.5">
<path d="M33.8171 18.7717C33.8167 18.7696 33.8167 18.767 33.8164 18.7649C33.7467 18.1412 33.2892 17.7353 32.992 17.6617C31.5608 17.3071 27.1829 20.0601 25.4527 20.5313L25.382 20.2338C27.0609 19.8214 31.5411 16.9863 32.992 17.3459C33.2892 17.4195 33.7467 17.8254 33.8164 18.4491C33.8282 18.551 33.8289 18.6587 33.8171 18.7717Z" fill="white"/>
</g>
<g opacity="0.3">
<path d="M32.3442 20.8373C29.8105 22.7659 26.3129 24.1562 26.3129 24.1562L26.2921 24.0683L26.4525 22.5858C26.4525 22.5858 29.3823 22.3805 31.3493 21.1072C32.8182 20.1558 33.5378 19.1818 33.8166 18.4493C33.8862 19.0684 33.574 19.9017 32.3442 20.8377" fill="#010101"/>
</g>
<path d="M26.3126 24.3296C26.2437 24.3296 26.1784 24.2883 26.1514 24.2201C26.1163 24.1311 26.1597 24.0303 26.2483 23.9951C26.2832 23.9814 29.7542 22.5904 32.2391 20.6995C33.2823 19.9057 33.7747 19.0724 33.6261 18.3539C33.526 17.8701 33.1639 17.5669 32.9504 17.5138C32.1135 17.3063 29.9857 18.3413 28.2764 19.1725C27.1473 19.7216 26.0811 20.2402 25.4233 20.4017C25.33 20.4246 25.2367 20.3676 25.2137 20.2746C25.1907 20.1817 25.2478 20.088 25.3407 20.065C25.963 19.9121 27.0131 19.4015 28.1249 18.8606C30.0668 17.9164 32.0751 16.9399 33.034 17.1771C33.3932 17.2661 33.8418 17.6839 33.966 18.2832C34.0912 18.889 33.9301 19.8479 32.4494 20.9748C29.9261 22.8951 26.412 24.3026 26.3768 24.3166C26.356 24.3249 26.3341 24.3288 26.3129 24.3288L26.3126 24.3296Z" fill="#38276B"/>
<path d="M27.2949 32.0014C26.1048 32.6456 24.1823 32.9245 22.1888 32.9241C21.2442 32.9241 19.1408 32.7544 18.1536 30.5738C17.4261 28.9678 18.1435 27.8338 18.3337 25.3712C18.3352 25.354 18.3362 25.3364 18.3377 25.3191C18.3377 25.3191 22.1608 20.8587 24.2839 20.3595C24.7659 20.2461 25.1413 20.2988 25.4327 20.4488C26.4253 20.9574 26.4519 22.5859 26.4519 22.5859C26.4562 22.5971 26.4605 22.6085 26.4648 22.62C26.6127 23.0037 26.7806 23.4307 26.9593 23.8822C27.5177 25.2894 28.1817 26.9359 28.6658 28.2583C29.198 29.7143 28.5387 31.3267 27.2945 32.0011" fill="#B3CD38"/>
<path d="M27.2949 32.0013C26.1048 32.6455 24.1823 32.9243 22.1888 32.924C21.4046 32.924 19.822 32.807 18.7425 31.52C19.7897 32.2801 21.0177 32.3616 21.6896 32.3616C23.789 32.362 25.8141 32.0684 27.067 31.3898C28.121 30.8192 28.7759 29.6101 28.7013 28.3616C29.1668 29.7895 28.5093 31.3431 27.2945 32.0013" fill="black" fill-opacity="0.25"/>
<path d="M26.533 22.5547C26.9999 23.5322 27.4083 24.5332 27.8066 25.5394C28.0069 26.0422 28.2061 26.5454 28.402 27.0507C28.5 27.3033 28.5969 27.5563 28.6923 27.8101L28.8345 28.1912L28.8994 28.3957C28.9098 28.4302 28.922 28.4639 28.9306 28.4984L28.9532 28.6035C29.0214 28.882 29.0401 29.1713 29.0297 29.4566C29.0225 29.7433 28.9647 30.0265 28.8829 30.2999C28.8025 30.5748 28.6758 30.8347 28.5262 31.0783C28.378 31.3238 28.1892 31.5445 27.9782 31.7394L27.8978 31.8119L27.8576 31.8481C27.844 31.86 27.8289 31.87 27.8149 31.8812L27.6415 32.0107C27.5816 32.0509 27.5188 32.0868 27.4574 32.1248C27.4266 32.1428 27.3961 32.1643 27.3645 32.179L27.2701 32.2268C27.1452 32.2935 27.0157 32.3459 26.8875 32.403C26.7569 32.4518 26.6277 32.5056 26.4953 32.5469C25.9685 32.7242 25.4287 32.8419 24.8865 32.9258C24.3442 33.0102 23.7987 33.0629 23.2532 33.0902C22.9805 33.1035 22.7074 33.1132 22.4346 33.1153C22.164 33.1196 21.8827 33.1178 21.6052 33.0927C21.0493 33.0446 20.4931 32.9183 19.9756 32.6847C19.7176 32.5673 19.4706 32.4231 19.242 32.2537C19.0127 32.0846 18.8049 31.8869 18.6201 31.6709C18.4353 31.4545 18.2749 31.2187 18.1399 30.9707C18.1062 30.9086 18.0721 30.8469 18.043 30.7826C18.0132 30.7188 17.9802 30.6567 17.9555 30.5899L17.8762 30.3925L17.8564 30.343C17.8507 30.3261 17.8457 30.3089 17.8403 30.292L17.809 30.1898L17.7778 30.0875L17.7624 30.0365L17.7509 29.9841L17.7064 29.7745C17.6978 29.7397 17.6938 29.7042 17.6899 29.6687L17.6766 29.5625L17.6637 29.4562C17.659 29.4207 17.6598 29.3852 17.6576 29.35L17.649 29.1372L17.6544 28.9258C17.6544 28.8551 17.6619 28.7858 17.6676 28.7162C17.6745 28.647 17.6777 28.5766 17.687 28.5081C17.7531 27.9572 17.8668 27.4271 17.9569 26.8978C18.0495 26.3688 18.1227 25.8391 18.1654 25.3062C18.1729 25.2104 18.2566 25.1393 18.352 25.1468C18.4468 25.1544 18.5178 25.2369 18.511 25.3317C18.4723 25.8775 18.403 26.4212 18.3133 26.9584C18.2246 27.4957 18.1144 28.025 18.0549 28.549C17.9978 29.0715 18.0104 29.5908 18.1708 30.0778L18.1991 30.1693C18.2042 30.1844 18.2081 30.1998 18.2135 30.2149L18.2318 30.2594L18.3047 30.4381C18.3269 30.4984 18.3581 30.5555 18.3858 30.614C18.413 30.6728 18.4443 30.7292 18.4755 30.7859C18.6004 31.012 18.7457 31.2251 18.9122 31.42C19.0791 31.6145 19.2657 31.7918 19.4717 31.9436C19.6777 32.0958 19.9002 32.226 20.1346 32.3323C20.6043 32.544 21.1175 32.6617 21.6383 32.7062C21.8995 32.7299 22.1597 32.7313 22.4299 32.727C22.698 32.7245 22.9654 32.7152 23.2327 32.7019C23.7671 32.6746 24.3 32.6226 24.8265 32.5408L25.0239 32.5092L25.2202 32.4729C25.3516 32.4507 25.4804 32.4198 25.6103 32.3929C25.868 32.3319 26.1249 32.2669 26.3736 32.1819C26.4996 32.1435 26.6205 32.0933 26.7436 32.048C26.8628 31.9953 26.9844 31.9472 27.0986 31.8862L27.1854 31.8428C27.2152 31.8291 27.24 31.8108 27.2676 31.795C27.3211 31.762 27.3763 31.7315 27.4287 31.6963L27.5809 31.5836C27.5935 31.574 27.6067 31.5653 27.6186 31.5553L27.6538 31.5237L27.7245 31.4606C27.9103 31.2901 28.0783 31.0963 28.2104 30.8788C28.3435 30.6631 28.4584 30.4331 28.5301 30.1883C28.6037 29.9454 28.6572 29.6938 28.664 29.439C28.6737 29.1853 28.659 28.929 28.599 28.6818L28.5793 28.5885C28.5718 28.5576 28.561 28.5278 28.5517 28.4973L28.495 28.315L28.3554 27.9357C28.2613 27.683 28.1659 27.4304 28.0693 27.1784C27.8763 26.6742 27.6796 26.1707 27.4818 25.6679C27.0846 24.6627 26.683 23.6575 26.3718 22.6164C26.3582 22.5705 26.3844 22.522 26.43 22.5084C26.4716 22.4958 26.5154 22.5159 26.5333 22.554L26.533 22.5547Z" fill="#38276B"/>
<path d="M28.3546 27.936C29.1474 29.326 31.0426 34.2182 31.6524 34.4611C32.4989 34.7985 33.7374 36.2085 30.2247 36.4647C27.3893 36.6718 26.7745 32.9836 25.466 31.8833" fill="#B3CD38"/>
<g opacity="0.25">
<path d="M30.2241 36.465C27.389 36.672 26.7746 32.9842 25.4654 31.8835C25.4654 31.8835 26.2374 32.0429 27.2666 33.7346C27.9237 34.8145 29.1317 35.8219 30.3767 35.7311C31.5477 35.6453 32.1904 35.4318 32.4962 35.1726C32.7603 35.6912 32.4237 36.3042 30.2238 36.4646" fill="#010101"/>
</g>
<path d="M28.3519 27.6208C28.3103 27.5357 28.5389 27.6046 28.5859 27.6864Z" fill="#38276B"/>
<path d="M28.5859 27.6863C28.686 27.8611 28.7747 28.0362 28.8604 28.2128C28.9458 28.389 29.0287 28.5659 29.1088 28.7432C29.2692 29.0981 29.4235 29.4545 29.5767 29.8108C29.8825 30.5239 30.185 31.237 30.4933 31.9454C30.648 32.2996 30.8048 32.6521 30.9692 32.9994C31.0514 33.1731 31.1357 33.3454 31.2229 33.5148C31.3105 33.6835 31.4016 33.8507 31.5 34.0054C31.5491 34.0822 31.6012 34.1568 31.6532 34.216C31.6783 34.2451 31.7067 34.2717 31.72 34.2792L31.7225 34.2814H31.7228C31.7228 34.2814 31.7228 34.2814 31.7232 34.2814L31.7271 34.2835L31.7365 34.2875L31.7551 34.2954C31.7799 34.3065 31.8057 34.3162 31.8294 34.3284C32.0232 34.4217 32.1987 34.5405 32.3573 34.6865C32.437 34.759 32.5098 34.8419 32.5759 34.9331C32.6419 35.0239 32.699 35.129 32.7338 35.2492C32.7693 35.3684 32.7779 35.5073 32.7438 35.6386C32.7338 35.6706 32.7252 35.7036 32.7122 35.7341C32.6979 35.7635 32.6832 35.7929 32.6681 35.822C32.652 35.85 32.6326 35.8744 32.6143 35.9006C32.5963 35.9275 32.5755 35.9491 32.5547 35.9709C32.386 36.1464 32.1886 36.2455 31.9959 36.323C31.8014 36.3984 31.6051 36.4536 31.4088 36.496C31.0158 36.5818 30.6229 36.623 30.2299 36.6517C29.8211 36.6794 29.3998 36.627 29.0094 36.4823C28.8163 36.4063 28.6282 36.3158 28.4574 36.2006C28.3691 36.1468 28.2891 36.0829 28.2073 36.0212C28.1656 35.991 28.1294 35.9552 28.0903 35.9225C28.0526 35.8884 28.012 35.8572 27.9769 35.8206C27.6833 35.5399 27.4332 35.2241 27.2135 34.895C26.9928 34.5663 26.7965 34.2261 26.6081 33.8859L26.33 33.3756C26.2392 33.2058 26.1473 33.0368 26.0533 32.8713C25.9585 32.7062 25.8631 32.5419 25.7565 32.3872C25.6517 32.2315 25.5379 32.0832 25.4095 31.9494L25.408 31.9479C25.3747 31.9135 25.3757 31.8582 25.4105 31.8252C25.441 31.7958 25.4877 31.7933 25.5211 31.8169C25.688 31.9347 25.8294 32.0811 25.96 32.2325C26.0253 32.309 26.0849 32.3879 26.1448 32.4676C26.1746 32.5074 26.2019 32.5483 26.2302 32.5889C26.2589 32.6294 26.2866 32.6704 26.3135 32.7116C26.3404 32.7529 26.368 32.7935 26.3942 32.8351L26.4714 32.9603C26.5231 33.0436 26.5726 33.1276 26.6225 33.2115L26.9106 33.7165C27.0998 34.0528 27.2932 34.3833 27.5064 34.6969C27.7181 35.0113 27.955 35.3042 28.2234 35.5579C28.2557 35.5913 28.2923 35.6189 28.3264 35.6494C28.3619 35.6785 28.395 35.7111 28.4319 35.7373C28.5051 35.7915 28.5766 35.8489 28.6548 35.8952C28.8059 35.9964 28.9699 36.0729 29.1371 36.1382C29.4752 36.2602 29.8387 36.3047 30.203 36.2785C30.5823 36.2487 30.962 36.2057 31.3259 36.1238C31.5079 36.0833 31.6851 36.0316 31.8517 35.9663C32.0167 35.901 32.1711 35.8134 32.2701 35.7068C32.32 35.6541 32.3555 35.5988 32.3681 35.5417C32.3824 35.485 32.3803 35.424 32.3613 35.358C32.3426 35.2923 32.3074 35.223 32.2597 35.1577C32.212 35.0924 32.1571 35.0282 32.0932 34.9704C31.9672 34.8534 31.8183 34.7526 31.6632 34.6779C31.6439 34.6679 31.6241 34.6607 31.6048 34.6517L31.5707 34.6366C31.5599 34.6316 31.5491 34.6262 31.5387 34.6209L31.5229 34.6122L31.5104 34.604C31.4418 34.5588 31.402 34.515 31.3632 34.4716C31.2875 34.3851 31.2297 34.2993 31.1741 34.2132C31.0646 34.0409 30.9706 33.8669 30.8798 33.6917C30.7897 33.5166 30.704 33.3407 30.6204 33.1642C30.4538 32.8107 30.2959 32.4554 30.1405 32.099C29.8301 31.3867 29.2595 29.9612 29.2595 29.9612L28.3537 27.9364L28.5852 27.6866L28.5859 27.6863Z" fill="#38276B"/>
<g opacity="0.4">
<path d="M21.4529 31.9951C22.7577 31.7622 23.5854 30.2849 23.3017 28.6955C23.018 27.106 21.7303 26.0063 20.4256 26.2392C19.1208 26.4721 18.2931 27.9494 18.5768 29.5388C18.8604 31.1282 20.1481 32.228 21.4529 31.9951Z" fill="#EEEFF3"/>
</g>
<path d="M27.1855 19.6101C27.1855 19.6101 24.7993 20.3555 24.794 20.367C23.7607 22.6455 28.1606 24.6297 28.1606 24.6297C28.1606 24.6297 25.8928 21.3973 27.1852 19.6101H27.1855Z" fill="white"/>
<g opacity="0.19">
<path d="M24.901 20.328C24.901 20.328 24.9197 20.3205 24.952 20.3097C24.8188 21.7416 26.6114 22.993 27.6873 23.6099C27.9917 24.1978 28.2676 24.5911 28.2676 24.5911C28.2676 24.5911 23.8678 22.6069 24.901 20.3284V20.328Z" fill="#010101"/>
</g>
<path d="M28.5697 24.9683L28.1032 24.758C28.0745 24.7451 27.3897 24.4343 26.6167 23.9136C26.161 23.6067 25.7705 23.2906 25.4561 22.974C25.057 22.5725 24.7789 22.168 24.6296 21.7714C24.4409 21.2712 24.4531 20.7791 24.6662 20.309C24.6917 20.2527 24.7366 20.2372 24.7764 20.224C24.7947 20.2179 24.8213 20.2089 24.855 20.1978C24.9178 20.1773 25.0093 20.1479 25.1277 20.1102C25.3266 20.047 25.6033 19.9595 25.9499 19.8504C26.5403 19.6648 27.1378 19.4782 27.1439 19.4761L27.5469 19.3501L27.2993 19.6925C27.0237 20.0732 26.9006 20.5606 26.9329 21.1409C26.9595 21.6164 27.0894 22.154 27.3194 22.739C27.7142 23.7431 28.2704 24.5412 28.2762 24.5491L28.5701 24.9683H28.5697ZM24.8988 20.4788C24.7405 20.862 24.738 21.2633 24.8923 21.672C25.2017 22.4921 26.0842 23.2156 26.77 23.6782C27.1443 23.9304 27.5028 24.1346 27.7691 24.2768C27.5663 23.938 27.2878 23.4273 27.0578 22.842C26.817 22.229 26.6806 21.662 26.6526 21.1567C26.625 20.6625 26.7011 20.2261 26.8791 19.8536C26.0863 20.1016 25.131 20.402 24.8988 20.4791V20.4788Z" fill="#38276B"/>
<path d="M16.0859 23.1221C16.0859 23.1221 18.4667 22.3592 18.4775 22.3653C20.6336 23.6346 18.176 27.789 18.176 27.789C18.176 27.789 18.1717 23.8406 16.0863 23.1221H16.0859Z" fill="white"/>
<g opacity="0.19">
<path d="M18.3674 22.3951C18.3674 22.3951 18.348 22.3998 18.3153 22.4095C19.2481 23.5041 18.5016 25.559 17.9762 26.6826C18.0652 27.3387 18.0659 27.8188 18.0659 27.8188C18.0659 27.8188 20.5235 23.6648 18.3674 22.3951Z" fill="#010101"/>
</g>
<path d="M18.036 28.3013L18.0353 27.7892C18.0353 27.7795 18.031 26.8019 17.7751 25.7533C17.6266 25.1436 17.4234 24.63 17.1719 24.2266C16.8647 23.7346 16.4843 23.4077 16.0403 23.2548L15.6409 23.1174L16.0432 22.9885C16.0493 22.9867 16.6454 22.7954 17.235 22.6078C17.5813 22.4976 17.858 22.4097 18.0572 22.3472C18.1756 22.3099 18.2675 22.2812 18.3307 22.2622C18.3644 22.2518 18.3913 22.2439 18.41 22.2385C18.4502 22.2266 18.4958 22.2137 18.5489 22.2449C18.9935 22.5069 19.2867 22.902 19.4202 23.4199C19.5261 23.8301 19.5311 24.321 19.436 24.8791C19.361 25.3187 19.2232 25.8018 19.0273 26.3153C18.6946 27.1856 18.3131 27.8337 18.2973 27.861L18.0368 28.3017L18.036 28.3013ZM16.4767 23.1446C16.8363 23.347 17.1496 23.6603 17.4116 24.0802C17.6793 24.5098 17.8939 25.0521 18.0493 25.6919C18.1979 26.3035 18.2639 26.8809 18.293 27.2749C18.4294 27.0054 18.6049 26.6322 18.766 26.2105C19.061 25.4375 19.3668 24.3383 19.1478 23.4895C19.0387 23.0664 18.8062 22.7398 18.4563 22.5173C18.2219 22.588 17.2677 22.8916 16.4767 23.1446Z" fill="#38276B"/>
<path d="M24.1756 12.129C24.1756 12.129 25.136 10.5908 26.2747 10.2305C27.4134 9.8702 28.433 10.6091 28.8274 12.0561C29.2214 13.5028 29.0994 14.7944 29.4626 15.7411C29.8258 16.6878 31.2968 17.6453 30.5984 18.9279C29.9001 20.2105 29.0887 20.9347 27.4515 20.7944C25.8143 20.6541 22.902 20.1743 22.902 20.1743L24.1756 12.129Z" fill="#B3CD38"/>
<path d="M27.8731 20.7397C27.1862 20.6205 26.2524 20.7465 25.4636 20.5527C25.4406 20.0951 25.3739 19.7143 25.47 19.2977C26.046 16.7995 28.1085 20.1192 29.408 18.6442C30.022 17.9476 27.8605 13.2574 27.7249 11.6202C27.6574 10.8077 27.9517 10.7087 28.265 10.8146C28.5058 11.148 28.7071 11.5797 28.8514 12.0918C29.2687 13.5761 29.2433 14.8731 29.605 15.851C29.9668 16.829 31.5699 17.9856 30.5984 18.9277C29.698 19.8005 29.2562 20.979 27.8731 20.7393V20.7397Z" fill="black" fill-opacity="0.2"/>
<path d="M26.3217 11.0163C25.5163 11.2711 24.9985 11.9881 25.0225 12.7292C24.9475 12.6147 24.8869 12.4891 24.8442 12.3535C24.5689 11.4832 25.1191 10.5325 26.073 10.2307C27.0272 9.9289 28.0238 10.3897 28.2994 11.26C28.3425 11.3956 28.3651 11.5331 28.3698 11.6698C27.9632 11.05 27.1273 10.7611 26.322 11.0159L26.3217 11.0163Z" fill="white" fill-opacity="0.5"/>
<path d="M27.8358 20.9521C27.708 20.9521 27.576 20.9464 27.4392 20.9345C25.8157 20.7953 22.9081 20.3176 22.879 20.3129L22.7412 20.2903L24.041 12.0792L24.0561 12.0552C24.0662 12.039 24.307 11.6554 24.6928 11.2219C25.2174 10.6326 25.7353 10.254 26.232 10.0968C26.747 9.93386 27.2566 9.97729 27.7059 10.222C28.2865 10.5389 28.733 11.177 28.9623 12.0193C29.1583 12.7392 29.2293 13.4268 29.2918 14.034C29.3574 14.6732 29.4145 15.2255 29.5932 15.691C29.7002 15.9691 29.9144 16.2558 30.1409 16.5594C30.4 16.9061 30.668 17.2646 30.8141 17.6605C30.9864 18.127 30.9562 18.5638 30.7212 18.9955C30.3192 19.7341 29.928 20.202 29.4533 20.5128C29.0032 20.8075 28.471 20.9525 27.8354 20.9525L27.8358 20.9521ZM23.0624 20.0581C23.6592 20.1543 26.0525 20.5336 27.4633 20.6546C27.8541 20.688 28.1954 20.6718 28.5058 20.6051C28.7997 20.5419 29.0592 20.4346 29.2997 20.2774C29.7335 19.9935 30.096 19.5568 30.4746 18.8609C30.6713 18.4995 30.6957 18.1489 30.5511 17.7574C30.419 17.3999 30.1635 17.0579 29.9162 16.7274C29.6775 16.408 29.4518 16.1062 29.3312 15.7914C29.1392 15.2912 29.0779 14.6944 29.0126 14.0624C28.9512 13.4663 28.8816 12.7905 28.6914 12.0929C28.4821 11.3252 28.0845 10.7482 27.5713 10.4686C27.1909 10.2612 26.757 10.2253 26.3167 10.3645C25.3154 10.6814 24.434 11.9888 24.3091 12.1804L23.062 20.0585L23.0624 20.0581Z" fill="#38276B"/>
<path d="M14.2026 15.5396C14.2026 15.5396 12.5324 14.8337 11.3934 15.194C10.2546 15.5543 9.84552 16.7454 10.3555 18.1554C10.8655 19.5655 11.7085 20.5517 11.9557 21.535C12.203 22.5183 11.5509 24.1476 12.8601 24.7954C14.1693 25.4428 15.2495 25.5684 16.5077 24.5119C17.7659 23.4553 19.8722 21.3875 19.8722 21.3875L14.2026 15.5396Z" fill="#B3CD38"/>
<path d="M15.9034 24.9858C16.3969 24.4935 17.4617 23.7832 17.9949 23.171C17.7502 22.7834 17.5862 22.4335 17.2679 22.1482C15.3597 20.436 15.5822 24.3381 13.6708 23.8791C12.7679 23.6623 11.8381 18.5828 11.0073 17.1656C10.5949 16.4622 10.2974 16.5501 10.1022 16.8174C10.0971 17.2287 10.1804 17.6978 10.3573 18.1995C10.8698 19.654 11.6367 20.7001 11.9034 21.7079C12.17 22.7156 11.556 24.3607 12.8576 24.731C13.669 24.9618 15.2833 25.6049 15.9038 24.9858H15.9034Z" fill="black" fill-opacity="0.2"/>
<path d="M11.8072 15.8639C12.6125 15.6091 13.4483 15.8976 13.8549 16.5177C13.8506 16.381 13.8277 16.2435 13.7846 16.1079C13.5093 15.2376 12.5124 14.7765 11.5581 15.0786C10.6039 15.3804 10.0537 16.3308 10.3293 17.2014C10.3724 17.337 10.4327 17.4626 10.5077 17.5771C10.4836 16.8361 11.0011 16.119 11.8068 15.8642L11.8072 15.8639Z" fill="white" fill-opacity="0.5"/>
<path d="M14.6168 25.4349C14.0774 25.4349 13.5115 25.2745 12.798 24.9217C12.3573 24.7039 12.0814 24.364 11.954 23.8831C11.8459 23.4755 11.8589 23.0279 11.8714 22.5955C11.8825 22.2169 11.8926 21.8591 11.8201 21.5702C11.6984 21.0864 11.4271 20.6023 11.1135 20.0414C10.8156 19.5088 10.4775 18.9055 10.2242 18.2039C9.92738 17.3832 9.92523 16.6044 10.2181 16.0112C10.4445 15.5525 10.8364 15.2238 11.3518 15.0609C11.8484 14.9037 12.4898 14.9155 13.2578 15.0957C13.8226 15.2285 14.2404 15.4036 14.2579 15.4108L14.2841 15.4219L14.3039 15.4424L20.071 21.3904L19.9716 21.488C19.9504 21.5088 17.8471 23.572 16.5989 24.6199C15.9727 25.1457 15.3543 25.412 14.7083 25.4335C14.6782 25.4346 14.6477 25.4349 14.6175 25.4349H14.6168ZM12.1341 15.2324C11.8912 15.2324 11.6525 15.2597 11.4361 15.3282C10.9958 15.4675 10.6616 15.7467 10.4696 16.1354C10.2109 16.6593 10.2174 17.3602 10.4879 18.1085C10.7338 18.7885 11.0657 19.381 11.3582 19.9043C11.6683 20.4584 11.9615 20.982 12.0921 21.5016C12.1743 21.8286 12.1635 22.205 12.1521 22.6037C12.1402 23.0165 12.1277 23.4432 12.2253 23.8114C12.3322 24.2147 12.5536 24.4878 12.9226 24.6702C13.6328 25.0215 14.1801 25.1701 14.6986 25.1528C14.9857 25.1432 15.2599 25.0814 15.5366 24.9641C15.8291 24.8399 16.1173 24.6572 16.418 24.4046C17.5026 23.4941 19.242 21.807 19.6748 21.385L14.1223 15.6588C13.9561 15.5924 13.0152 15.2324 12.1338 15.2324H12.1341Z" fill="#38276B"/>
<path d="M27.627 31.1058C21.8914 29.4521 18.9597 23.5708 18.9597 23.5701C13.5034 20.5749 13.7758 17.1218 15.9692 14.8332L23.3348 12.5027C25.6144 13.1982 26.9914 15.6669 25.2365 20.8591C23.7586 26.1289 28.1979 28.9504 28.1979 28.9504L26.5421 29.2166L27.627 31.1058Z" fill="#B3CD38"/>
<path d="M25.677 14.7684L26.0983 16.0999L26.9133 15.8418L26.9775 16.0446C27.0741 16.3493 27.3996 16.5187 27.7046 16.4221L28.0574 16.3105C28.3621 16.214 28.5308 15.8885 28.4342 15.5838L27.8941 13.877C27.7976 13.5723 27.4724 13.4033 27.1677 13.4998L26.815 13.6114C26.5103 13.708 26.3409 14.0331 26.4374 14.3378L26.492 14.5104L25.677 14.7684Z" fill="#C3B2D3"/>
<g opacity="0.7">
<path d="M26.2557 14.6871L26.3102 14.8598L25.7608 15.0338L25.6768 14.7682L26.2348 14.5917C26.2391 14.6236 26.2456 14.6556 26.2557 14.6871Z" fill="white"/>
<path d="M28.2524 15.9331L27.7123 14.2263C27.6157 13.9216 27.2906 13.7526 26.9859 13.8491L26.6331 13.9607C26.5492 13.9873 26.4763 14.0314 26.4156 14.0874C26.4444 13.8717 26.5937 13.6812 26.8147 13.6112L27.1675 13.4996C27.4722 13.403 27.7973 13.5721 27.8939 13.8767L28.434 15.5836C28.504 15.8046 28.434 16.0365 28.2739 16.184C28.2847 16.1021 28.2789 16.0167 28.2524 15.9331Z" fill="white"/>
</g>
<g opacity="0.3">
<path d="M26.0486 14.6508L26.1415 14.945C26.2485 15.2831 26.6095 15.4704 26.9476 15.3635C27.0595 15.328 27.179 15.39 27.2146 15.502C27.3111 15.8071 27.6366 15.9761 27.9417 15.8796L28.2941 15.7679C28.3537 15.7489 28.4078 15.7213 28.4559 15.6868C28.49 15.9589 28.3275 16.2248 28.0569 16.3106L27.7044 16.4222C27.3994 16.5187 27.0739 16.3497 26.9774 16.0446L26.9131 15.8419L26.0981 16.0999L25.6768 14.7685L26.0486 14.6508Z" fill="#38276B"/>
</g>
<path d="M26.7918 16.1034L26.7864 16.0866L26.1573 16.2857C26.0547 16.318 25.9452 16.2613 25.9126 16.1587L25.4913 14.8273C25.4586 14.7246 25.5157 14.6152 25.6183 14.5825L26.2478 14.3833C26.1283 13.9803 26.354 13.5529 26.7567 13.4255L27.1094 13.3139C27.516 13.185 27.9517 13.4115 28.0806 13.8181L28.6207 15.5249C28.7495 15.9319 28.5234 16.3676 28.1168 16.4964L27.764 16.608C27.3571 16.7368 26.921 16.5104 26.7925 16.1034H26.7918ZM26.874 13.7973C26.672 13.8612 26.5596 14.0772 26.6235 14.2792L26.6781 14.4519C26.7107 14.5545 26.6537 14.664 26.551 14.6966L25.9219 14.8958L26.2255 15.8554L26.8546 15.6563C26.9573 15.624 27.0667 15.6807 27.0994 15.7833L27.1636 15.9861C27.2275 16.1881 27.4439 16.3004 27.646 16.2366L27.9987 16.125C28.2004 16.0611 28.3127 15.8447 28.2485 15.6426L27.7084 13.9358C27.6445 13.7341 27.4285 13.6218 27.2268 13.6857L26.874 13.7973Z" fill="#38276B"/>
<path d="M14.66 19.1871L25.9836 15.6041C26.0604 15.5797 26.1031 15.4979 26.0787 15.4211C26.0543 15.3443 25.9725 15.3016 25.8957 15.326L14.5721 18.909C14.4953 18.9334 14.4526 19.0152 14.477 19.092C14.5014 19.1688 14.5832 19.2115 14.66 19.1871Z" fill="#38276B"/>
<path d="M25.0685 16.4769C25.1783 16.4421 25.239 16.3251 25.2045 16.2153L24.8984 15.2485C24.8636 15.1386 24.7466 15.078 24.6368 15.1124C24.527 15.1472 24.4663 15.2642 24.5008 15.3741L24.8069 16.3409C24.8417 16.4507 24.9587 16.5113 25.0685 16.4769Z" fill="#38276B"/>
<path d="M23.3577 17.018C23.4675 16.9832 23.5282 16.8662 23.4937 16.7564L23.1876 15.7896C23.1528 15.6798 23.0358 15.6191 22.926 15.6536C22.8162 15.6884 22.7555 15.8054 22.79 15.9152L23.0961 16.882C23.1309 16.9918 23.2479 17.0525 23.3577 17.018Z" fill="#38276B"/>
<path d="M21.6466 17.5594C21.7565 17.5246 21.8171 17.4076 21.7827 17.2978L21.4765 16.331C21.4417 16.2212 21.3247 16.1605 21.2149 16.195C21.1051 16.2298 21.0444 16.3468 21.0789 16.4566L21.385 17.4234C21.4198 17.5332 21.5368 17.5939 21.6466 17.5594Z" fill="#38276B"/>
<path d="M15.9103 19.3747C16.0201 19.3399 16.0808 19.2229 16.0463 19.1131L15.7402 18.1463C15.7054 18.0365 15.5884 17.9758 15.4786 18.0103C15.3688 18.0451 15.3081 18.1621 15.3426 18.2719L15.6487 19.2387C15.6835 19.3485 15.8005 19.4092 15.9103 19.3747Z" fill="#38276B"/>
<path d="M17.6214 18.8333C17.7312 18.7985 17.7919 18.6815 17.7574 18.5717L17.4513 17.6049C17.4165 17.4951 17.2995 17.4344 17.1897 17.4689C17.0799 17.5037 17.0192 17.6207 17.0537 17.7305L17.3598 18.6973C17.3946 18.8071 17.5116 18.8678 17.6214 18.8333Z" fill="#38276B"/>
<path d="M19.3322 18.2921C19.442 18.2573 19.5027 18.1403 19.4682 18.0305L19.1621 17.0636C19.1273 16.9538 19.0103 16.8932 18.9005 16.9276C18.7907 16.9624 18.73 17.0794 18.7645 17.1892L19.0706 18.1561C19.1054 18.2659 19.2224 18.3265 19.3322 18.2921Z" fill="#38276B"/>
<path d="M14.4981 18.4966L14.9194 19.828L14.1044 20.086L14.1686 20.2888C14.2652 20.5935 14.0958 20.9194 13.7911 21.0159L13.4383 21.1275C13.1336 21.224 12.8081 21.0546 12.712 20.75L12.1718 19.0431C12.0753 18.7385 12.2443 18.4133 12.549 18.3168L12.9018 18.2052C13.2065 18.1086 13.5323 18.2773 13.6285 18.582L13.6831 18.7546L14.4981 18.4966Z" fill="#C3B2D3"/>
<g opacity="0.7">
<path d="M13.9779 18.7636L14.0324 18.9362L14.5819 18.7622L14.4979 18.4966L13.9398 18.6731C13.9546 18.7019 13.9675 18.7316 13.9775 18.7636H13.9779Z" fill="white"/>
<path d="M13.0615 20.9313L12.5214 19.2245C12.4248 18.9198 12.5939 18.5947 12.8986 18.4981L13.2513 18.3865C13.3353 18.36 13.4204 18.3542 13.5022 18.365C13.3547 18.2049 13.1229 18.135 12.9018 18.2049L12.549 18.3165C12.2443 18.4131 12.0753 18.7382 12.1718 19.0429L12.712 20.7497C12.7819 20.9708 12.9725 21.1201 13.1882 21.1488C13.1322 21.0882 13.0881 21.0149 13.0615 20.9313Z" fill="white"/>
</g>
<g opacity="0.3">
<path d="M14.1266 18.6144L14.2196 18.9087C14.3265 19.2468 14.1392 19.6078 13.8011 19.7147C13.6891 19.7503 13.627 19.8698 13.6626 19.9817C13.7591 20.2868 13.5901 20.6123 13.285 20.7088L12.9326 20.8204C12.873 20.8395 12.8128 20.8477 12.7535 20.8473C12.882 21.0892 13.1684 21.2134 13.4386 21.1276L13.7911 21.016C14.0961 20.9195 14.2651 20.594 14.1686 20.2889L14.1044 20.0862L14.9194 19.8281L14.498 18.4967L14.1262 18.6144H14.1266Z" fill="#38276B"/>
</g>
<path d="M13.8499 21.202L13.4972 21.3136C13.0906 21.4424 12.6549 21.216 12.526 20.809L11.9859 19.1022C11.8571 18.6956 12.0835 18.2599 12.4902 18.131L12.8429 18.0194C13.2456 17.892 13.6762 18.112 13.8101 18.5104L14.4396 18.3112C14.5422 18.2789 14.6517 18.3356 14.6843 18.4382L15.1056 19.7697C15.1383 19.8723 15.0812 19.9818 14.9786 20.0144L14.3495 20.2136L14.3549 20.2305C14.4837 20.6374 14.2573 21.0735 13.8503 21.2023L13.8499 21.202ZM12.6079 18.5028C12.4062 18.5667 12.2938 18.7828 12.3577 18.9845L12.8978 20.6913C12.9617 20.8933 13.1778 21.0057 13.3798 20.9418L13.7326 20.8302C13.9346 20.7663 14.047 20.5499 13.9831 20.3478L13.9188 20.1451C13.8862 20.0424 13.9432 19.933 14.0459 19.9003L14.675 19.7011L14.3714 18.7415L13.7423 18.9407C13.6396 18.973 13.5302 18.9163 13.4975 18.8136L13.443 18.641C13.3791 18.4393 13.1627 18.327 12.961 18.3912L12.6082 18.5028H12.6079Z" fill="#38276B"/>
<path d="M22.4017 24.2133C21.6875 24.5732 21.2684 25.2185 21.375 25.7374C21.3305 25.6879 21.2924 25.6334 21.2619 25.5731C20.9895 25.0322 21.4202 24.2653 22.2241 23.8601C23.0279 23.455 23.9004 23.5651 24.1731 24.1063C24.2036 24.1666 24.2248 24.2298 24.2381 24.2947C23.8846 23.9003 23.1162 23.853 22.4021 24.2129L22.4017 24.2133Z" fill="#38276B"/>
<path d="M22.9884 25.2691C22.434 25.5486 22.1182 26.0686 22.2136 26.4968C21.8361 26.0812 22.1361 25.3211 22.8406 24.9755C23.5375 24.6148 24.327 24.8258 24.4361 25.3767C24.149 25.0451 23.5429 24.9895 22.9884 25.2691Z" fill="#38276B"/>
<path d="M23.7701 26.3614C23.3441 26.576 23.1004 26.9729 23.1722 27.2988C22.884 26.9823 23.1173 26.4041 23.6581 26.1385C24.1932 25.8622 24.7968 26.0187 24.8794 26.4386C24.6605 26.1874 24.1961 26.1468 23.7705 26.3614H23.7701Z" fill="#38276B"/>
<path d="M16.1783 17.6655L14.9922 16.1747C15.2754 15.6698 15.6526 15.1982 16.0965 14.7715L16.3542 14.6901L16.7547 14.5634L17.6863 14.2687L18.1059 14.136L18.7863 13.9206L19.4183 13.7207L20.1375 13.4932L20.6345 13.336L21.4502 13.078L21.9473 12.9208L22.6665 12.6933L23.3426 12.5817C24.219 12.797 24.7282 13.2571 25.2554 14.0114L25.1352 14.8322L23.9186 13.303L23.803 15.2535L22.604 13.7466L22.4903 15.6687L21.3795 14.2727L21.274 16.0538L20.075 14.5469L19.9613 16.469L18.7271 14.9176L18.6101 16.8964L17.6052 15.6332L17.5098 17.2445L16.2932 15.7154L16.1776 17.6659L16.1783 17.6655Z" fill="#38276B"/>
<path d="M14.9772 16.2031L14.8659 18.0808L14.4798 17.5952C14.5616 17.1111 14.7335 16.6445 14.9772 16.2031Z" fill="#38276B"/>
<path d="M27.9216 31.3369L27.5882 31.2408C26.2643 30.8589 24.9799 30.2212 23.7708 29.3445C22.8055 28.6446 21.8853 27.792 21.0366 26.8101C20.2818 25.9369 19.7242 25.1212 19.389 24.5904C19.1988 24.2893 19.0588 24.046 18.9745 23.8949C18.9127 23.784 18.8754 23.7158 18.8532 23.6721C17.4826 22.9152 16.4074 22.0912 15.6577 21.2216C14.9619 20.4149 14.5413 19.5658 14.4081 18.6984C14.2994 17.9889 14.383 17.274 14.6572 16.5735C14.9095 15.9289 15.3168 15.3106 15.8677 14.736L15.8924 14.7102L15.9265 14.6994L23.3337 12.3556L23.3754 12.3682C23.8688 12.5189 24.3081 12.7464 24.6813 13.0443C25.0779 13.3615 25.4012 13.7599 25.6417 14.2286C26.0188 14.9628 26.1961 15.8729 26.1696 16.9341C26.1409 18.0811 25.8717 19.4158 25.3704 20.9004C25.0409 22.0772 24.9874 23.2245 25.2114 24.3116C25.3908 25.1822 25.7479 26.0169 26.2726 26.7932C26.7413 27.4862 27.2595 28.0033 27.6119 28.3152C27.9948 28.654 28.2701 28.8302 28.2726 28.832L28.5841 29.0304L26.7646 29.3233L27.9213 31.3373L27.9216 31.3369ZM19.0997 23.5357C19.2067 23.7435 19.9316 25.1076 21.268 26.6489C22.1017 27.61 23.0039 28.444 23.9496 29.1277C25.0248 29.905 26.1595 30.4893 27.328 30.8679L26.3189 29.1108L27.8387 28.8664C27.7282 28.7817 27.5904 28.6705 27.4343 28.533C27.0696 28.2111 26.5328 27.6771 26.0465 26.9604C25.4992 26.1533 25.126 25.2834 24.9379 24.3758C24.7028 23.2414 24.7578 22.046 25.1008 20.8219L25.103 20.8147C25.5961 19.3555 25.8606 18.0477 25.8889 16.9277C25.9144 15.9142 25.7472 15.0493 25.3919 14.3574C25.1694 13.9242 24.8712 13.5564 24.5058 13.2643C24.171 12.9965 23.7773 12.7902 23.3348 12.6502L16.0457 14.9567C15.5328 15.4972 15.1539 16.0757 14.9188 16.6765C14.6629 17.3303 14.5843 17.9964 14.6855 18.6564C14.8104 19.4707 15.2091 20.2724 15.8702 21.0386C16.6052 21.8906 17.6674 22.7013 19.0272 23.4478L19.0986 23.4869L19.0993 23.536L19.0997 23.5357Z" fill="#38276B"/>
<path d="M21.3335 18.9499C21.6683 19.6357 22.4636 19.9913 23.2133 19.7541C23.963 19.5169 24.4087 18.7687 24.2881 18.015L21.3335 18.9499Z" fill="white"/>
<path d="M23.2643 19.9158C22.8652 20.0421 22.4342 20.0198 22.0505 19.8537C21.6709 19.6889 21.3622 19.3943 21.1813 19.0243L21.0952 18.8477L24.4245 17.7944L24.4554 17.9886C24.5203 18.3952 24.4374 18.8136 24.2214 19.1668C24.0032 19.5235 23.6633 19.7894 23.2643 19.9158ZM21.5858 19.048C21.7337 19.2648 21.9411 19.437 22.1855 19.5429C22.4941 19.6767 22.8412 19.6943 23.1623 19.5928C23.4835 19.4912 23.757 19.277 23.9325 18.9899C24.0714 18.7627 24.1421 18.5025 24.1381 18.2402L21.5858 19.0476V19.048Z" fill="#38276B"/>
<path d="M22.8935 19.1885C23.1048 19.1885 23.2761 19.0172 23.2761 18.8059C23.2761 18.5946 23.1048 18.4233 22.8935 18.4233C22.6823 18.4233 22.511 18.5946 22.511 18.8059C22.511 19.0172 22.6823 19.1885 22.8935 19.1885Z" fill="#38276B"/>
<path d="M17.6652 20.153C18.0001 20.8388 18.7953 21.1945 19.545 20.9573C20.2947 20.72 20.7404 19.9718 20.6199 19.2181L17.6652 20.153Z" fill="white"/>
<path d="M19.596 21.1189C19.1969 21.2452 18.7659 21.223 18.3822 21.0568C18.0025 20.8921 17.6939 20.5974 17.513 20.2274L17.4269 20.0509L20.7562 18.9976L20.7871 19.1917C20.852 19.5983 20.7691 20.0168 20.5531 20.3699C20.3349 20.7266 19.995 20.9926 19.596 21.1189ZM17.9175 20.2511C18.0654 20.4679 18.2728 20.6401 18.5172 20.746C18.8258 20.8799 19.1728 20.8975 19.494 20.7959C19.8152 20.6943 20.0887 20.4801 20.2642 20.193C20.4031 19.9658 20.4738 19.7056 20.4698 19.4433L17.9175 20.2508V20.2511Z" fill="#38276B"/>
<path d="M19.2253 20.3918C19.4366 20.3918 19.6079 20.2206 19.6079 20.0093C19.6079 19.798 19.4366 19.6267 19.2253 19.6267C19.0141 19.6267 18.8428 19.798 18.8428 20.0093C18.8428 20.2206 19.0141 20.3918 19.2253 20.3918Z" fill="#38276B"/>
<path d="M16.8045 19.9244C19.8238 19.0308 22.8419 18.1354 25.8601 17.2386C25.9254 17.2192 25.9419 17.2371 25.958 17.296C26.0226 17.5246 26.0887 17.7525 26.1604 17.9782C26.1813 18.0439 26.1662 18.064 26.1027 18.0823C25.7348 18.1882 25.3684 18.2998 25.0006 18.406C24.9435 18.4229 24.9288 18.4437 24.9492 18.5007C24.9808 18.5897 24.9991 18.6834 25.0321 18.771C25.0576 18.8388 25.0346 18.86 24.9722 18.8754C24.8778 18.898 24.7867 18.9317 24.6923 18.9561C24.6453 18.968 24.6338 18.9867 24.6492 19.0333C24.6815 19.1313 24.7056 19.2314 24.7389 19.3287C24.7572 19.3807 24.7425 19.3983 24.6923 19.4108C24.6008 19.4338 24.5125 19.4668 24.421 19.4887C24.3589 19.5038 24.3363 19.525 24.3614 19.5924C24.3958 19.6829 24.4156 19.7791 24.4468 19.8709C24.464 19.9201 24.4536 19.9391 24.4023 19.9542C23.8841 20.106 23.3666 20.2596 22.8491 20.4146C22.8028 20.4286 22.7838 20.4222 22.7712 20.3737C22.745 20.2714 22.7102 20.1713 22.6833 20.069C22.6707 20.0209 22.6506 20.0123 22.6051 20.0278C22.5103 20.0593 22.4127 20.0823 22.3183 20.1153C22.2638 20.134 22.2379 20.1264 22.2221 20.0662C22.1913 19.9502 22.1521 19.8368 22.1163 19.7227C21.996 19.7582 21.8751 19.7923 21.7559 19.8307C21.7172 19.8433 21.7 19.8372 21.6888 19.7966C21.6558 19.6753 21.6196 19.5551 21.5848 19.4345C21.5848 19.4345 21.5851 19.4349 21.5855 19.4352C21.5855 19.4352 21.5855 19.4349 21.5851 19.4345C21.5801 19.4324 21.5736 19.427 21.5701 19.4284C21.3074 19.5045 21.0457 19.5827 20.783 19.6585C20.7324 19.6732 20.7576 19.7055 20.7593 19.7331C20.7934 19.8483 20.8275 19.9632 20.8613 20.0784C20.8602 20.1128 20.8293 20.1046 20.8114 20.1099C20.6937 20.1469 20.5756 20.1814 20.4575 20.2165C20.4575 20.2165 20.4575 20.2165 20.4572 20.2165C20.4898 20.3321 20.52 20.448 20.5559 20.5621C20.572 20.6127 20.5681 20.6382 20.5092 20.6518C20.4094 20.6759 20.3122 20.7114 20.2128 20.7373C20.1643 20.7495 20.1564 20.7706 20.1715 20.8162C20.2034 20.9138 20.2282 21.0139 20.2609 21.1116C20.2774 21.1597 20.2709 21.1805 20.2182 21.1959C19.6999 21.3477 19.1821 21.5009 18.6653 21.6567C18.61 21.6732 18.596 21.6542 18.5838 21.6072C18.5576 21.5078 18.5235 21.4101 18.4981 21.3107C18.4859 21.2626 18.4651 21.2544 18.4202 21.2691C18.3305 21.2985 18.2382 21.3194 18.1496 21.352C18.085 21.3753 18.0538 21.3678 18.038 21.2946C18.0172 21.1998 17.9824 21.1083 17.9576 21.0143C17.9465 20.9709 17.9292 20.9601 17.8862 20.9745C17.7882 21.0064 17.6877 21.0297 17.5908 21.0642C17.5309 21.0854 17.5112 21.0667 17.4968 21.0107C17.4724 20.9138 17.439 20.8191 17.4135 20.7225C17.4013 20.6762 17.3834 20.6633 17.336 20.6791C17.2384 20.7118 17.1379 20.7358 17.0407 20.7696C16.989 20.7871 16.9728 20.7731 16.9585 20.7233C16.8921 20.4896 16.8239 20.2564 16.7514 20.0245C16.732 19.9639 16.7428 19.9427 16.8049 19.9244H16.8045Z" fill="#38276B"/>
<path d="M19.0071 20.718C18.9651 20.5737 18.9231 20.4294 18.8811 20.2852L18.884 20.287C18.7404 20.3304 18.5969 20.3734 18.4533 20.4169L18.4547 20.414C18.5053 20.5285 18.5308 20.6512 18.566 20.7707C18.5804 20.8192 18.5972 20.8342 18.6489 20.8174C18.7677 20.7793 18.8883 20.7485 19.0085 20.7147L19.0067 20.718H19.0071Z" fill="#FEFFFD"/>
<path d="M22.8198 19.0097C22.8334 19.0349 22.8499 19.0438 22.8808 19.0338C23.0042 18.9936 23.1288 18.9566 23.2529 18.9186C23.2181 18.8009 23.1815 18.6835 23.1492 18.5651C23.1377 18.5227 23.1216 18.5098 23.0778 18.5242C22.9748 18.5576 22.8707 18.5888 22.7659 18.6168C22.7218 18.6286 22.7143 18.6473 22.7275 18.6893C22.7606 18.7955 22.7893 18.9032 22.8198 19.0101" fill="#FEFFFF"/>
<path d="M22.0062 19.2925C22.1232 19.2577 22.2399 19.2207 22.3576 19.1891C22.4053 19.1762 22.4139 19.1572 22.3989 19.1112C22.3612 18.995 22.3278 18.8772 22.293 18.7603C22.1724 18.7951 22.0518 18.8299 21.9312 18.8647C21.9043 18.8726 21.872 18.8755 21.8867 18.9189C21.9287 19.0427 21.951 19.1726 22.0059 19.2925" fill="#FEFFFF"/>
<path d="M23.3814 19.3514C23.2562 19.3866 23.1316 19.4243 23.0053 19.4555C22.9558 19.4677 22.9759 19.5004 22.973 19.5276C22.9863 19.5581 22.9996 19.5887 22.9985 19.6231C22.9928 19.6726 22.9956 19.7193 23.0387 19.7537C23.09 19.8836 23.0907 19.8858 23.2296 19.8413C23.3179 19.8129 23.4489 19.8194 23.4826 19.7473C23.5117 19.6845 23.4467 19.5775 23.4227 19.4903C23.4098 19.4437 23.3951 19.3974 23.3814 19.3511" fill="#FBFBFB"/>
<path d="M18.8807 20.2852C19.0038 20.2501 19.1273 20.2145 19.2508 20.1801C19.283 20.1711 19.2992 20.1604 19.2866 20.1216C19.2518 20.0129 19.2192 19.9038 19.1894 19.7936C19.1786 19.7541 19.1603 19.7541 19.128 19.7642C19.0218 19.7972 18.9156 19.8295 18.8083 19.8585C18.7663 19.87 18.763 19.8901 18.7745 19.9267C18.8122 20.0462 18.8474 20.1668 18.8836 20.287L18.8807 20.2852Z" fill="white"/>
<path d="M18.4533 20.4166C18.4368 20.2856 18.3826 20.165 18.3511 20.0379C18.3424 20.0035 18.3234 20.0021 18.2944 20.011C18.1878 20.0437 18.0812 20.0763 17.9739 20.1058C17.9348 20.1165 17.9236 20.1323 17.9366 20.1722C17.9696 20.2755 18.0012 20.3796 18.0288 20.4844C18.041 20.5307 18.0629 20.5332 18.1027 20.5206C18.2197 20.4833 18.3374 20.4492 18.4551 20.4137L18.4537 20.4166" fill="#FEFFFF"/>
<path d="M19.0089 20.7147C19.0437 20.8321 19.0803 20.9487 19.1123 21.0668C19.1248 21.1127 19.1424 21.1257 19.1894 21.1099C19.2892 21.0765 19.3904 21.0478 19.492 21.0198C19.5311 21.009 19.5487 20.9968 19.5332 20.9505C19.4981 20.8457 19.469 20.7388 19.4378 20.6329C19.4306 20.6078 19.427 20.5827 19.3886 20.596C19.2626 20.6394 19.1302 20.6624 19.0078 20.7176L19.0096 20.7144" fill="#FEFFFF"/>
<path d="M16.0015 25.5463C16.3467 24.498 17.9757 23.3654 18.9529 21.6959C19.367 20.9885 19.0595 19.8369 18.1293 19.6725C16.1142 19.3169 14.6618 21.0187 14.6618 21.0187C14.6618 21.0187 13.3174 22.2909 13.7341 24.1244C13.7341 24.1244 14.0187 25.2233 15.0601 25.9374L15.9085 25.9665L16.0018 25.5463H16.0015Z" fill="#B3CD38"/>
<g opacity="0.4">
<path d="M19.1323 21.0474C19.02 20.5755 18.6884 20.1624 18.1555 20.0684C16.1099 19.7077 14.6349 21.4353 14.6349 21.4353C14.6349 21.4353 13.8493 22.1789 13.6548 23.3507C13.6849 21.9428 14.6614 21.0187 14.6614 21.0187C14.6614 21.0187 16.1138 19.3169 18.1293 19.6725C18.8065 19.792 19.1531 20.4341 19.1323 21.0474Z" fill="white"/>
</g>
<path d="M15.9193 25.5193C15.9678 25.2724 16.0798 25.0456 16.2082 24.8392C16.3378 24.6325 16.4857 24.4416 16.6407 24.2607C16.9526 23.9001 17.277 23.5598 17.586 23.2103C17.8957 22.8611 18.1925 22.5044 18.4566 22.1272C18.49 22.0802 18.5226 22.0328 18.5542 21.9847C18.5862 21.937 18.6181 21.8893 18.6482 21.8405C18.6791 21.792 18.71 21.7436 18.7387 21.6944L18.7828 21.6208L18.7939 21.6025L18.8029 21.586L18.8205 21.553C18.9113 21.3747 18.9515 21.1665 18.9458 20.9598C18.9397 20.7531 18.8855 20.5471 18.7886 20.3694C18.692 20.1911 18.5481 20.0457 18.3755 19.956C18.289 19.9108 18.1957 19.8799 18.0977 19.8627L17.9337 19.839C17.8788 19.8326 17.8235 19.8293 17.7686 19.8243C17.5483 19.811 17.3265 19.8214 17.1076 19.8548C16.6694 19.9208 16.2459 20.0856 15.8558 20.3088C15.6617 20.4222 15.474 20.5492 15.2974 20.6903C15.2091 20.7606 15.123 20.8338 15.0405 20.9103C14.9992 20.9487 14.9583 20.9874 14.9192 21.0269C14.8804 21.0657 14.8395 21.1087 14.8083 21.1443L14.8007 21.1525L14.7939 21.159C14.7796 21.1726 14.7584 21.1949 14.7408 21.2139L14.6855 21.2749C14.6493 21.3169 14.6134 21.3596 14.5793 21.4034C14.51 21.4913 14.4451 21.5828 14.3844 21.6772C14.2624 21.8656 14.1587 22.0651 14.0747 22.2718C13.9918 22.4789 13.9279 22.6935 13.8888 22.9117C13.8504 23.1303 13.8357 23.3528 13.8465 23.5742C13.8476 23.6298 13.8551 23.6847 13.859 23.7404C13.8641 23.7956 13.8741 23.8505 13.8809 23.9054C13.8899 23.96 13.9014 24.0131 13.9114 24.0669C13.9129 24.0734 13.9143 24.0817 13.915 24.0835L13.92 24.1C13.9236 24.1122 13.9276 24.1247 13.9319 24.138C13.9398 24.1635 13.9491 24.1897 13.9584 24.2155C14.0345 24.4233 14.1329 24.6275 14.2502 24.8184C14.3676 25.0097 14.5021 25.1902 14.6547 25.3539C14.8072 25.5175 14.9149 25.6582 15.0964 25.7881C15.0964 25.7881 15.0362 26.1075 14.9586 26.054C14.5488 25.772 14.1996 25.4325 13.9401 25.0097C13.8088 24.7994 13.699 24.5769 13.6107 24.3422C13.5999 24.3128 13.5892 24.283 13.5791 24.2525C13.5741 24.2374 13.5691 24.222 13.5644 24.2058L13.5569 24.18C13.5533 24.1674 13.5522 24.161 13.5508 24.1531C13.5382 24.091 13.5242 24.0289 13.5138 23.9672C13.5052 23.9054 13.4941 23.8437 13.4876 23.7816C13.4826 23.7192 13.4736 23.6575 13.4718 23.5947C13.4578 23.3449 13.4718 23.0933 13.5134 22.8464C13.5554 22.5999 13.625 22.3587 13.718 22.1276C13.8113 21.8968 13.9265 21.6757 14.0607 21.4676C14.1278 21.3632 14.1996 21.2623 14.2764 21.1643C14.3144 21.1152 14.3546 21.0675 14.3956 21.0201C14.4164 20.9964 14.4372 20.9731 14.4591 20.9497C14.4817 20.9257 14.5011 20.9049 14.5294 20.8776L14.5151 20.8927C14.5614 20.8399 14.6016 20.7983 14.6461 20.7534C14.6895 20.7097 14.734 20.6673 14.7788 20.6253C14.8689 20.5421 14.9619 20.4627 15.0573 20.3863C15.2479 20.2334 15.451 20.0956 15.6627 19.9718C16.0877 19.7278 16.556 19.544 17.0491 19.469C17.2953 19.4306 17.5461 19.4195 17.7948 19.4371C17.8569 19.4432 17.9194 19.4475 17.9811 19.455L18.1663 19.483C18.3001 19.5071 18.4318 19.5516 18.5539 19.6162C18.7986 19.7446 18.996 19.9521 19.1216 20.1878C19.2483 20.424 19.3136 20.6863 19.3201 20.9494C19.3254 21.2121 19.2738 21.4802 19.1496 21.721L19.1252 21.7655L19.113 21.7877L19.1011 21.8071L19.0541 21.8846C19.0233 21.9367 18.9906 21.9873 18.958 22.0379C18.9257 22.0888 18.8923 22.1387 18.8582 22.1886C18.8248 22.2388 18.7904 22.288 18.7552 22.3368C18.4771 22.7287 18.1684 23.094 17.8519 23.4464C17.5354 23.7992 17.2088 24.1387 16.9023 24.4872C16.5965 24.8357 16.2904 25.1755 16.0844 25.5731L16.083 25.576C16.0607 25.6187 16.008 25.6356 15.9653 25.6133C15.9301 25.595 15.9125 25.5563 15.9197 25.519" fill="#38276B"/>
<g opacity="0.5">
<path d="M17.606 22.5263C17.2963 22.8357 16.8459 22.887 16.5997 22.6408C16.3535 22.3946 16.4048 21.9442 16.7146 21.6349C17.0239 21.3255 17.4747 21.2742 17.7205 21.52C17.9667 21.7662 17.9154 22.2166 17.6056 22.5263" fill="white"/>
</g>
<g opacity="0.5">
<path d="M17.6934 21.0931C17.5621 21.2245 17.3705 21.2464 17.266 21.142C17.1616 21.0375 17.1831 20.8459 17.3148 20.7145C17.4462 20.5832 17.6378 20.5613 17.7423 20.6657C17.8467 20.7702 17.8252 20.9618 17.6934 21.0931Z" fill="white"/>
</g>
<g opacity="0.5">
<path d="M18.2749 21.3378C18.1407 21.4724 17.9451 21.4946 17.8382 21.3877C17.7312 21.2807 17.7535 21.0851 17.888 20.9509C18.0223 20.8167 18.2178 20.7941 18.3248 20.901C18.4317 21.008 18.4095 21.2036 18.2749 21.3378Z" fill="white"/>
</g>
<g opacity="0.5">
<path d="M18.4152 21.8139C18.3065 21.9226 18.1478 21.9409 18.0614 21.8541C17.9749 21.7676 17.9928 21.609 18.1015 21.5002C18.2103 21.3915 18.3689 21.3732 18.4554 21.46C18.5419 21.5465 18.5239 21.7051 18.4152 21.8139Z" fill="white"/>
</g>
<path d="M18.3317 27.3389C17.952 27.3371 17.2665 27.1193 16.2947 26.6908C15.5805 26.376 14.9643 26.0574 14.9582 26.0541L15.096 25.7882C15.1021 25.7914 15.7111 26.1062 16.4167 26.4173C17.5791 26.9294 17.9319 26.9912 18.1644 26.9919L18.3313 27.3386L18.3317 27.3389Z" fill="#38276B"/>
</svg>
