<svg width="45" height="45" viewBox="0 0 45 45" fill="none" xmlns="http://www.w3.org/2000/svg">
<rect x="0.333344" y="0.410767" width="44" height="44" rx="5" fill="#0891B2" fill-opacity="0.5"/>
<path d="M18.3333 13.4108H18.1333C16.4532 13.4108 15.6131 13.4108 14.9714 13.7377C14.4069 14.0254 13.9479 14.4843 13.6603 15.0488C13.3333 15.6905 13.3333 16.5306 13.3333 18.2108V18.4108M18.3333 31.4108H18.1333C16.4532 31.4108 15.6131 31.4108 14.9714 31.0838C14.4069 30.7962 13.9479 30.3372 13.6603 29.7727C13.3333 29.131 13.3333 28.2909 13.3333 26.6108V26.4108M31.3333 18.4108V18.2108C31.3333 16.5306 31.3333 15.6905 31.0064 15.0488C30.7187 14.4843 30.2598 14.0254 29.6953 13.7377C29.0536 13.4108 28.2135 13.4108 26.5333 13.4108H26.3333M31.3333 26.4108V26.6108C31.3333 28.2909 31.3333 29.131 31.0064 29.7727C30.7187 30.3372 30.2598 30.7962 29.6953 31.0838C29.0536 31.4108 28.2135 31.4108 26.5333 31.4108H26.3333M13.3333 22.4108H13.3433M17.8333 22.4108H17.8433M26.8333 22.4108H26.8433M22.3333 22.4108H22.3433M31.3333 22.4108H31.3433" stroke="#06AED4" stroke-width="2" stroke-linecap="round" stroke-linejoin="round"/>
</svg>
