<svg width="44" height="45" viewBox="0 0 44 45" fill="none" xmlns="http://www.w3.org/2000/svg">
<rect y="0.410767" width="44" height="44" rx="5" fill="#0D9488" fill-opacity="0.5"/>
<path d="M14.5 32.4108V27.4108M14.5 17.4108V12.4108M12 14.9108H17M12 29.9108H17M23 13.4108L21.2658 17.9196C20.9838 18.6529 20.8428 19.0195 20.6235 19.3279C20.4292 19.6012 20.1904 19.84 19.9171 20.0343C19.6087 20.2536 19.2421 20.3946 18.5089 20.6766L14 22.4108L18.5089 24.1449C19.2421 24.427 19.6087 24.568 19.9171 24.7872C20.1904 24.9816 20.4292 25.2204 20.6235 25.4937C20.8428 25.8021 20.9838 26.1687 21.2658 26.9019L23 31.4108L24.7342 26.9019C25.0162 26.1687 25.1572 25.8021 25.3765 25.4937C25.5708 25.2204 25.8096 24.9816 26.0829 24.7872C26.3913 24.568 26.7579 24.427 27.4911 24.1449L32 22.4108L27.4911 20.6766C26.7579 20.3946 26.3913 20.2536 26.0829 20.0343C25.8096 19.84 25.5708 19.6012 25.3765 19.3279C25.1572 19.0195 25.0162 18.6529 24.7342 17.9196L23 13.4108Z" stroke="#14B8A6" stroke-width="2" stroke-linecap="round" stroke-linejoin="round"/>
</svg>
