<svg width="44" height="45" viewBox="0 0 44 45" fill="none" xmlns="http://www.w3.org/2000/svg">
<rect y="0.410767" width="44" height="44" rx="5" fill="#059669" fill-opacity="0.5"/>
<path d="M11.7638 28.4111C11.8723 28.6 12.0296 28.7561 12.2193 28.8631L21.5369 34.2427L21.5372 34.2424C21.7249 34.3526 21.9387 34.4108 22.1564 34.4108C22.3741 34.4108 22.5879 34.3526 22.7756 34.2424L32.0936 28.8628C32.2829 28.7554 32.44 28.5994 32.5489 28.411C32.6577 28.2225 32.7142 28.0084 32.7125 27.7907V17.0317L32.7122 17.0314C32.7139 16.8137 32.6573 16.5995 32.5485 16.411C32.4396 16.2224 32.2824 16.0664 32.093 15.959L22.7751 10.5795C22.5875 10.4692 22.3739 10.4108 22.1563 10.4108C21.9387 10.4108 21.7251 10.4689 21.5375 10.5792L12.2199 15.959C12.0304 16.0663 11.8731 16.2223 11.7642 16.4109C11.6552 16.5994 11.5987 16.8136 11.6004 17.0314L11.6001 17.0317V27.7907C11.598 28.0085 11.6547 28.2227 11.7638 28.4111Z" fill="#009639"/>
<path d="M19.173 26.5068C19.173 26.8246 19.0468 27.1294 18.8221 27.3541C18.5973 27.5789 18.2925 27.7051 17.9747 27.7051C17.6569 27.7051 17.3521 27.5789 17.1274 27.3541C16.9027 27.1294 16.7764 26.8246 16.7764 26.5068L16.7767 26.5071L16.7779 18.2813C16.7885 18.1147 16.8325 17.9519 16.9071 17.8026C16.9817 17.6533 17.0855 17.5204 17.2124 17.4119C17.3392 17.3034 17.4865 17.2213 17.6456 17.1707C17.8046 17.1201 17.9722 17.1018 18.1385 17.117C18.4474 17.1131 18.7535 17.1763 19.0355 17.3024C19.3176 17.4285 19.5688 17.6145 19.7719 17.8473L20.134 18.2807L25.1401 24.2716V18.3147H25.1395C25.1395 18.1574 25.1705 18.0016 25.2307 17.8562C25.2909 17.7108 25.3792 17.5787 25.4905 17.4674C25.6018 17.3562 25.7338 17.2679 25.8792 17.2077C26.0246 17.1474 26.1804 17.1164 26.3378 17.1164C26.4952 17.1164 26.651 17.1474 26.7964 17.2077C26.9418 17.2679 27.0739 17.3562 27.1851 17.4674C27.2964 17.5787 27.3847 17.7108 27.4449 17.8562C27.5051 18.0016 27.5361 18.1574 27.5361 18.3147L27.5346 26.5399C27.524 26.7065 27.48 26.8693 27.4054 27.0186C27.3307 27.1679 27.2269 27.3008 27.1001 27.4093C26.9733 27.5178 26.826 27.5998 26.6669 27.6505C26.5079 27.7011 26.3403 27.7194 26.1741 27.7042C25.8651 27.7083 25.559 27.645 25.2769 27.5189C24.9949 27.3928 24.7436 27.2068 24.5406 26.9739L19.1724 20.5496V26.5071L19.173 26.5068Z" fill="white"/>
</svg>
