<svg width="53" height="53" viewBox="0 0 53 53" fill="none" xmlns="http://www.w3.org/2000/svg">
<rect x="0.666687" y="0.410767" width="52" height="52" rx="5" fill="#C026D3" fill-opacity="0.5"/>
<circle cx="26.6667" cy="26.4108" r="14" fill="#8892BF" fill-opacity="0.8"/>
<path d="M25.1059 20.4108H26.7859L26.3111 22.935H27.8207C28.6486 22.9527 29.2653 23.1377 29.6712 23.49C30.0851 23.8424 30.2069 24.5122 30.0364 25.4989L29.2208 29.8997H27.5164L28.2955 25.6971C28.3766 25.2565 28.3523 24.9438 28.2225 24.7588C28.0927 24.5737 27.8127 24.4812 27.3825 24.4812L26.0311 24.468L25.0328 29.8997H23.3528L25.1059 20.4108Z" fill="white"/>
<path fill-rule="evenodd" clip-rule="evenodd" d="M17.4076 22.935H20.6703C21.6279 22.9438 22.3219 23.2435 22.7521 23.8337C23.1823 24.4239 23.3243 25.2301 23.1782 26.2522C23.1215 26.7192 22.9956 27.1773 22.8008 27.6266C22.6141 28.076 22.3545 28.4812 22.0216 28.8425C21.6158 29.3006 21.1816 29.5913 20.719 29.7147C20.2564 29.8382 19.7774 29.8998 19.2824 29.8998H17.8215L17.3589 32.4108H15.6667L17.4076 22.935ZM18.1015 28.4064L18.8296 24.4549H19.0755C19.1648 24.4549 19.2581 24.4504 19.3555 24.4416C20.0049 24.4329 20.5444 24.499 20.9747 24.6399C21.4129 24.7808 21.559 25.3139 21.4129 26.239C21.2345 27.3404 20.8853 27.9835 20.3659 28.1685C19.8466 28.3448 19.1972 28.4283 18.4181 28.4196H18.2476C18.1989 28.4196 18.1502 28.4151 18.1015 28.4064Z" fill="white"/>
<path fill-rule="evenodd" clip-rule="evenodd" d="M35.1032 22.935H31.8405L30.0996 32.4108H31.7918L32.2545 29.8998H33.7154C34.2104 29.8998 34.6893 29.8382 35.1519 29.7147C35.6145 29.5913 36.0487 29.3006 36.4546 28.8425C36.7874 28.4812 37.047 28.076 37.2337 27.6266C37.4285 27.1773 37.5544 26.7192 37.6111 26.2522C37.7572 25.2301 37.6153 24.4239 37.185 23.8337C36.7548 23.2435 36.0609 22.9438 35.1032 22.935ZM33.2625 24.4549L32.5345 28.4064C32.5832 28.4151 32.6319 28.4196 32.6806 28.4196H32.851C33.6301 28.4283 34.2795 28.3448 34.7989 28.1685C35.3182 27.9835 35.6674 27.3404 35.8459 26.239C35.9919 25.3139 35.8459 24.7808 35.4076 24.6399C34.9773 24.499 34.4378 24.4329 33.7884 24.4416C33.691 24.4504 33.5978 24.4549 33.5084 24.4549H33.2625Z" fill="white"/>
</svg>
