<svg width="44" height="45" viewBox="0 0 44 45" fill="none" xmlns="http://www.w3.org/2000/svg">
<rect y="0.410767" width="44" height="44" rx="5" fill="#2563EB" fill-opacity="0.5"/>
<path d="M22 25.4108L19 22.4108M22 25.4108C23.3968 24.8795 24.7369 24.2095 26 23.4108M22 25.4108V30.4108C22 30.4108 25.03 29.8608 26 28.4108C27.08 26.7908 26 23.4108 26 23.4108M19 22.4108C19.5321 21.0302 20.2022 19.7068 21 18.4608C22.1652 16.5978 23.7876 15.0638 25.713 14.0049C27.6384 12.9459 29.8027 12.3971 32 12.4108C32 15.1308 31.22 19.9108 26 23.4108M19 22.4108H14C14 22.4108 14.55 19.3808 16 18.4108C17.62 17.3308 21 18.4108 21 18.4108M14.5 26.9108C13 28.1708 12.5 31.9108 12.5 31.9108C12.5 31.9108 16.24 31.4108 17.5 29.9108C18.21 29.0708 18.2 27.7808 17.41 27.0008C17.0213 26.6298 16.5093 26.4154 15.9722 26.3988C15.4352 26.3822 14.9109 26.5645 14.5 26.9108Z" stroke="#3B82F6" stroke-width="2" stroke-linecap="round" stroke-linejoin="round"/>
</svg>
