<svg width="45" height="45" viewBox="0 0 45 45" fill="none" xmlns="http://www.w3.org/2000/svg">
<rect x="0.666687" y="0.410767" width="44" height="44" rx="5" fill="#C026D3" fill-opacity="0.5"/>
<path d="M21.9687 32.0256C22.1901 32.1548 22.3008 32.2194 22.457 32.2529C22.5782 32.2789 22.7551 32.2789 22.8764 32.2529C23.0326 32.2194 23.1433 32.1548 23.3647 32.0256C25.3127 30.8892 30.6667 27.3192 30.6667 22.4108V17.6284C30.6667 16.8288 30.6667 16.4291 30.5359 16.0855C30.4204 15.7819 30.2327 15.511 29.989 15.2963C29.7132 15.0532 29.3389 14.9128 28.5903 14.6321L23.2285 12.6214C23.0206 12.5435 22.9166 12.5045 22.8097 12.489C22.7149 12.4753 22.6185 12.4753 22.5237 12.489C22.4167 12.5045 22.3128 12.5435 22.1049 12.6214L16.7431 14.6321C15.9945 14.9128 15.6202 15.0532 15.3443 15.2963C15.1007 15.511 14.913 15.7819 14.7974 16.0855C14.6667 16.4291 14.6667 16.8288 14.6667 17.6284V22.4108C14.6667 27.3192 20.0206 30.8892 21.9687 32.0256Z" stroke="#D444F1" stroke-width="2" stroke-linecap="round" stroke-linejoin="round"/>
</svg>
