<svg width="45" height="45" viewBox="0 0 45 45" fill="none" xmlns="http://www.w3.org/2000/svg">
<rect x="0.333344" y="0.410767" width="44" height="44" rx="5" fill="#FF4405" fill-opacity="0.5"/>
<path d="M32.8333 22.4108C32.8333 28.2068 28.1346 32.9108 22.3333 32.9108C16.5321 32.9108 11.8333 28.2068 11.8333 22.4108C11.8333 16.6095 16.5321 11.9108 22.3333 11.9108C28.1346 11.9108 32.8333 16.6095 32.8333 22.4108Z" fill="#E95420"/>
<path d="M15.4495 21.028C14.6922 21.028 14.0833 21.6506 14.0833 22.4134C14.0833 23.1761 14.6973 23.7988 15.4495 23.7988C16.2017 23.7988 16.8157 23.1761 16.8157 22.4134C16.8157 21.6454 16.2017 21.028 15.4495 21.028ZM25.207 27.3219C24.5521 27.7059 24.3321 28.5517 24.7056 29.2158C25.0842 29.88 25.9183 30.1083 26.5732 29.7243C27.2281 29.3404 27.4482 28.4946 27.0746 27.8304C26.6909 27.1715 25.8569 26.9432 25.207 27.3219ZM18.4172 22.4134C18.4172 21.0435 19.0875 19.8345 20.1159 19.1029L19.1182 17.4062C17.9209 18.2157 17.0357 19.4558 16.6622 20.9034C17.092 21.2615 17.3683 21.8063 17.3683 22.4134C17.3683 23.0204 17.092 23.5653 16.6622 23.9233C17.0306 25.371 17.9209 26.6111 19.1182 27.4205L20.1159 25.7238C19.0875 24.9922 18.4172 23.7832 18.4172 22.4134ZM22.4082 18.3661C24.4958 18.3661 26.2048 19.985 26.3839 22.0553L28.3333 22.0242C28.2361 20.4987 27.5812 19.1289 26.5681 18.1223C26.0462 18.3194 25.4475 18.2883 24.9307 17.9873C24.4088 17.6812 24.0865 17.1727 23.9944 16.6123C23.4878 16.4722 22.9557 16.3944 22.4082 16.3944C21.4616 16.3944 20.5713 16.6175 19.7782 17.017L20.7299 18.7397C21.2365 18.501 21.8096 18.3661 22.4082 18.3661V18.3661ZM22.4082 26.4606C21.8096 26.4606 21.2365 26.3257 20.7248 26.087L19.7731 27.8097C20.5662 28.2092 21.4616 28.4323 22.4031 28.4323C22.9506 28.4323 23.4827 28.3545 23.9893 28.2144C24.0763 27.6592 24.4037 27.1455 24.9256 26.8394C25.4424 26.5332 26.0462 26.5073 26.563 26.7045C27.571 25.6978 28.231 24.328 28.3282 22.8025L26.3788 22.7714C26.2048 24.8365 24.4958 26.4606 22.4082 26.4606V26.4606ZM25.2019 17.4996C25.8569 17.8836 26.6909 17.6553 27.0695 16.9911C27.4482 16.3269 27.223 15.4812 26.5681 15.0972C25.9131 14.7132 25.0791 14.9415 24.7005 15.6057C24.327 16.2699 24.5521 17.1156 25.2019 17.4996Z" fill="white"/>
</svg>
