<svg width="28" height="22" viewBox="0 0 28 22" fill="none" xmlns="http://www.w3.org/2000/svg">
<path d="M24.5321 3.43706C22.6055 1.80797 20.2936 0.993424 17.8532 0.857666L17.4679 1.26494C19.6514 1.80797 21.578 2.89403 23.3761 4.38736C21.1927 3.16554 18.7523 2.351 16.1835 2.07948C15.4128 1.94373 14.7706 1.94373 14 1.94373C13.2294 1.94373 12.5872 1.94373 11.8165 2.07948C9.24771 2.351 6.80734 3.16554 4.62385 4.38736C6.42202 2.89403 8.34862 1.80797 10.5321 1.26494L10.1468 0.857666C7.70642 0.993424 5.3945 1.80797 3.46789 3.43706C1.2844 7.7813 0.12844 12.6686 0 17.6916C1.92661 19.8637 4.62385 21.2213 7.44954 21.2213C7.44954 21.2213 8.34862 20.1352 8.99083 19.1849C7.3211 18.7777 5.77982 17.8274 4.75229 16.334C5.65138 16.8771 6.55046 17.4201 7.44954 17.8274C8.6055 18.3704 9.76147 18.6419 10.9174 18.9134C11.945 19.0492 12.9725 19.1849 14 19.1849C15.0275 19.1849 16.055 19.0492 17.0826 18.9134C18.2385 18.6419 19.3945 18.3704 20.5505 17.8274C21.4495 17.4201 22.3486 16.8771 23.2477 16.334C22.2202 17.8274 20.6789 18.7777 19.0092 19.1849C19.6514 20.1352 20.5505 21.2213 20.5505 21.2213C23.3761 21.2213 26.0734 19.8637 28 17.6916C27.8716 12.6686 26.7156 7.7813 24.5321 3.43706ZM9.76147 15.248C8.47706 15.248 7.3211 14.0262 7.3211 12.5328C7.3211 11.0395 8.47706 9.81767 9.76147 9.81767C11.0459 9.81767 12.2018 11.0395 12.2018 12.5328C12.2018 14.0262 11.0459 15.248 9.76147 15.248ZM18.2385 15.248C16.9541 15.248 15.7982 14.0262 15.7982 12.5328C15.7982 11.0395 16.9541 9.81767 18.2385 9.81767C19.5229 9.81767 20.6789 11.0395 20.6789 12.5328C20.6789 14.0262 19.5229 15.248 18.2385 15.248Z" fill="white"/>
</svg>
