<svg width="16" height="13" viewBox="0 0 16 13" fill="none" xmlns="http://www.w3.org/2000/svg">
<path d="M14.0183 2.14105C12.9174 1.21014 11.5963 0.74469 10.2018 0.667114L9.98165 0.899842C11.2294 1.21014 12.3303 1.83075 13.3578 2.68408C12.1101 1.9859 10.7156 1.52045 9.24771 1.3653C8.80734 1.28772 8.44037 1.28772 8 1.28772C7.55963 1.28772 7.19266 1.28772 6.75229 1.3653C5.2844 1.52045 3.88991 1.9859 2.6422 2.68408C3.66972 1.83075 4.77064 1.21014 6.01835 0.899842L5.79817 0.667114C4.40367 0.74469 3.08257 1.21014 1.98165 2.14105C0.733945 4.62348 0.0733945 7.4162 0 10.2865C1.10092 11.5277 2.6422 12.3035 4.25688 12.3035C4.25688 12.3035 4.77064 11.6829 5.13761 11.1398C4.18349 10.9071 3.30275 10.3641 2.7156 9.51075C3.22936 9.82105 3.74312 10.1314 4.25688 10.3641C4.91743 10.6744 5.57798 10.8295 6.23853 10.9847C6.82569 11.0623 7.41284 11.1398 8 11.1398C8.58716 11.1398 9.17431 11.0623 9.76147 10.9847C10.422 10.8295 11.0826 10.6744 11.7431 10.3641C12.2569 10.1314 12.7706 9.82105 13.2844 9.51075C12.6972 10.3641 11.8165 10.9071 10.8624 11.1398C11.2294 11.6829 11.7431 12.3035 11.7431 12.3035C13.3578 12.3035 14.8991 11.5277 16 10.2865C15.9266 7.4162 15.2661 4.62348 14.0183 2.14105ZM5.57798 8.89015C4.84404 8.89015 4.18349 8.19196 4.18349 7.33863C4.18349 6.4853 4.84404 5.78711 5.57798 5.78711C6.31193 5.78711 6.97248 6.4853 6.97248 7.33863C6.97248 8.19196 6.31193 8.89015 5.57798 8.89015ZM10.422 8.89015C9.68807 8.89015 9.02752 8.19196 9.02752 7.33863C9.02752 6.4853 9.68807 5.78711 10.422 5.78711C11.156 5.78711 11.8165 6.4853 11.8165 7.33863C11.8165 8.19196 11.156 8.89015 10.422 8.89015Z" fill="#CBD5E1"/>
</svg>
