<svg width="50" height="50" viewBox="0 0 50 50" fill="none" xmlns="http://www.w3.org/2000/svg">
<g clip-path="url(#clip0_150_617)">
<path d="M49.5073 20.674C49.3719 20.5677 48.1063 19.625 45.4365 19.625C44.7313 19.6281 44.0282 19.6875 43.3334 19.8031C42.8167 16.3094 39.9802 14.6677 39.849 14.5917L39.1323 14.1833L38.6604 14.8542C38.0698 15.7563 37.5479 16.6875 37.2948 17.7323C36.8167 19.7271 37.1073 21.6 38.1344 23.201C36.8927 23.8833 34.7771 23.9438 34.375 23.9583H1.64794C0.787528 23.9594 0.0896109 24.6458 0.0844025 25.4938C0.0458609 28.3406 0.452111 31.2781 1.44482 33.951C2.57919 36.8865 4.26774 39.049 6.46357 40.3719C8.92399 41.8583 12.9219 42.7083 17.4542 42.7083C19.5011 42.7146 21.5448 42.5323 23.5573 42.1625C26.3552 41.6552 29.0479 40.6906 31.5229 39.3083C33.5625 38.1427 35.3979 36.6604 36.9594 34.9177C39.5688 32.0031 41.1229 28.7583 42.2792 25.874C42.4344 25.874 42.5896 25.874 42.7396 25.874C45.5969 25.874 47.3532 24.7458 48.3219 23.801C48.9657 23.1979 49.4688 22.4635 49.7948 21.65L50 21.0583L49.5073 20.674Z" fill="#2395EC"/>
<path d="M8.33335 22.9167H5.20835C4.63335 22.9167 4.16669 22.45 4.16669 21.875V18.75C4.16669 18.175 4.63335 17.7083 5.20835 17.7083H8.33335C8.90835 17.7083 9.37502 18.175 9.37502 18.75V21.875C9.37502 22.45 8.90835 22.9167 8.33335 22.9167Z" fill="#2395EC"/>
<path d="M14.5834 22.9167H11.4584C10.8834 22.9167 10.4167 22.45 10.4167 21.875V18.75C10.4167 18.175 10.8834 17.7083 11.4584 17.7083H14.5834C15.1584 17.7083 15.625 18.175 15.625 18.75V21.875C15.625 22.45 15.1584 22.9167 14.5834 22.9167Z" fill="#2395EC"/>
<path d="M20.8334 22.9167H17.7084C17.1334 22.9167 16.6667 22.45 16.6667 21.875V18.75C16.6667 18.175 17.1334 17.7083 17.7084 17.7083H20.8334C21.4084 17.7083 21.875 18.175 21.875 18.75V21.875C21.875 22.45 21.4084 22.9167 20.8334 22.9167Z" fill="#2395EC"/>
<path d="M27.0834 22.9167H23.9584C23.3834 22.9167 22.9167 22.45 22.9167 21.875V18.75C22.9167 18.175 23.3834 17.7083 23.9584 17.7083H27.0834C27.6584 17.7083 28.125 18.175 28.125 18.75V21.875C28.125 22.45 27.6584 22.9167 27.0834 22.9167Z" fill="#2395EC"/>
<path d="M14.5834 16.6667H11.4584C10.8834 16.6667 10.4167 16.2 10.4167 15.625V12.5C10.4167 11.925 10.8834 11.4583 11.4584 11.4583H14.5834C15.1584 11.4583 15.625 11.925 15.625 12.5V15.625C15.625 16.2 15.1584 16.6667 14.5834 16.6667Z" fill="#2395EC"/>
<path d="M20.8334 16.6667H17.7084C17.1334 16.6667 16.6667 16.2 16.6667 15.625V12.5C16.6667 11.925 17.1334 11.4583 17.7084 11.4583H20.8334C21.4084 11.4583 21.875 11.925 21.875 12.5V15.625C21.875 16.2 21.4084 16.6667 20.8334 16.6667Z" fill="#2395EC"/>
<path d="M27.0834 16.6667H23.9584C23.3834 16.6667 22.9167 16.2 22.9167 15.625V12.5C22.9167 11.925 23.3834 11.4583 23.9584 11.4583H27.0834C27.6584 11.4583 28.125 11.925 28.125 12.5V15.625C28.125 16.2 27.6584 16.6667 27.0834 16.6667Z" fill="#2395EC"/>
<path d="M27.0834 10.4167H23.9584C23.3834 10.4167 22.9167 9.94999 22.9167 9.37499V6.24999C22.9167 5.67499 23.3834 5.20833 23.9584 5.20833H27.0834C27.6584 5.20833 28.125 5.67499 28.125 6.24999V9.37499C28.125 9.94999 27.6584 10.4167 27.0834 10.4167Z" fill="#2395EC"/>
<path d="M33.3334 22.9167H30.2084C29.6334 22.9167 29.1667 22.45 29.1667 21.875V18.75C29.1667 18.175 29.6334 17.7083 30.2084 17.7083H33.3334C33.9084 17.7083 34.375 18.175 34.375 18.75V21.875C34.375 22.45 33.9084 22.9167 33.3334 22.9167Z" fill="#2395EC"/>
</g>
<defs>
<clipPath id="clip0_150_617">
<rect width="50" height="50" fill="white"/>
</clipPath>
</defs>
</svg>
