<svg width="50" height="50" viewBox="0 0 50 50" fill="none" xmlns="http://www.w3.org/2000/svg">
<g clip-path="url(#clip0_150_639)">
<path d="M25.2182 0.699747C24.7762 0.722041 24.3431 0.831772 23.9444 1.0225L6.56191 9.33843C6.11202 9.55355 5.71671 9.86657 5.40535 10.2542C5.09399 10.6419 4.87458 11.0942 4.76342 11.5777L0.475052 30.2573C0.376027 30.6877 0.364944 31.1335 0.442461 31.5682C0.519977 32.0029 0.684516 32.4177 0.926342 32.7882C0.984979 32.8787 1.04804 32.9664 1.11531 33.0508L13.1468 48.0289C13.4582 48.4164 13.8535 48.7293 14.3034 48.9444C14.7533 49.1594 15.2463 49.271 15.7456 49.2709L35.0399 49.2664C35.539 49.2668 36.0318 49.1555 36.4817 48.9409C36.9316 48.7263 37.3271 48.4138 37.6387 48.0266L49.6657 33.0464C49.9773 32.6586 50.1969 32.2061 50.3081 31.7225C50.4193 31.2388 50.4194 30.7365 50.3082 30.2529L46.0131 11.5732C45.902 11.0898 45.6826 10.6374 45.3712 10.2498C45.0599 9.86212 44.6645 9.5491 44.2146 9.33398L26.83 1.0225C26.3284 0.782579 25.7742 0.671599 25.2182 0.699747Z" fill="#326CE5"/>
<path d="M25.3905 7.05669C24.8159 7.05674 24.35 7.57494 24.3501 8.21415C24.3501 8.22396 24.3521 8.23333 24.3523 8.24309C24.3514 8.32994 24.3472 8.43457 24.3501 8.51019C24.3638 8.87887 24.444 9.16104 24.4923 9.50071C24.5799 10.2277 24.6532 10.8304 24.6079 11.3905C24.5639 11.6017 24.4085 11.7949 24.27 11.9292L24.2456 12.3699C23.6212 12.4217 22.9926 12.5165 22.3648 12.6593C19.6633 13.2734 17.3374 14.6667 15.5666 16.5479C15.4517 16.4694 15.2506 16.325 15.1909 16.2808C15.0051 16.3059 14.8174 16.3633 14.5728 16.2207C14.1072 15.9069 13.6832 15.4737 13.1701 14.9519C12.9349 14.7023 12.7647 14.4646 12.4853 14.2241C12.4219 14.1694 12.3251 14.0955 12.2541 14.0393C12.0358 13.865 11.7782 13.774 11.5294 13.7655C11.2096 13.7546 10.9017 13.8798 10.7002 14.1328C10.342 14.5826 10.4567 15.2702 10.9558 15.6687C10.9609 15.6727 10.9663 15.6758 10.9714 15.6798C11.04 15.7355 11.124 15.8068 11.187 15.8534C11.4835 16.0725 11.7543 16.1847 12.0496 16.3587C12.6719 16.7434 13.1877 17.0625 13.5969 17.4471C13.7567 17.6177 13.7846 17.9182 13.8059 18.0481L14.1393 18.3464C12.3542 21.0363 11.528 24.3588 12.0163 27.7441L11.5805 27.871C11.4657 28.0195 11.3034 28.2531 11.1337 28.3228C10.5984 28.4917 9.99587 28.5537 9.26851 28.63C8.92702 28.6584 8.63237 28.6415 8.27034 28.7101C8.19065 28.7253 8.07963 28.7542 7.99245 28.7747C7.98942 28.7753 7.98659 28.7762 7.98355 28.7769C7.9788 28.778 7.97256 28.7803 7.96799 28.7814C7.35476 28.9297 6.96082 29.4941 7.08764 30.0501C7.2145 30.6063 7.81349 30.9445 8.4304 30.8114C8.43485 30.8104 8.44132 30.8102 8.44596 30.8092C8.45293 30.8076 8.45906 30.8042 8.46597 30.8025C8.55197 30.7836 8.65974 30.7626 8.73496 30.7424C9.0909 30.647 9.34868 30.5068 9.66867 30.384C10.3571 30.1368 10.9272 29.9303 11.4827 29.8498C11.7147 29.8316 11.9592 29.9931 12.0807 30.0613L12.5343 29.9834C13.5779 33.223 15.765 35.8415 18.5344 37.4846L18.3454 37.9387C18.4136 38.115 18.4887 38.3536 18.4379 38.5277C18.236 39.052 17.8901 39.6055 17.4962 40.2225C17.3055 40.5075 17.1103 40.7287 16.9382 41.0549C16.897 41.133 16.8446 41.2529 16.8048 41.3354C16.5374 41.9082 16.7336 42.568 17.2472 42.8156C17.7641 43.0648 18.4057 42.802 18.6834 42.228C18.6838 42.2272 18.6852 42.2266 18.6856 42.2258C18.6859 42.2251 18.6853 42.2242 18.6856 42.2235C18.7251 42.1422 18.7812 42.0352 18.8145 41.9587C18.9619 41.6205 19.011 41.3308 19.1146 41.0037C19.3899 40.3114 19.5412 39.5849 19.9201 39.1323C20.0239 39.0083 20.1931 38.9607 20.3685 38.9136L20.6041 38.4863C23.0185 39.4141 25.7209 39.6631 28.4206 39.0494C29.0364 38.9094 29.631 38.7282 30.2057 38.5107C30.2719 38.6284 30.395 38.8545 30.428 38.9114C30.6063 38.9695 30.8008 38.9995 30.9593 39.2342C31.2429 39.7192 31.4368 40.2929 31.673 40.9859C31.7766 41.313 31.8279 41.6027 31.9753 41.9408C32.0089 42.0179 32.0647 42.1264 32.1042 42.208C32.3813 42.7838 33.0249 43.0475 33.5426 42.7978C34.0562 42.5501 34.2525 41.8904 33.985 41.3176C33.9452 41.2351 33.8906 41.1152 33.8494 41.0371C33.6773 40.7109 33.4821 40.4919 33.2914 40.2069C32.8975 39.5899 32.5708 39.0774 32.3688 38.553C32.2843 38.2826 32.383 38.1144 32.4488 37.9387C32.4094 37.8935 32.3251 37.6381 32.2754 37.518C35.1535 35.8165 37.2764 33.1003 38.2734 29.9633C38.408 29.9845 38.642 30.026 38.718 30.0412C38.8745 29.9379 39.0183 29.8031 39.3004 29.8253C39.8559 29.9058 40.4261 30.1124 41.1145 30.3595C41.4345 30.4823 41.6923 30.6247 42.0482 30.7201C42.1234 30.7403 42.2312 30.7591 42.3172 30.778C42.3241 30.7797 42.3302 30.7831 42.3372 30.7847C42.3418 30.7857 42.3483 30.7859 42.3528 30.7869C42.9697 30.9199 43.5688 30.5819 43.6955 30.0257C43.8222 29.4696 43.4284 28.9051 42.8152 28.7569C42.726 28.7366 42.5995 28.7021 42.5128 28.6857C42.1508 28.617 41.8561 28.6339 41.5147 28.6055C40.7873 28.5292 40.1848 28.4672 39.6495 28.2984C39.4312 28.2136 39.2759 27.9535 39.2004 27.8465L38.7802 27.7241C38.9981 26.1461 38.9393 24.5037 38.5624 22.8605C38.1819 21.202 37.5095 19.6851 36.6127 18.3486C36.7205 18.2505 36.924 18.0701 36.9817 18.017C36.9986 17.8301 36.9841 17.6341 37.1774 17.4271C37.5865 17.0424 38.1024 16.7234 38.7247 16.3387C39.02 16.1647 39.293 16.0525 39.5894 15.8334C39.6565 15.7838 39.748 15.7053 39.8184 15.6486C40.3175 15.25 40.4324 14.5625 40.0741 14.1128C39.7158 13.663 39.0214 13.6207 38.5223 14.0193C38.4513 14.0756 38.3549 14.1491 38.2911 14.204C38.0118 14.4446 37.8393 14.6823 37.6042 14.9319C37.0911 15.4537 36.667 15.889 36.2014 16.2029C35.9997 16.3205 35.7042 16.2798 35.5701 16.2719L35.1743 16.5546C32.9179 14.1855 29.8457 12.6708 26.5376 12.3766C26.5283 12.2378 26.5162 11.9869 26.5131 11.9114C26.3777 11.7816 26.2141 11.6708 26.173 11.3905C26.1278 10.8304 26.2033 10.2277 26.2908 9.50071C26.3391 9.16104 26.4194 8.87887 26.4331 8.51019C26.4362 8.42638 26.4312 8.30477 26.4309 8.21415C26.4308 7.57494 25.9651 7.05663 25.3905 7.05669ZM24.0877 15.1367L23.7787 20.6012L23.7565 20.6124C23.7358 21.1012 23.3339 21.4916 22.8406 21.4916C22.6385 21.4916 22.4519 21.4266 22.3004 21.3157L22.2915 21.3202L17.8164 18.1438C19.1917 16.7897 20.951 15.789 22.9784 15.3281C23.3488 15.2439 23.7189 15.1814 24.0877 15.1367ZM26.6954 15.1367C29.0625 15.4282 31.2516 16.5013 32.929 18.1461L28.4828 21.3024L28.4673 21.2957C28.0726 21.5843 27.5166 21.5127 27.209 21.1265C27.083 20.9683 27.0168 20.7823 27.0089 20.5946L27.0044 20.5923L26.6954 15.1367ZM16.1935 20.185L20.2796 23.8443L20.2751 23.8666C20.6439 24.1876 20.6983 24.7447 20.3907 25.1309C20.2647 25.2891 20.096 25.3952 19.915 25.4448L19.9105 25.4626L14.6729 26.9762C14.4063 24.5355 14.9808 22.163 16.1935 20.185ZM34.5586 20.1872C35.1657 21.1725 35.6254 22.2729 35.8991 23.4659C36.1695 24.6447 36.2374 25.8213 36.1258 26.9584L30.8615 25.4403L30.8571 25.418C30.3857 25.2891 30.096 24.8089 30.2057 24.3274C30.2507 24.1301 30.3553 23.9632 30.4969 23.8399L30.4947 23.8288L34.5586 20.1872ZM24.5524 24.127H26.2264L27.2668 25.4292L26.8933 27.0541L25.3905 27.7775L23.8832 27.0519L23.5097 25.427L24.5524 24.127ZM29.9189 28.5833C29.9901 28.5797 30.0609 28.5861 30.1301 28.5988L30.139 28.5877L35.5567 29.5048C34.7639 31.7352 33.2466 33.6674 31.2195 34.9604L29.1164 29.8743L29.1231 29.8654C28.9299 29.4159 29.1232 28.8889 29.5677 28.6745C29.6815 28.6197 29.8004 28.5893 29.9189 28.5833ZM20.8198 28.6055C21.2332 28.6113 21.6041 28.8986 21.7001 29.32C21.7451 29.5173 21.7232 29.7128 21.649 29.8854L21.6646 29.9054L19.5837 34.9404C17.6383 33.6904 16.0887 31.8189 15.2598 29.5226L20.6308 28.61L20.6397 28.6211C20.6998 28.61 20.7607 28.6047 20.8198 28.6055ZM25.3571 30.8114C25.5011 30.8061 25.6473 30.8357 25.7862 30.9026C25.9683 30.9904 26.1089 31.1287 26.1975 31.2944H26.2175L28.8652 36.0845C28.5216 36.1999 28.1683 36.2984 27.807 36.3806C25.782 36.8409 23.7635 36.7014 21.9358 36.0778L24.5768 31.2966H24.5813C24.7397 31 25.0403 30.823 25.3571 30.8114Z" fill="white" stroke="white" stroke-width="0.0178071"/>
</g>
<defs>
<clipPath id="clip0_150_639">
<rect width="50" height="50" fill="white"/>
</clipPath>
</defs>
</svg>
