<svg width="292" height="52" viewBox="0 0 292 52" fill="none" xmlns="http://www.w3.org/2000/svg">
<g clip-path="url(#clip0_2_33)">
<path d="M25.4762 44.304L9.46631 36.299V16.5946L25.4762 24.5995V44.304Z" fill="#00A9FD"/>
<path d="M25.4762 44.304L41.486 36.299V16.5946L25.4762 24.5995V44.304Z" fill="#2D7CFE"/>
<path d="M9.46631 16.5946L24.8604 8.58969L41.486 16.5946L25.4762 24.5995L9.46631 16.5946Z" fill="#03E2FF"/>
</g>
<path d="M58.1524 17.9897C59.0514 17.9897 59.8591 18.1116 60.5752 18.3554C61.2914 18.584 61.901 18.9268 62.4038 19.384C62.9067 19.8259 63.2952 20.3668 63.5695 21.0068C63.8438 21.6316 63.981 22.3402 63.981 23.1326C63.981 23.9097 63.8438 24.6183 63.5695 25.2583C63.2952 25.8983 62.9067 26.4392 62.4038 26.8811C61.901 27.323 61.2914 27.6659 60.5752 27.9097C59.8591 28.1535 59.0514 28.2754 58.1524 28.2754H55.821V34.4468H52.3924V17.9897H58.1524ZM55.821 25.4183H58.1524C58.9143 25.4183 59.501 25.2126 59.9124 24.8011C60.3391 24.3745 60.5524 23.8183 60.5524 23.1326C60.5524 22.4468 60.3391 21.8983 59.9124 21.4868C59.501 21.0602 58.9143 20.8468 58.1524 20.8468H55.821V25.4183ZM66.1435 34.4468V17.9897H69.572V24.2983H73.4577V17.9897H76.8863V34.4468H73.4577V27.4983H69.572V34.4468H66.1435ZM85.5631 17.9897C86.4622 17.9897 87.2698 18.1116 87.986 18.3554C88.7022 18.584 89.3117 18.9268 89.8145 19.384C90.3174 19.8259 90.706 20.3668 90.9802 21.0068C91.2545 21.6316 91.3917 22.3402 91.3917 23.1326C91.3917 23.9097 91.2545 24.6183 90.9802 25.2583C90.706 25.8983 90.3174 26.4392 89.8145 26.8811C89.3117 27.323 88.7022 27.6659 87.986 27.9097C87.2698 28.1535 86.4622 28.2754 85.5631 28.2754H83.2317V34.4468H79.8031V17.9897H85.5631ZM83.2317 25.4183H85.5631C86.325 25.4183 86.9117 25.2126 87.3231 24.8011C87.7498 24.3745 87.9631 23.8183 87.9631 23.1326C87.9631 22.4468 87.7498 21.8983 87.3231 21.4868C86.9117 21.0602 86.325 20.8468 85.5631 20.8468H83.2317V25.4183ZM107.214 17.9897H112.631C113.5 17.9897 114.284 18.1192 114.985 18.3783C115.701 18.6221 116.311 18.9802 116.814 19.4526C117.317 19.9249 117.705 20.4887 117.98 21.144C118.254 21.7992 118.391 22.5306 118.391 23.3383V29.0754C118.391 29.883 118.254 30.6221 117.98 31.2926C117.705 31.9478 117.317 32.5116 116.814 32.984C116.311 33.4411 115.701 33.7992 114.985 34.0583C114.284 34.3173 113.5 34.4468 112.631 34.4468H107.214V17.9897ZM110.642 31.2468H112.631C113.332 31.2468 113.896 31.0487 114.322 30.6526C114.749 30.2564 114.962 29.7306 114.962 29.0754V23.3383C114.962 22.6983 114.749 22.1802 114.322 21.784C113.896 21.3878 113.332 21.1897 112.631 21.1897H110.642V31.2468ZM126.336 34.6754C125.468 34.6754 124.675 34.5535 123.959 34.3097C123.258 34.0659 122.656 33.723 122.153 33.2811C121.651 32.824 121.262 32.2906 120.988 31.6811C120.713 31.0564 120.576 30.3783 120.576 29.6468V26.6526C120.576 25.9211 120.713 25.2506 120.988 24.6411C121.262 24.0164 121.651 23.483 122.153 23.0411C122.656 22.5992 123.258 22.2564 123.959 22.0126C124.675 21.7687 125.468 21.6468 126.336 21.6468C127.205 21.6468 127.99 21.7687 128.691 22.0126C129.407 22.2564 130.016 22.5992 130.519 23.0411C131.022 23.483 131.411 24.0164 131.685 24.6411C131.959 25.2506 132.096 25.9211 132.096 26.6526V29.6468C132.096 30.3783 131.959 31.0564 131.685 31.6811C131.411 32.2906 131.022 32.824 130.519 33.2811C130.016 33.723 129.407 34.0659 128.691 34.3097C127.99 34.5535 127.205 34.6754 126.336 34.6754ZM124.005 29.6468C124.005 30.2716 124.211 30.7668 124.622 31.1326C125.049 31.4983 125.62 31.6811 126.336 31.6811C127.053 31.6811 127.616 31.4983 128.028 31.1326C128.454 30.7668 128.668 30.2716 128.668 29.6468V26.6526C128.668 26.0278 128.454 25.5326 128.028 25.1668C127.616 24.8011 127.053 24.6183 126.336 24.6183C125.62 24.6183 125.049 24.8011 124.622 25.1668C124.211 25.5326 124.005 26.0278 124.005 26.6526V29.6468ZM140.156 34.6754C139.287 34.6754 138.495 34.5611 137.779 34.3326C137.078 34.104 136.476 33.7764 135.973 33.3497C135.47 32.923 135.082 32.4126 134.807 31.8183C134.533 31.2087 134.396 30.5306 134.396 29.784V26.5611C134.396 25.8145 134.533 25.144 134.807 24.5497C135.082 23.9402 135.47 23.4221 135.973 22.9954C136.476 22.5687 137.078 22.2411 137.779 22.0126C138.495 21.7687 139.287 21.6468 140.156 21.6468C140.918 21.6468 141.626 21.7535 142.282 21.9668C142.937 22.1802 143.516 22.4849 144.019 22.8811C144.522 23.2773 144.941 23.7573 145.276 24.3211C145.611 24.8849 145.84 25.5173 145.962 26.2183H142.533C142.426 25.7306 142.16 25.3421 141.733 25.0526C141.306 24.763 140.781 24.6183 140.156 24.6183C139.425 24.6183 138.853 24.7935 138.442 25.144C138.03 25.4792 137.825 25.9516 137.825 26.5611V29.784C137.825 30.3935 138.03 30.8659 138.442 31.2011C138.853 31.5364 139.425 31.704 140.156 31.704C140.765 31.704 141.284 31.5592 141.71 31.2697C142.137 30.9649 142.411 30.5687 142.533 30.0811H145.962C145.84 30.7821 145.611 31.4145 145.276 31.9783C144.941 32.5421 144.522 33.0297 144.019 33.4411C143.516 33.8373 142.937 34.1421 142.282 34.3554C141.626 34.5687 140.918 34.6754 140.156 34.6754ZM148.49 17.9897H151.918V26.6297H153.61L156.238 21.8754H160.056L156.558 28.024L160.124 34.4468H156.238L153.587 29.5097H151.918V34.4468H148.49V17.9897ZM161.692 26.6526C161.692 25.8906 161.83 25.2049 162.104 24.5954C162.378 23.9859 162.767 23.4602 163.27 23.0183C163.772 22.5764 164.374 22.2411 165.075 22.0126C165.791 21.7687 166.584 21.6468 167.452 21.6468C168.306 21.6468 169.083 21.7687 169.784 22.0126C170.485 22.2564 171.087 22.5992 171.59 23.0411C172.092 23.483 172.481 24.0164 172.755 24.6411C173.03 25.2506 173.167 25.9287 173.167 26.6754V28.9611H165.075V29.6468C165.075 30.4087 165.281 31.003 165.692 31.4297C166.104 31.8411 166.69 32.0468 167.452 32.0468C168.016 32.0468 168.496 31.9554 168.892 31.7726C169.289 31.5897 169.555 31.3383 169.692 31.0183H173.052C172.915 31.5668 172.671 32.0697 172.321 32.5268C171.986 32.9687 171.574 33.3497 171.087 33.6697C170.599 33.9897 170.043 34.2411 169.418 34.424C168.809 34.5916 168.153 34.6754 167.452 34.6754C166.584 34.6754 165.791 34.5535 165.075 34.3097C164.374 34.0659 163.772 33.7306 163.27 33.304C162.767 32.8621 162.378 32.3287 162.104 31.704C161.83 31.0792 161.692 30.3935 161.692 29.6468V26.6526ZM165.075 26.904H169.852V26.6754C169.852 25.9135 169.639 25.3268 169.212 24.9154C168.801 24.4887 168.214 24.2754 167.452 24.2754C166.706 24.2754 166.119 24.4887 165.692 24.9154C165.281 25.3268 165.075 25.9059 165.075 26.6526V26.904ZM179.421 21.8754V24.0468H179.649C179.771 23.2697 180.129 22.6754 180.723 22.264C181.318 21.8526 182.102 21.6468 183.078 21.6468C184.464 21.6468 185.539 22.0735 186.301 22.9268C187.062 23.7649 187.443 24.9383 187.443 26.4468V27.4754H183.786V26.6754C183.786 25.9897 183.588 25.4564 183.192 25.0754C182.796 24.6945 182.255 24.504 181.569 24.504C180.96 24.504 180.48 24.7021 180.129 25.0983C179.779 25.4792 179.603 26.0049 179.603 26.6754V34.4468H176.175V21.8754H179.421ZM203.426 20.9611V17.9897H213.711V20.9611H210.283V31.4754H213.711V34.4468H203.426V31.4754H206.854V20.9611H203.426ZM216.331 34.4468V21.8754H219.028V23.704H219.257C219.287 23.064 219.493 22.5611 219.874 22.1954C220.27 21.8297 220.78 21.6468 221.405 21.6468C222 21.6468 222.441 21.8297 222.731 22.1954C223.02 22.5611 223.226 23.064 223.348 23.704H223.554C223.584 23.064 223.782 22.5611 224.148 22.1954C224.529 21.8297 225.032 21.6468 225.657 21.6468C226.419 21.6468 227.036 21.9364 227.508 22.5154C227.996 23.0792 228.24 23.8564 228.24 24.8468V34.4468H225.291V25.2354C225.291 24.3973 224.979 23.9783 224.354 23.9783C223.76 23.9783 223.462 24.3973 223.462 25.2354V34.4468H221.108V25.2354C221.108 24.3973 220.78 23.9783 220.125 23.9783C219.82 23.9783 219.6 24.0926 219.462 24.3211C219.34 24.5345 219.28 24.8392 219.28 25.2354V34.4468H216.331ZM230.105 31.0183C230.105 29.7383 230.57 28.7326 231.499 28.0011C232.429 27.2545 233.693 26.8811 235.293 26.8811H238.013V25.7611C238.013 25.3192 237.823 24.9611 237.442 24.6868C237.076 24.4126 236.573 24.2754 235.933 24.2754C235.37 24.2754 234.897 24.3821 234.516 24.5954C234.151 24.7935 233.914 25.0678 233.808 25.4183H230.493C230.585 24.8392 230.775 24.3211 231.065 23.864C231.37 23.3916 231.758 22.9954 232.231 22.6754C232.703 22.3402 233.252 22.0887 233.876 21.9211C234.501 21.7383 235.187 21.6468 235.933 21.6468C236.756 21.6468 237.503 21.7459 238.173 21.944C238.859 22.1421 239.438 22.424 239.911 22.7897C240.398 23.1402 240.772 23.5668 241.031 24.0697C241.305 24.5726 241.442 25.1364 241.442 25.7611V34.4468H238.173V31.9326H237.968C237.861 32.7859 237.457 33.4564 236.756 33.944C236.071 34.4316 235.179 34.6754 234.082 34.6754C232.863 34.6754 231.895 34.3478 231.179 33.6926C230.463 33.0373 230.105 32.1459 230.105 31.0183ZM233.533 30.4697C233.533 30.9573 233.701 31.3459 234.036 31.6354C234.387 31.9097 234.882 32.0468 235.522 32.0468C236.253 32.0468 236.848 31.8792 237.305 31.544C237.777 31.1935 238.013 30.7516 238.013 30.2183V28.9383H235.293C234.76 28.9383 234.333 29.0754 234.013 29.3497C233.693 29.6087 233.533 29.9821 233.533 30.4697ZM243.925 26.5611C243.925 25.8297 244.024 25.1592 244.222 24.5497C244.435 23.9402 244.732 23.4221 245.113 22.9954C245.494 22.5687 245.951 22.2411 246.485 22.0126C247.033 21.7687 247.635 21.6468 248.29 21.6468C249.25 21.6468 250.027 21.8754 250.622 22.3326C251.216 22.7897 251.551 23.3992 251.627 24.1611H251.787V21.8754H255.102V33.784C255.102 34.4697 254.972 35.0868 254.713 35.6354C254.454 36.1992 254.088 36.6792 253.616 37.0754C253.144 37.4716 252.572 37.7764 251.902 37.9897C251.231 38.2183 250.492 38.3326 249.685 38.3326H246.142V35.5897H249.685C250.279 35.5897 250.759 35.4221 251.125 35.0868C251.49 34.7516 251.673 34.3173 251.673 33.784V33.6468L251.787 31.1326H251.627C251.536 31.8945 251.193 32.504 250.599 32.9611C250.005 33.4183 249.227 33.6468 248.267 33.6468C247.612 33.6468 247.018 33.5326 246.485 33.304C245.951 33.0602 245.494 32.7249 245.113 32.2983C244.732 31.8716 244.435 31.3535 244.222 30.744C244.024 30.1345 243.925 29.464 243.925 28.7326V26.5611ZM247.353 28.6183C247.353 29.2583 247.544 29.7611 247.925 30.1268C248.321 30.4926 248.846 30.6754 249.502 30.6754C250.157 30.6754 250.683 30.4926 251.079 30.1268C251.475 29.7459 251.673 29.243 251.673 28.6183V26.6754C251.673 26.0506 251.475 25.5554 251.079 25.1897C250.683 24.8087 250.157 24.6183 249.502 24.6183C248.846 24.6183 248.321 24.8011 247.925 25.1668C247.544 25.5326 247.353 26.0354 247.353 26.6754V28.6183ZM257.63 26.6526C257.63 25.8906 257.767 25.2049 258.041 24.5954C258.316 23.9859 258.704 23.4602 259.207 23.0183C259.71 22.5764 260.312 22.2411 261.013 22.0126C261.729 21.7687 262.521 21.6468 263.39 21.6468C264.243 21.6468 265.02 21.7687 265.721 22.0126C266.422 22.2564 267.024 22.5992 267.527 23.0411C268.03 23.483 268.418 24.0164 268.693 24.6411C268.967 25.2506 269.104 25.9287 269.104 26.6754V28.9611H261.013V29.6468C261.013 30.4087 261.218 31.003 261.63 31.4297C262.041 31.8411 262.628 32.0468 263.39 32.0468C263.954 32.0468 264.434 31.9554 264.83 31.7726C265.226 31.5897 265.493 31.3383 265.63 31.0183H268.99C268.853 31.5668 268.609 32.0697 268.258 32.5268C267.923 32.9687 267.512 33.3497 267.024 33.6697C266.537 33.9897 265.98 34.2411 265.356 34.424C264.746 34.5916 264.091 34.6754 263.39 34.6754C262.521 34.6754 261.729 34.5535 261.013 34.3097C260.312 34.0659 259.71 33.7306 259.207 33.304C258.704 32.8621 258.316 32.3287 258.041 31.704C257.767 31.0792 257.63 30.3935 257.63 29.6468V26.6526ZM261.013 26.904H265.79V26.6754C265.79 25.9135 265.577 25.3268 265.15 24.9154C264.738 24.4887 264.152 24.2754 263.39 24.2754C262.643 24.2754 262.057 24.4887 261.63 24.9154C261.218 25.3268 261.013 25.9059 261.013 26.6526V26.904ZM274.695 31.1326C274.802 31.483 275.008 31.7497 275.312 31.9326C275.632 32.1154 276.029 32.2068 276.501 32.2068H277.644C278.284 32.2068 278.771 32.0926 279.107 31.864C279.442 31.6354 279.61 31.3078 279.61 30.8811C279.61 30.1345 279 29.6926 277.781 29.5554L276.067 29.3726C274.497 29.2049 273.339 28.8087 272.592 28.184C271.861 27.544 271.495 26.6373 271.495 25.464C271.495 24.2297 271.922 23.2849 272.775 22.6297C273.644 21.9745 274.886 21.6468 276.501 21.6468H277.644C279.168 21.6468 280.356 21.9364 281.21 22.5154C282.078 23.0945 282.581 23.9554 282.718 25.0983H279.29C279.122 24.4278 278.573 24.0926 277.644 24.0926H276.501C275.373 24.0926 274.81 24.4735 274.81 25.2354C274.81 25.9668 275.328 26.3935 276.364 26.5154L278.192 26.7211C281.347 27.0868 282.924 28.4278 282.924 30.744C282.924 32.0392 282.474 33.0221 281.575 33.6926C280.676 34.3478 279.366 34.6754 277.644 34.6754H276.501C274.931 34.6754 273.705 34.3783 272.821 33.784C271.937 33.1745 271.419 32.2906 271.267 31.1326H274.695Z" fill="white"/>
<defs>
<clipPath id="clip0_2_33">
<rect width="35.7143" height="35.7143" fill="white" transform="translate(7.61902 8.58969)"/>
</clipPath>
</defs>
</svg>
