<svg width="292" height="52" viewBox="0 0 292 52" fill="none" xmlns="http://www.w3.org/2000/svg">
<rect width="291.571" height="50.9524" transform="translate(0 0.970642)" fill="black"/>
<g clip-path="url(#clip0_2_33)">
<path d="M25.4762 44.304L9.46631 36.299V16.5946L25.4762 24.5995V44.304Z" fill="#00A9FD"/>
<path d="M25.4762 44.304L41.486 36.299V16.5946L25.4762 24.5995V44.304Z" fill="#2D7CFE"/>
<path d="M9.46631 16.5946L24.8604 8.58969L41.486 16.5946L25.4762 24.5995L9.46631 16.5946Z" fill="#03E2FF"/>
</g>
<path d="M52.461 34.4468V17.7611H58.1524C59.3257 17.7611 60.3467 17.9821 61.2152 18.424C62.0991 18.8659 62.7772 19.483 63.2495 20.2754C63.7372 21.0678 63.981 21.9973 63.981 23.064C63.981 24.1154 63.7372 25.0449 63.2495 25.8526C62.7619 26.6449 62.0838 27.2621 61.2152 27.704C60.3467 28.1459 59.3257 28.3668 58.1524 28.3668H55.8895V34.4468H52.461ZM55.8895 25.2811H58.1524C58.8838 25.2811 59.4629 25.083 59.8895 24.6868C60.3314 24.2754 60.5524 23.7345 60.5524 23.064C60.5524 22.3935 60.3314 21.8602 59.8895 21.464C59.4629 21.0526 58.8838 20.8468 58.1524 20.8468H55.8895V25.2811ZM66.1663 34.4468V17.7611H69.5949V24.1611H73.4349V17.7611H76.8635V34.4468H73.4349V27.3611H69.5949V34.4468H66.1663ZM79.8717 34.4468V17.7611H85.5631C86.7364 17.7611 87.7574 17.9821 88.626 18.424C89.5098 18.8659 90.1879 19.483 90.6602 20.2754C91.1479 21.0678 91.3917 21.9973 91.3917 23.064C91.3917 24.1154 91.1479 25.0449 90.6602 25.8526C90.1726 26.6449 89.4945 27.2621 88.626 27.704C87.7574 28.1459 86.7364 28.3668 85.5631 28.3668H83.3002V34.4468H79.8717ZM83.3002 25.2811H85.5631C86.2945 25.2811 86.8736 25.083 87.3002 24.6868C87.7422 24.2754 87.9631 23.7345 87.9631 23.064C87.9631 22.3935 87.7422 21.8602 87.3002 21.464C86.8736 21.0526 86.2945 20.8468 85.5631 20.8468H83.3002V25.2811ZM107.214 34.4468V17.7611H112.631C113.789 17.7611 114.795 17.9821 115.648 18.424C116.517 18.8659 117.187 19.4906 117.66 20.2983C118.147 21.0906 118.391 22.0278 118.391 23.1097V29.0754C118.391 30.1421 118.147 31.0792 117.66 31.8868C117.187 32.6945 116.517 33.3268 115.648 33.784C114.795 34.2259 113.789 34.4468 112.631 34.4468H107.214ZM110.642 31.2468H112.631C113.332 31.2468 113.896 31.0487 114.322 30.6526C114.749 30.2564 114.962 29.7306 114.962 29.0754V23.1097C114.962 22.4697 114.749 21.9516 114.322 21.5554C113.896 21.1592 113.332 20.9611 112.631 20.9611H110.642V31.2468ZM126.336 34.6754C125.224 34.6754 124.256 34.4697 123.433 34.0583C122.611 33.6316 121.971 33.0449 121.513 32.2983C121.072 31.5364 120.851 30.6526 120.851 29.6468V26.6754C120.851 25.6697 121.072 24.7935 121.513 24.0468C121.971 23.2849 122.611 22.6983 123.433 22.2868C124.256 21.8602 125.224 21.6468 126.336 21.6468C127.464 21.6468 128.432 21.8602 129.239 22.2868C130.062 22.6983 130.694 23.2849 131.136 24.0468C131.593 24.7935 131.822 25.6697 131.822 26.6754V29.6468C131.822 30.6526 131.593 31.5364 131.136 32.2983C130.694 33.0449 130.062 33.6316 129.239 34.0583C128.432 34.4697 127.464 34.6754 126.336 34.6754ZM126.336 31.704C127.007 31.704 127.517 31.5287 127.868 31.1783C128.218 30.8126 128.393 30.3021 128.393 29.6468V26.6754C128.393 26.0049 128.218 25.4945 127.868 25.144C127.517 24.7935 127.007 24.6183 126.336 24.6183C125.681 24.6183 125.171 24.7935 124.805 25.144C124.454 25.4945 124.279 26.0049 124.279 26.6754V29.6468C124.279 30.3021 124.454 30.8126 124.805 31.1783C125.171 31.5287 125.681 31.704 126.336 31.704ZM140.11 34.6754C138.998 34.6754 138.023 34.4697 137.185 34.0583C136.346 33.6316 135.699 33.0449 135.242 32.2983C134.785 31.5364 134.556 30.6526 134.556 29.6468V26.6754C134.556 25.6545 134.785 24.7706 135.242 24.024C135.699 23.2773 136.346 22.6983 137.185 22.2868C138.023 21.8602 138.998 21.6468 140.11 21.6468C141.771 21.6468 143.097 22.0659 144.087 22.904C145.078 23.7421 145.604 24.8849 145.665 26.3326H142.236C142.19 25.7992 141.977 25.3802 141.596 25.0754C141.23 24.7706 140.735 24.6183 140.11 24.6183C139.425 24.6183 138.899 24.7935 138.533 25.144C138.167 25.4945 137.985 26.0049 137.985 26.6754V29.6468C137.985 30.3021 138.167 30.8126 138.533 31.1783C138.899 31.5287 139.425 31.704 140.11 31.704C140.735 31.704 141.23 31.5592 141.596 31.2697C141.977 30.9649 142.19 30.5383 142.236 29.9897H145.665C145.604 31.4373 145.078 32.5802 144.087 33.4183C143.097 34.2564 141.771 34.6754 140.11 34.6754ZM148.467 34.4468V17.7611H151.896V26.6297H153.587L156.216 21.8754H160.033L156.536 28.024L160.101 34.4468H156.216L153.564 29.5097H151.896V34.4468H148.467ZM167.475 34.6754C166.363 34.6754 165.388 34.4697 164.55 34.0583C163.727 33.6316 163.087 33.0449 162.63 32.2983C162.188 31.5364 161.967 30.6526 161.967 29.6468V26.6754C161.967 25.6697 162.188 24.7935 162.63 24.0468C163.087 23.2849 163.727 22.6983 164.55 22.2868C165.388 21.8602 166.363 21.6468 167.475 21.6468C168.588 21.6468 169.548 21.8602 170.355 22.2868C171.178 22.6983 171.81 23.2849 172.252 24.0468C172.71 24.7935 172.938 25.6697 172.938 26.6754V28.9611H165.235V29.6468C165.235 30.4392 165.426 31.0411 165.807 31.4526C166.188 31.8487 166.759 32.0468 167.521 32.0468C168.054 32.0468 168.481 31.9554 168.801 31.7726C169.136 31.5897 169.357 31.3383 169.464 31.0183H172.824C172.55 32.1154 171.925 32.9992 170.95 33.6697C169.99 34.3402 168.831 34.6754 167.475 34.6754ZM169.67 27.2011V26.6297C169.67 25.8526 169.487 25.2583 169.121 24.8468C168.77 24.4354 168.222 24.2297 167.475 24.2297C166.729 24.2297 166.165 24.443 165.784 24.8697C165.418 25.2964 165.235 25.8983 165.235 26.6754V27.0183L169.898 26.9726L169.67 27.2011ZM176.175 34.4468V21.8754H179.375V24.2754H180.243L179.261 25.7383C179.261 24.3821 179.573 23.3611 180.198 22.6754C180.822 21.9897 181.737 21.6468 182.941 21.6468C184.327 21.6468 185.402 22.0659 186.163 22.904C186.941 23.7421 187.329 24.923 187.329 26.4468V27.4754H183.672V26.6754C183.672 25.9897 183.482 25.4564 183.101 25.0754C182.735 24.6945 182.24 24.504 181.615 24.504C180.96 24.504 180.457 24.6945 180.106 25.0754C179.771 25.4564 179.603 25.9897 179.603 26.6754V34.4468H176.175ZM203.54 34.4468V31.4754H206.854V20.7326H203.54V17.7611H213.597V20.7326H210.283V31.4754H213.597V34.4468H203.54ZM216.377 34.4468V21.8754H219.074V23.704H219.622L219.188 24.024C219.188 23.3078 219.394 22.7364 219.805 22.3097C220.217 21.8678 220.727 21.6468 221.337 21.6468C221.992 21.6468 222.502 21.9287 222.868 22.4926C223.234 23.0564 223.417 23.803 223.417 24.7326L223.005 23.704H223.645L223.44 24.024C223.44 23.3078 223.638 22.7364 224.034 22.3097C224.43 21.8678 224.963 21.6468 225.634 21.6468C226.396 21.6468 227.013 21.9364 227.485 22.5154C227.958 23.0792 228.194 23.8564 228.194 24.8468V34.4468H225.245V25.0754C225.245 24.7249 225.169 24.4583 225.017 24.2754C224.864 24.0773 224.643 23.9783 224.354 23.9783C224.064 23.9783 223.843 24.0773 223.691 24.2754C223.539 24.4583 223.462 24.7249 223.462 25.0754V34.4468H221.108V25.0754C221.108 24.7249 221.032 24.4583 220.88 24.2754C220.727 24.0773 220.506 23.9783 220.217 23.9783C219.927 23.9783 219.706 24.0773 219.554 24.2754C219.401 24.4583 219.325 24.7249 219.325 25.0754V34.4468H216.377ZM234.356 34.6754C233.092 34.6754 232.086 34.3326 231.339 33.6468C230.608 32.9611 230.242 32.0316 230.242 30.8583C230.242 29.5935 230.676 28.6259 231.545 27.9554C232.429 27.2697 233.693 26.9268 235.339 26.9268H237.945V25.9897C237.945 25.5021 237.77 25.1135 237.419 24.824C237.084 24.5345 236.627 24.3897 236.048 24.3897C235.514 24.3897 235.072 24.5116 234.722 24.7554C234.372 24.9992 234.158 25.3345 234.082 25.7611H230.768C230.905 24.4964 231.453 23.4983 232.413 22.7668C233.389 22.0202 234.638 21.6468 236.162 21.6468C237.762 21.6468 239.027 22.043 239.956 22.8354C240.901 23.6126 241.373 24.664 241.373 25.9897V34.4468H238.059V32.3897H237.511L238.082 31.5897C238.082 32.5345 237.739 33.2887 237.053 33.8526C236.383 34.4011 235.484 34.6754 234.356 34.6754ZM235.636 32.1611C236.307 32.1611 236.855 31.9859 237.282 31.6354C237.724 31.2697 237.945 30.7973 237.945 30.2183V28.8697H235.408C234.89 28.8697 234.471 29.0221 234.151 29.3268C233.831 29.6164 233.671 30.0049 233.671 30.4926C233.671 31.0106 233.846 31.4221 234.196 31.7268C234.547 32.0164 235.027 32.1611 235.636 32.1611ZM246.142 38.5611V35.8183H249.685C250.325 35.8183 250.812 35.6583 251.147 35.3383C251.498 35.0183 251.673 34.5764 251.673 34.0126V33.5326L251.719 31.1326H250.919L251.719 30.3326C251.719 31.4145 251.422 32.2602 250.827 32.8697C250.233 33.464 249.418 33.7611 248.382 33.7611C247.117 33.7611 246.104 33.3192 245.342 32.4354C244.58 31.5516 244.199 30.3554 244.199 28.8468V26.5611C244.199 25.0678 244.58 23.8792 245.342 22.9954C246.104 22.0964 247.117 21.6468 248.382 21.6468C249.418 21.6468 250.233 21.9516 250.827 22.5611C251.422 23.1554 251.719 23.9935 251.719 25.0754L250.919 24.2754H251.719L251.605 21.8754H255.033V34.1268C255.033 35.4983 254.561 36.5802 253.616 37.3726C252.686 38.1649 251.414 38.5611 249.799 38.5611H246.142ZM249.616 30.7897C250.241 30.7897 250.728 30.6145 251.079 30.264C251.429 29.8983 251.605 29.3878 251.605 28.7326V26.6754C251.605 26.0202 251.429 25.5173 251.079 25.1668C250.728 24.8011 250.241 24.6183 249.616 24.6183C248.976 24.6183 248.481 24.8011 248.13 25.1668C247.795 25.5173 247.627 26.0202 247.627 26.6754V28.7326C247.627 29.3878 247.795 29.8983 248.13 30.264C248.481 30.6145 248.976 30.7897 249.616 30.7897ZM263.413 34.6754C262.3 34.6754 261.325 34.4697 260.487 34.0583C259.664 33.6316 259.024 33.0449 258.567 32.2983C258.125 31.5364 257.904 30.6526 257.904 29.6468V26.6754C257.904 25.6697 258.125 24.7935 258.567 24.0468C259.024 23.2849 259.664 22.6983 260.487 22.2868C261.325 21.8602 262.3 21.6468 263.413 21.6468C264.525 21.6468 265.485 21.8602 266.293 22.2868C267.116 22.6983 267.748 23.2849 268.19 24.0468C268.647 24.7935 268.876 25.6697 268.876 26.6754V28.9611H261.173V29.6468C261.173 30.4392 261.363 31.0411 261.744 31.4526C262.125 31.8487 262.697 32.0468 263.458 32.0468C263.992 32.0468 264.418 31.9554 264.738 31.7726C265.074 31.5897 265.295 31.3383 265.401 31.0183H268.761C268.487 32.1154 267.862 32.9992 266.887 33.6697C265.927 34.3402 264.769 34.6754 263.413 34.6754ZM265.607 27.2011V26.6297C265.607 25.8526 265.424 25.2583 265.058 24.8468C264.708 24.4354 264.159 24.2297 263.413 24.2297C262.666 24.2297 262.102 24.443 261.721 24.8697C261.356 25.2964 261.173 25.8983 261.173 26.6754V27.0183L265.836 26.9726L265.607 27.2011ZM276.57 34.6754C275.533 34.6754 274.627 34.5154 273.85 34.1954C273.072 33.8602 272.463 33.403 272.021 32.824C271.594 32.2449 271.381 31.5668 271.381 30.7897H274.81C274.81 31.1554 274.97 31.4526 275.29 31.6811C275.625 31.8945 276.051 32.0011 276.57 32.0011H277.575C278.2 32.0011 278.672 31.8868 278.992 31.6583C279.328 31.4297 279.495 31.1097 279.495 30.6983C279.495 30.3173 279.35 30.0278 279.061 29.8297C278.771 29.6164 278.322 29.4716 277.712 29.3954L276.25 29.2126C274.68 29.0145 273.537 28.6335 272.821 28.0697C272.105 27.5059 271.747 26.6449 271.747 25.4868C271.747 24.2678 272.166 23.323 273.004 22.6526C273.842 21.9821 275.069 21.6468 276.684 21.6468H277.552C279.091 21.6468 280.318 21.9821 281.232 22.6526C282.147 23.323 282.604 24.2221 282.604 25.3497H279.175C279.175 25.0449 279.023 24.8011 278.718 24.6183C278.429 24.4202 278.04 24.3211 277.552 24.3211H276.684C276.12 24.3211 275.709 24.4202 275.45 24.6183C275.19 24.8011 275.061 25.083 275.061 25.464C275.061 25.8145 275.175 26.0811 275.404 26.264C275.648 26.4468 276.029 26.5764 276.547 26.6526L278.124 26.8583C279.709 27.0564 280.882 27.4526 281.644 28.0468C282.421 28.6411 282.81 29.5249 282.81 30.6983C282.81 31.9783 282.368 32.9611 281.484 33.6468C280.6 34.3326 279.297 34.6754 277.575 34.6754H276.57Z" fill="white"/>
<defs>
<clipPath id="clip0_2_33">
<rect width="35.7143" height="35.7143" fill="white" transform="translate(7.61902 8.58969)"/>
</clipPath>
</defs>
</svg>
