<svg width="278" height="72" viewBox="0 0 278 72" fill="none" xmlns="http://www.w3.org/2000/svg">
<g clip-path="url(#clip0_642_716)">
<g clip-path="url(#clip1_642_716)">
<path d="M25.3305 53.7469L9.41211 45.7878V26.1959L25.3305 34.1551V53.7469Z" fill="#00A9FD"/>
<path d="M25.3306 53.7469L41.2489 45.7878V26.1959L25.3306 34.1551V53.7469Z" fill="#2D7CFE"/>
<path d="M9.41211 26.1959L24.7182 18.2367L41.2488 26.1959L25.3305 34.1551L9.41211 26.1959Z" fill="#03E2FF"/>
</g>
<path d="M56.9565 44.2191C55.9262 44.2191 55.0247 44.06 54.252 43.7418C53.4793 43.4085 52.8733 42.954 52.4339 42.3783C52.0097 41.8025 51.7976 41.1283 51.7976 40.3556H55.2066C55.2066 40.7192 55.3656 41.0147 55.6838 41.2419C56.0171 41.454 56.4414 41.5601 56.9565 41.5601H57.9565C58.5777 41.5601 59.0473 41.4465 59.3655 41.2192C59.6988 40.9919 59.8655 40.6738 59.8655 40.2647C59.8655 39.8859 59.7216 39.598 59.4337 39.4011C59.1458 39.189 58.6989 39.045 58.0928 38.9693L56.6383 38.7875C55.0778 38.5905 53.9415 38.2117 53.2294 37.6511C52.5173 37.0905 52.1612 36.2345 52.1612 35.083C52.1612 33.871 52.5779 32.9316 53.4112 32.2649C54.2445 31.5983 55.4641 31.265 57.0701 31.265H57.9337C59.464 31.265 60.6837 31.5983 61.5927 32.2649C62.5018 32.9316 62.9563 33.8255 62.9563 34.9467H59.5473C59.5473 34.6437 59.3958 34.4012 59.0928 34.2194C58.8049 34.0225 58.4186 33.924 57.9337 33.924H57.0701C56.5095 33.924 56.1005 34.0225 55.8429 34.2194C55.5853 34.4012 55.4566 34.6815 55.4566 35.0603C55.4566 35.4088 55.5702 35.6739 55.7975 35.8557C56.0399 36.0376 56.4186 36.1663 56.9338 36.2421L58.5019 36.4466C60.0776 36.6436 61.2442 37.0375 62.0018 37.6284C62.7745 38.2193 63.1608 39.0981 63.1608 40.2647C63.1608 41.5374 62.7215 42.5146 61.8427 43.1964C60.9639 43.8782 59.6685 44.2191 57.9565 44.2191H56.9565ZM71.129 44.2191C70.023 44.2191 69.0533 44.0146 68.22 43.6055C67.4018 43.1813 66.7655 42.5979 66.311 41.8555C65.8716 41.098 65.6519 40.2192 65.6519 39.2193V36.2648C65.6519 35.2648 65.8716 34.3937 66.311 33.6513C66.7655 32.8937 67.4018 32.3104 68.22 31.9013C69.0533 31.4771 70.023 31.265 71.129 31.265C72.235 31.265 73.1895 31.4771 73.9925 31.9013C74.8107 32.3104 75.4394 32.8937 75.8788 33.6513C76.3334 34.3937 76.5606 35.2648 76.5606 36.2648V38.5375H68.9018V39.2193C68.9018 40.0071 69.0912 40.6056 69.4699 41.0147C69.8487 41.4086 70.4169 41.6056 71.1744 41.6056C71.7047 41.6056 72.1289 41.5146 72.4471 41.3328C72.7804 41.151 73.0001 40.901 73.1062 40.5829H76.447C76.1743 41.6737 75.5531 42.5525 74.5834 43.2191C73.6289 43.8858 72.4774 44.2191 71.129 44.2191ZM73.3107 36.7875V36.2194C73.3107 35.4467 73.1289 34.8558 72.7653 34.4467C72.4168 34.0376 71.8714 33.8331 71.129 33.8331C70.3866 33.8331 69.826 34.0452 69.4472 34.4694C69.0836 34.8936 68.9018 35.4921 68.9018 36.2648V36.6057L73.538 36.5603L73.3107 36.7875ZM79.7789 43.9918V31.4922H82.9606V33.8785H83.8242L82.847 35.333C82.847 33.9846 83.1576 32.9695 83.7788 32.2877C84.4 31.6059 85.309 31.265 86.506 31.265C87.8847 31.265 88.9529 31.6816 89.7104 32.5149C90.4831 33.3482 90.8695 34.5224 90.8695 36.0376V37.0602H87.2332V36.2648C87.2332 35.583 87.0438 35.0527 86.6651 34.674C86.3014 34.2952 85.809 34.1058 85.1878 34.1058C84.5363 34.1058 84.0363 34.2952 83.6879 34.674C83.3546 35.0527 83.1879 35.583 83.1879 36.2648V43.9918H79.7789ZM96.2468 43.9918L92.156 31.4922H95.6786L97.7694 38.5147C97.8907 38.939 98.0119 39.4011 98.1331 39.9011C98.2543 40.401 98.3452 40.8025 98.4058 41.1056C98.4815 40.8025 98.5725 40.401 98.6785 39.9011C98.7997 39.4011 98.9133 38.9465 99.0194 38.5375L101.088 31.4922H104.565L100.519 43.9918H96.2468ZM112.01 44.2191C110.904 44.2191 109.934 44.0146 109.101 43.6055C108.283 43.1813 107.647 42.5979 107.192 41.8555C106.753 41.098 106.533 40.2192 106.533 39.2193V36.2648C106.533 35.2648 106.753 34.3937 107.192 33.6513C107.647 32.8937 108.283 32.3104 109.101 31.9013C109.934 31.4771 110.904 31.265 112.01 31.265C113.116 31.265 114.071 31.4771 114.874 31.9013C115.692 32.3104 116.321 32.8937 116.76 33.6513C117.214 34.3937 117.442 35.2648 117.442 36.2648V38.5375H109.783V39.2193C109.783 40.0071 109.972 40.6056 110.351 41.0147C110.73 41.4086 111.298 41.6056 112.056 41.6056C112.586 41.6056 113.01 41.5146 113.328 41.3328C113.662 41.151 113.881 40.901 113.987 40.5829H117.328C117.055 41.6737 116.434 42.5525 115.465 43.2191C114.51 43.8858 113.359 44.2191 112.01 44.2191ZM114.192 36.7875V36.2194C114.192 35.4467 114.01 34.8558 113.646 34.4467C113.298 34.0376 112.753 33.8331 112.01 33.8331C111.268 33.8331 110.707 34.0452 110.328 34.4694C109.965 34.8936 109.783 35.4921 109.783 36.2648V36.6057L114.419 36.5603L114.192 36.7875ZM120.66 43.9918V31.4922H123.842V33.8785H124.705L123.728 35.333C123.728 33.9846 124.039 32.9695 124.66 32.2877C125.281 31.6059 126.19 31.265 127.387 31.265C128.766 31.265 129.834 31.6816 130.592 32.5149C131.364 33.3482 131.751 34.5224 131.751 36.0376V37.0602H128.114V36.2648C128.114 35.583 127.925 35.0527 127.546 34.674C127.183 34.2952 126.69 34.1058 126.069 34.1058C125.417 34.1058 124.917 34.2952 124.569 34.674C124.236 35.0527 124.069 35.583 124.069 36.2648V43.9918H120.66ZM138.719 44.2191C137.688 44.2191 136.787 44.06 136.014 43.7418C135.242 43.4085 134.636 42.954 134.196 42.3783C133.772 41.8025 133.56 41.1283 133.56 40.3556H136.969C136.969 40.7192 137.128 41.0147 137.446 41.2419C137.779 41.454 138.204 41.5601 138.719 41.5601H139.719C140.34 41.5601 140.81 41.4465 141.128 41.2192C141.461 40.9919 141.628 40.6738 141.628 40.2647C141.628 39.8859 141.484 39.598 141.196 39.4011C140.908 39.189 140.461 39.045 139.855 38.9693L138.401 38.7875C136.84 38.5905 135.704 38.2117 134.992 37.6511C134.28 37.0905 133.923 36.2345 133.923 35.083C133.923 33.871 134.34 32.9316 135.173 32.2649C136.007 31.5983 137.226 31.265 138.832 31.265H139.696C141.226 31.265 142.446 31.5983 143.355 32.2649C144.264 32.9316 144.719 33.8255 144.719 34.9467H141.31C141.31 34.6437 141.158 34.4012 140.855 34.2194C140.567 34.0225 140.181 33.924 139.696 33.924H138.832C138.272 33.924 137.863 34.0225 137.605 34.2194C137.348 34.4012 137.219 34.6815 137.219 35.0603C137.219 35.4088 137.332 35.6739 137.56 35.8557C137.802 36.0376 138.181 36.1663 138.696 36.2421L140.264 36.4466C141.84 36.6436 143.006 37.0375 143.764 37.6284C144.537 38.2193 144.923 39.0981 144.923 40.2647C144.923 41.5374 144.484 42.5146 143.605 43.1964C142.726 43.8782 141.431 44.2191 139.719 44.2191H138.719ZM147.641 43.9918V40.901H151.959V34.5603H148.21V31.4922H155.141V40.901H158.777V43.9918H147.641ZM153.323 29.515C152.702 29.515 152.202 29.356 151.823 29.0378C151.459 28.7196 151.278 28.2878 151.278 27.7424C151.278 27.1969 151.459 26.7651 151.823 26.447C152.202 26.1288 152.702 25.9697 153.323 25.9697C153.944 25.9697 154.437 26.1288 154.8 26.447C155.179 26.7651 155.368 27.1969 155.368 27.7424C155.368 28.2878 155.179 28.7196 154.8 29.0378C154.437 29.356 153.944 29.515 153.323 29.515ZM165.2 44.2191C163.943 44.2191 162.935 43.7797 162.178 42.901C161.42 42.0222 161.041 40.8328 161.041 39.3329V36.1512C161.041 34.6664 161.42 33.4846 162.178 32.6058C162.935 31.7119 163.943 31.265 165.2 31.265C166.23 31.265 167.041 31.568 167.632 32.174C168.223 32.7649 168.518 33.5982 168.518 34.674L167.723 33.8785H168.518L168.405 30.8104V27.4015H171.814V43.9918H168.518V41.6056H167.723L168.518 40.8101C168.518 41.8858 168.223 42.7267 167.632 43.3328C167.041 43.9237 166.23 44.2191 165.2 44.2191ZM166.427 41.2647C167.049 41.2647 167.533 41.0904 167.882 40.7419C168.23 40.3783 168.405 39.8708 168.405 39.2193V36.2648C168.405 35.6133 168.23 35.1133 167.882 34.7649C167.533 34.4012 167.049 34.2194 166.427 34.2194C165.791 34.2194 165.299 34.4012 164.95 34.7649C164.617 35.1133 164.45 35.6133 164.45 36.2648V39.2193C164.45 39.8708 164.617 40.3783 164.95 40.7419C165.299 41.0904 165.791 41.2647 166.427 41.2647ZM180.145 44.2191C179.039 44.2191 178.07 44.0146 177.236 43.6055C176.418 43.1813 175.782 42.5979 175.327 41.8555C174.888 41.098 174.668 40.2192 174.668 39.2193V36.2648C174.668 35.2648 174.888 34.3937 175.327 33.6513C175.782 32.8937 176.418 32.3104 177.236 31.9013C178.07 31.4771 179.039 31.265 180.145 31.265C181.251 31.265 182.206 31.4771 183.009 31.9013C183.827 32.3104 184.456 32.8937 184.895 33.6513C185.35 34.3937 185.577 35.2648 185.577 36.2648V38.5375H177.918V39.2193C177.918 40.0071 178.108 40.6056 178.486 41.0147C178.865 41.4086 179.433 41.6056 180.191 41.6056C180.721 41.6056 181.145 41.5146 181.463 41.3328C181.797 41.151 182.016 40.901 182.123 40.5829H185.463C185.191 41.6737 184.569 42.5525 183.6 43.2191C182.645 43.8858 181.494 44.2191 180.145 44.2191ZM182.327 36.7875V36.2194C182.327 35.4467 182.145 34.8558 181.782 34.4467C181.433 34.0376 180.888 33.8331 180.145 33.8331C179.403 33.8331 178.842 34.0452 178.464 34.4694C178.1 34.8936 177.918 35.4921 177.918 36.2648V36.6057L182.554 36.5603L182.327 36.7875ZM193.75 44.2191C192.068 44.2191 190.75 43.7646 189.795 42.8555C188.856 41.9464 188.386 40.7041 188.386 39.1284V31.4922H191.795V39.1056C191.795 39.8026 191.962 40.3404 192.295 40.7192C192.628 41.0828 193.113 41.2647 193.75 41.2647C194.371 41.2647 194.848 41.0828 195.181 40.7192C195.53 40.3404 195.704 39.8026 195.704 39.1056V31.4922H199.113V39.1284C199.113 40.7192 198.636 41.9692 197.681 42.8782C196.727 43.7721 195.416 44.2191 193.75 44.2191ZM202.059 48.0826V31.4922H205.354V33.8785H206.149L205.354 34.674C205.354 33.5982 205.649 32.7649 206.24 32.174C206.831 31.568 207.642 31.265 208.672 31.265C209.93 31.265 210.937 31.7119 211.695 32.6058C212.452 33.4846 212.831 34.6664 212.831 36.1512V39.3329C212.831 40.3177 212.657 41.1813 212.308 41.9237C211.975 42.651 211.498 43.2191 210.877 43.6282C210.255 44.0221 209.521 44.2191 208.672 44.2191C207.642 44.2191 206.831 43.9237 206.24 43.3328C205.649 42.7267 205.354 41.8858 205.354 40.8101L206.149 41.6056H205.354L205.468 44.6736V48.0826H202.059ZM207.445 41.2647C208.081 41.2647 208.566 41.0904 208.899 40.7419C209.248 40.3783 209.422 39.8708 209.422 39.2193V36.2648C209.422 35.5982 209.248 35.0906 208.899 34.7421C208.566 34.3937 208.081 34.2194 207.445 34.2194C206.824 34.2194 206.339 34.4012 205.99 34.7649C205.642 35.1133 205.468 35.6133 205.468 36.2648V39.2193C205.468 39.8708 205.642 40.3783 205.99 40.7419C206.339 41.0904 206.824 41.2647 207.445 41.2647ZM215.322 46.4918L223.163 25.1288H226.685L218.845 46.4918H215.322ZM229.313 48.0826V31.4922H232.608V33.8785H233.404L232.608 34.674C232.608 33.5982 232.904 32.7649 233.494 32.174C234.085 31.568 234.896 31.265 235.926 31.265C237.184 31.265 238.191 31.7119 238.949 32.6058C239.706 33.4846 240.085 34.6664 240.085 36.1512V39.3329C240.085 40.3177 239.911 41.1813 239.562 41.9237C239.229 42.651 238.752 43.2191 238.131 43.6282C237.509 44.0221 236.775 44.2191 235.926 44.2191C234.896 44.2191 234.085 43.9237 233.494 43.3328C232.904 42.7267 232.608 41.8858 232.608 40.8101L233.404 41.6056H232.608L232.722 44.6736V48.0826H229.313ZM234.699 41.2647C235.335 41.2647 235.82 41.0904 236.153 40.7419C236.502 40.3783 236.676 39.8708 236.676 39.2193V36.2648C236.676 35.5982 236.502 35.0906 236.153 34.7421C235.82 34.3937 235.335 34.2194 234.699 34.2194C234.078 34.2194 233.593 34.4012 233.244 34.7649C232.896 35.1133 232.722 35.6133 232.722 36.2648V39.2193C232.722 39.8708 232.896 40.3783 233.244 40.7419C233.593 41.0904 234.078 41.2647 234.699 41.2647ZM242.94 43.9918V27.4015H246.349V31.4922L246.235 33.8785H247.235L246.235 34.674C246.235 33.6134 246.538 32.7801 247.144 32.174C247.75 31.568 248.568 31.265 249.599 31.265C250.811 31.265 251.78 31.6892 252.508 32.5377C253.25 33.3861 253.621 34.5149 253.621 35.9239V43.9918H250.212V36.2648C250.212 35.6133 250.038 35.1133 249.69 34.7649C249.356 34.4012 248.879 34.2194 248.258 34.2194C247.652 34.2194 247.182 34.4012 246.849 34.7649C246.515 35.1133 246.349 35.6133 246.349 36.2648V43.9918H242.94ZM256.567 48.0826V31.4922H259.862V33.8785H260.658L259.862 34.674C259.862 33.5982 260.158 32.7649 260.748 32.174C261.339 31.568 262.15 31.265 263.18 31.265C264.438 31.265 265.445 31.7119 266.203 32.6058C266.96 33.4846 267.339 34.6664 267.339 36.1512V39.3329C267.339 40.3177 267.165 41.1813 266.816 41.9237C266.483 42.651 266.006 43.2191 265.385 43.6282C264.764 44.0221 264.029 44.2191 263.18 44.2191C262.15 44.2191 261.339 43.9237 260.748 43.3328C260.158 42.7267 259.862 41.8858 259.862 40.8101L260.658 41.6056H259.862L259.976 44.6736V48.0826H256.567ZM261.953 41.2647C262.589 41.2647 263.074 41.0904 263.408 40.7419C263.756 40.3783 263.93 39.8708 263.93 39.2193V36.2648C263.93 35.5982 263.756 35.0906 263.408 34.7421C263.074 34.3937 262.589 34.2194 261.953 34.2194C261.332 34.2194 260.847 34.4012 260.499 34.7649C260.15 35.1133 259.976 35.6133 259.976 36.2648V39.2193C259.976 39.8708 260.15 40.3783 260.499 40.7419C260.847 41.0904 261.332 41.2647 261.953 41.2647Z" fill="white"/>
</g>
<defs>
<clipPath id="clip0_642_716">
<rect width="277.237" height="70.6612" fill="white" transform="translate(0 0.661224)"/>
</clipPath>
<clipPath id="clip1_642_716">
<rect width="35.5102" height="35.5102" fill="white" transform="translate(7.57544 18.2367)"/>
</clipPath>
</defs>
</svg>
