<svg width="16" height="15" viewBox="0 0 16 15" fill="none" xmlns="http://www.w3.org/2000/svg">
<path d="M5.02214 14.0567C3.17357 14.0567 1.45039 13.5191 0 12.5914C1.23142 12.6711 3.40461 12.4802 4.75633 11.1909C2.7229 11.0976 1.80586 9.53805 1.68625 8.87157C1.85903 8.93822 2.68303 9.0182 3.14819 8.83158C0.809085 8.24509 0.450244 6.19235 0.529987 5.56586C0.96857 5.87244 1.71283 5.97908 2.00522 5.95242C-0.174404 4.39287 0.609729 2.04688 0.99515 1.54036C2.55933 3.7074 4.90354 4.92449 7.80365 4.99219C7.74897 4.75237 7.72009 4.50269 7.72009 4.24625C7.72009 2.40583 9.20766 0.913879 11.0427 0.913879C12.0015 0.913879 12.8654 1.32117 13.4718 1.97264C14.1125 1.82251 15.0767 1.47106 15.5481 1.16714C15.3105 2.02023 14.5708 2.73187 14.1234 2.99564C14.1197 2.98663 14.1271 3.00461 14.1234 2.99564C14.5164 2.93619 15.5799 2.7318 16 2.44677C15.7922 2.92602 15.008 3.72287 14.3644 4.16898C14.4842 9.44991 10.4437 14.0567 5.02214 14.0567Z" fill="#CBD5E1"/>
</svg>
