<svg width="28" height="24" viewBox="0 0 28 24" fill="none" xmlns="http://www.w3.org/2000/svg">
<path d="M8.78874 23.0396C5.55374 23.0396 2.53817 22.0986 0 20.4752C2.15499 20.6146 5.95807 20.2807 8.32358 18.0243C4.76508 17.8611 3.16026 15.1318 2.95094 13.9655C3.25329 14.0821 4.6953 14.2221 5.50934 13.8955C1.4159 12.8692 0.787928 9.27687 0.927477 8.18052C1.695 8.71704 2.99745 8.90365 3.50913 8.85699C-0.305207 6.12779 1.06703 2.02231 1.74151 1.1359C4.47882 4.92822 8.5812 7.05812 13.6564 7.17659C13.5607 6.75691 13.5102 6.31997 13.5102 5.87119C13.5102 2.65047 16.1134 0.0395508 19.3247 0.0395508C21.0025 0.0395508 22.5144 0.752305 23.5757 1.89239C24.6969 1.62966 26.3843 1.01462 27.2092 0.482756C26.7934 1.97566 25.4989 3.22104 24.7159 3.68263C24.7095 3.66686 24.7224 3.69833 24.7159 3.68263C25.4037 3.57859 27.2648 3.22092 28 2.72211C27.6364 3.5608 26.264 4.95528 25.1377 5.73597C25.3473 14.9776 18.2765 23.0396 8.78874 23.0396Z" fill="white"/>
</svg>
