<svg width="171" height="32" viewBox="0 0 171 32" fill="none" xmlns="http://www.w3.org/2000/svg">
<path d="M16.0009 30V24.5767C21.7562 24.5767 26.1833 18.8768 23.9974 12.8448C23.1673 10.6035 21.3965 8.80501 19.1552 8.00259C13.1232 5.81669 7.42326 10.2438 7.42326 15.9991H2C2 6.84047 10.8543 -0.298314 20.4557 2.69001C24.6615 3.99049 27.9818 7.33852 29.2823 11.5166C32.2706 21.1457 25.1595 30 16.0009 30Z" fill="#0080FF"/>
<path fill-rule="evenodd" clip-rule="evenodd" d="M16.0009 24.5767H10.6053V19.1811H16.0009V24.5767Z" fill="#0080FF"/>
<path fill-rule="evenodd" clip-rule="evenodd" d="M10.6053 28.7272H6.45482V24.5767H10.6053V28.7272Z" fill="#0080FF"/>
<path fill-rule="evenodd" clip-rule="evenodd" d="M6.45482 24.5767H2.96844V21.118H6.45482V24.5767Z" fill="#0080FF"/>
<path d="M51.8054 10.1055C50.2006 8.9987 48.2084 8.41764 45.8841 8.41764H40.8206V24.4937H45.8841C48.2084 24.4937 50.2006 23.9127 51.8054 22.7229C52.6909 22.1141 53.3826 21.2287 53.853 20.1496C54.3234 19.0705 54.5724 17.7977 54.5724 16.3588C54.5724 14.9477 54.3234 13.6749 53.853 12.5958C53.3826 11.5443 52.6909 10.6866 51.8054 10.1055ZM43.7812 11.1569H45.3861C47.1569 11.1569 48.6234 11.5166 49.7302 12.1807C50.9477 12.9278 51.5841 14.339 51.5841 16.3588C51.5841 18.4617 50.9477 19.9282 49.7302 20.7307C48.6788 21.4224 47.2123 21.7821 45.4137 21.7821H43.8089V11.1569H43.7812Z" fill="#0080FF"/>
<path d="M58.1141 8.22395C57.6161 8.22395 57.201 8.38997 56.869 8.72201C56.537 9.05404 56.3433 9.46909 56.3433 9.93947C56.3433 10.4375 56.5093 10.8526 56.869 11.1846C57.201 11.5166 57.6161 11.7103 58.1141 11.7103C58.6122 11.7103 59.0272 11.5443 59.3593 11.1846C59.6913 10.8526 59.885 10.4099 59.885 9.93947C59.885 9.44142 59.719 9.02637 59.3593 8.72201C59.0272 8.38997 58.5845 8.22395 58.1141 8.22395Z" fill="#0080FF"/>
<path d="M59.4976 13.1768H56.6476V24.5214H59.4976V13.1768Z" fill="#0080FF"/>
<path d="M69.8738 14.1176C69.016 13.3428 68.0476 12.9001 67.0238 12.9001C65.4466 12.9001 64.1461 13.4535 63.1223 14.505C62.0986 15.5564 61.6005 16.9399 61.6005 18.5724C61.6005 20.1773 62.0986 21.5331 63.1223 22.6399C64.1461 23.6913 65.4466 24.2447 67.0238 24.2447C68.1306 24.2447 69.0713 23.9403 69.8461 23.3316V23.6083C69.8461 24.5491 69.5971 25.2685 69.099 25.7942C68.6009 26.2923 67.9092 26.5413 67.0514 26.5413C65.7233 26.5413 64.9209 26.0156 63.8971 24.6597L61.9602 26.5136L62.0156 26.5966C62.4306 27.1777 63.067 27.7588 63.9248 28.3121C64.7825 28.8655 65.834 29.1422 67.1068 29.1422C68.7946 29.1422 70.1781 28.6165 71.1742 27.5927C72.198 26.569 72.6961 25.1855 72.6961 23.47V13.1768H69.9014V14.1176H69.8738ZM69.1267 20.8137C68.6286 21.3671 67.9922 21.6438 67.1621 21.6438C66.332 21.6438 65.6956 21.3671 65.2252 20.8137C64.7272 20.2603 64.4782 19.5132 64.4782 18.6001C64.4782 17.687 64.7272 16.9122 65.2252 16.3588C65.7233 15.8054 66.3597 15.5011 67.1621 15.5011C67.9922 15.5011 68.6286 15.7778 69.1267 16.3588C69.6247 16.9122 69.8738 17.687 69.8738 18.6001C69.8738 19.5132 69.5971 20.2603 69.1267 20.8137Z" fill="#0080FF"/>
<path d="M77.9533 13.1768H75.1033V24.5214H77.9533V13.1768Z" fill="#0080FF"/>
<path d="M76.5698 8.22395C76.0718 8.22395 75.6567 8.38997 75.3247 8.72201C74.9926 9.05404 74.799 9.46909 74.799 9.93947C74.799 10.4375 74.965 10.8526 75.3247 11.1846C75.6567 11.5166 76.0718 11.7103 76.5698 11.7103C77.0679 11.7103 77.4829 11.5443 77.815 11.1846C78.147 10.8526 78.3407 10.4099 78.3407 9.93947C78.3407 9.44142 78.1747 9.02637 77.815 8.72201C77.4829 8.38997 77.0402 8.22395 76.5698 8.22395Z" fill="#0080FF"/>
<path d="M81.412 10.1332V13.2045H79.7795V15.8054H81.412V20.5093C81.412 21.9758 81.7164 23.0272 82.2974 23.636C82.8785 24.2447 83.9023 24.5491 85.3688 24.5491C85.8392 24.5491 86.3095 24.5214 86.7523 24.4937H86.8906V21.8928L85.9222 21.9481C85.2304 21.9481 84.7877 21.8374 84.5664 21.5884C84.345 21.3394 84.2343 20.8413 84.2343 20.0943V15.7778H86.8906V13.1768H84.2343V10.1332H81.412Z" fill="#0080FF"/>
<path d="M103.077 8.41764H100.227V24.4937H103.077V8.41764Z" fill="#0080FF"/>
<path d="M131.882 20.454C131.383 21.035 130.858 21.5331 130.443 21.7821C130.055 22.0311 129.557 22.1695 128.976 22.1695C128.146 22.1695 127.454 21.8651 126.901 21.2287C126.348 20.5923 126.071 19.7899 126.071 18.8214C126.071 17.853 126.348 17.0506 126.873 16.4418C127.427 15.8054 128.091 15.5011 128.921 15.5011C129.834 15.5011 130.802 16.0821 131.633 17.0506L133.514 15.2521C132.297 13.6472 130.719 12.9001 128.838 12.9001C127.261 12.9001 125.905 13.4812 124.798 14.588C123.691 15.6948 123.138 17.1336 123.138 18.8214C123.138 20.5093 123.691 21.9204 124.798 23.0549C125.905 24.1894 127.261 24.7428 128.838 24.7428C130.913 24.7428 132.573 23.8573 133.68 22.2248L131.882 20.454Z" fill="#0080FF"/>
<path d="M143.586 14.754C143.171 14.2006 142.617 13.7302 141.953 13.3982C141.262 13.0661 140.487 12.9001 139.601 12.9001C137.997 12.9001 136.696 13.4812 135.728 14.6433C134.787 15.8054 134.289 17.2166 134.289 18.9045C134.289 20.62 134.815 22.0311 135.866 23.1379C136.89 24.217 138.301 24.7704 139.989 24.7704C141.898 24.7704 143.503 23.9957 144.665 22.4462L144.72 22.3632L142.866 20.5646C142.7 20.786 142.451 21.0073 142.23 21.2287C141.953 21.5054 141.677 21.6991 141.4 21.8374C140.985 22.0588 140.487 22.1418 139.961 22.1418C139.159 22.1418 138.522 21.9204 138.024 21.4501C137.554 21.035 137.277 20.454 137.222 19.7345H144.776L144.803 18.6831C144.803 17.936 144.693 17.2443 144.499 16.5802C144.305 15.9438 144.001 15.3351 143.586 14.754ZM137.36 17.438C137.498 16.8846 137.747 16.4418 138.107 16.0821C138.495 15.6948 138.993 15.5011 139.601 15.5011C140.293 15.5011 140.819 15.6948 141.179 16.0821C141.511 16.4418 141.704 16.8846 141.76 17.4103H137.36V17.438Z" fill="#0080FF"/>
<path d="M154.543 14.0346C153.685 13.2875 152.495 12.9278 151.001 12.9278C150.061 12.9278 149.175 13.1492 148.373 13.5365C147.626 13.9239 146.906 14.5326 146.436 15.3627L146.463 15.3904L148.29 17.1336C149.037 15.9438 149.867 15.5287 150.974 15.5287C151.582 15.5287 152.053 15.6948 152.44 15.9991C152.827 16.3035 152.994 16.7185 152.994 17.2166V17.77C152.274 17.5486 151.582 17.438 150.891 17.438C149.479 17.438 148.317 17.77 147.46 18.4341C146.602 19.0981 146.159 20.0666 146.159 21.2564C146.159 22.3078 146.519 23.1933 147.266 23.8297C148.013 24.4384 148.926 24.7704 150.005 24.7704C151.084 24.7704 152.108 24.3277 153.021 23.5806V24.5214H155.816V17.2166C155.871 15.8608 155.428 14.7817 154.543 14.0346ZM149.479 20.1773C149.811 19.9559 150.254 19.8452 150.835 19.8452C151.527 19.8452 152.246 19.9836 152.994 20.2603V21.3671C152.385 21.9481 151.555 22.2248 150.531 22.2248C150.033 22.2248 149.645 22.1141 149.396 21.8928C149.147 21.6714 149.009 21.4224 149.009 21.0627C149.009 20.703 149.175 20.3986 149.479 20.1773Z" fill="#0080FF"/>
<path d="M166.828 14.2559C166.026 13.3705 164.919 12.9278 163.508 12.9278C162.374 12.9278 161.46 13.2598 160.769 13.8962V13.2045H157.974V24.5491H160.824V18.268C160.824 17.4103 161.018 16.7185 161.433 16.2482C161.848 15.7501 162.374 15.5287 163.121 15.5287C163.757 15.5287 164.255 15.7501 164.615 16.1652C164.974 16.6079 165.168 17.1889 165.168 17.936V24.4937H168.018V17.936C168.018 16.3865 167.631 15.1414 166.828 14.2559Z" fill="#0080FF"/>
<path d="M96.658 14.0346C95.8003 13.2875 94.6105 12.9278 93.1163 12.9278C92.1755 12.9278 91.2901 13.1492 90.4877 13.5365C89.7406 13.9239 89.0212 14.5326 88.5508 15.3627L88.5785 15.3904L90.4047 17.1336C91.1517 15.9438 91.9818 15.5287 93.0886 15.5287C93.6974 15.5287 94.1677 15.6948 94.5551 15.9991C94.9425 16.3035 95.1085 16.7185 95.1085 17.2166V17.77C94.3891 17.5486 93.6974 17.438 93.0056 17.438C91.5945 17.438 90.4323 17.77 89.5746 18.4341C88.7168 19.0981 88.2741 20.0666 88.2741 21.2564C88.2741 22.3078 88.6338 23.1933 89.3809 23.8297C90.128 24.4384 91.0411 24.7704 92.1202 24.7704C93.1993 24.7704 94.2231 24.3277 95.1362 23.5806V24.5214H97.9308V17.2166C97.9585 15.8608 97.5158 14.7817 96.658 14.0346ZM91.5945 20.1773C91.9265 19.9559 92.3692 19.8452 92.9503 19.8452C93.642 19.8452 94.3614 19.9836 95.1085 20.2603V21.3671C94.4998 21.9481 93.6697 22.2248 92.6459 22.2248C92.1479 22.2248 91.7605 22.1141 91.5115 21.8928C91.2624 21.6714 91.1241 21.4224 91.1241 21.0627C91.1241 20.703 91.2624 20.3986 91.5945 20.1773Z" fill="#0080FF"/>
<path d="M113.426 24.7428C108.86 24.7428 105.125 21.035 105.125 16.4418C105.125 11.8487 108.833 8.14094 113.426 8.14094C117.991 8.14094 121.727 11.8487 121.727 16.4418C121.727 21.035 117.991 24.7428 113.426 24.7428ZM113.426 11.1016C110.465 11.1016 108.058 13.5089 108.058 16.4695C108.058 19.4302 110.465 21.8374 113.426 21.8374C116.387 21.8374 118.794 19.4302 118.794 16.4695C118.794 13.5089 116.387 11.1016 113.426 11.1016Z" fill="#0080FF"/>
</svg>
