<svg width="32" height="32" viewBox="0 0 32 32" fill="none" xmlns="http://www.w3.org/2000/svg">
<path d="M15.9941 30V24.5737C21.7376 24.5737 26.1961 18.8777 23.9907 12.8327C23.1815 10.5955 21.3886 8.80266 19.1514 7.99348C13.1064 5.80393 7.4104 10.2465 7.4104 15.9901H2C2 6.83524 10.8534 -0.304584 20.4525 2.69414C24.6412 4.01104 27.989 7.34296 29.29 11.5317C32.2887 21.1466 25.1648 30 15.9941 30Z" fill="#0080FF"/>
<path d="M16.0099 24.5896H10.6154V19.1951H16.0099V24.5896Z" fill="#0080FF"/>
<path d="M10.6154 28.7466H6.45842V24.5896H10.6154V28.7466Z" fill="#0080FF"/>
<path d="M6.45842 24.5896H2.98371V21.1149H6.45842V24.5896Z" fill="#0080FF"/>
</svg>
