<svg width="233" height="32" viewBox="0 0 233 32" fill="none" xmlns="http://www.w3.org/2000/svg">
<path d="M221.029 19.769C223.107 19.41 225.065 18.5457 226.73 17.2521C227.489 16.4572 228.071 15.5095 228.435 14.4723C228.8 13.4351 228.939 12.3321 228.844 11.2369C228.85 9.43356 228.353 7.6643 227.409 6.12764C226.724 4.95825 225.757 3.9786 224.596 3.27758C223.436 2.57655 222.119 2.17634 220.765 2.11326H219.393L216.184 2H201.662C200.781 2 200.404 2.36494 200.404 3.25843V28.7038C200.404 29.5847 200.769 29.9622 201.662 29.9622H205.437C206.318 29.9622 206.696 29.5973 206.696 28.7038V20.2724H211.314C212.33 20.3254 213.295 20.7303 214.045 21.4175L221.369 28.7793C222.037 29.4621 222.933 29.8744 223.886 29.9371H229.511C230.392 29.9371 230.606 29.4211 229.989 28.7919L221.029 19.769ZM220.073 14.3578H206.671V7.93978H220.073C220.73 8.0205 221.334 8.34158 221.768 8.84114C222.203 9.3407 222.437 9.9834 222.426 10.6454V11.6396C222.438 12.3029 222.204 12.9472 221.769 13.4489C221.335 13.9505 220.731 14.2741 220.073 14.3578Z" fill="#D50C2D"/>
<path d="M194.539 24.0476H173.738V18.8H190.336C191.217 18.8 191.595 18.4351 191.595 17.5416V14.4836C191.595 13.6027 191.23 13.2252 190.336 13.2252H173.725V7.99011H194.539C195.42 7.99011 195.798 7.62517 195.798 6.73169V3.25843C195.798 2.37753 195.433 2 194.539 2H168.591C167.71 2 167.332 2.36494 167.332 3.25843V28.729C167.332 29.6099 167.697 29.9874 168.591 29.9874H194.539C195.42 29.9874 195.798 29.6225 195.798 28.729V25.2935C195.798 24.4126 195.382 24.0476 194.539 24.0476Z" fill="#D50C2D"/>
<path d="M162.739 11.1865C162.766 9.40579 162.272 7.65596 161.317 6.15281C160.626 4.95441 159.648 3.94709 158.47 3.22198C157.293 2.49688 155.953 2.07688 154.572 2H135.494C134.6 2 134.236 2.36494 134.236 3.25843V28.7038C134.236 29.5847 134.6 29.9622 135.494 29.9622H139.596C140.477 29.9622 140.855 29.6099 140.855 28.7038V7.95236H151.904C154.257 7.95236 156.547 9.51281 156.547 11.8661V28.729C156.547 29.6099 156.912 29.9874 157.806 29.9874H161.518C162.412 29.9874 162.777 29.6225 162.777 28.729L162.739 11.1865Z" fill="#D50C2D"/>
<path d="M128.434 23.884H110.502L128.472 8.09079C128.832 7.81479 129.131 7.46597 129.348 7.06703C129.564 6.66808 129.695 6.22795 129.73 5.77528V3.25843C129.73 2.37753 129.353 2 128.472 2H102.46C101.579 2 101.202 2.36494 101.202 3.25843V6.74427C101.202 7.62517 101.567 8.0027 102.46 8.0027H119.134L102.41 23.6953C102.052 23.974 101.756 24.3234 101.539 24.7218C101.323 25.1202 101.191 25.559 101.151 26.0108V28.7416C101.151 29.6225 101.516 30 102.41 30H128.396C129.277 30 129.655 29.6351 129.655 28.7416V25.1299C129.68 24.249 129.315 23.884 128.434 23.884Z" fill="#D50C2D"/>
<path d="M95.3627 2H69.3888C68.4953 2 68.1303 2.35236 68.1303 3.25843V6.73169C68.1303 7.61258 68.4827 7.99011 69.3888 7.99011H79.1793V28.729C79.1793 29.6099 79.5443 29.9874 80.4378 29.9874H84.5906C85.4715 29.9874 85.849 29.6225 85.849 28.729V7.97753H95.3753C96.2562 7.97753 96.6337 7.61258 96.6337 6.7191V3.25843C96.6085 2.4027 96.2436 2 95.3627 2Z" fill="#D50C2D"/>
<path d="M62.2912 24.0476H41.5272V18.8H58.1258C59.0067 18.8 59.3843 18.4351 59.3843 17.5416V14.4836C59.3843 13.6027 59.0319 13.2252 58.1258 13.2252H41.5272V7.99011H62.2912C63.1721 7.99011 63.5497 7.62517 63.5497 6.73169V3.25843C63.5497 2.37753 63.1847 2 62.2912 2H36.3928C35.5119 2 35.1344 2.36494 35.1344 3.25843V28.729C35.1344 29.6099 35.4993 29.9874 36.3928 29.9874H62.2912C63.1721 29.9874 63.5497 29.6225 63.5497 28.729V25.2935C63.5371 24.4126 63.1721 24.0476 62.2912 24.0476Z" fill="#D50C2D"/>
<path d="M29.2198 2H25.3061C24.4252 2 24.0476 2.36494 24.0476 3.25843V13.1622H8.45573V3.25843C8.45573 2.37753 8.09079 2 7.1973 2H3.25843C2.36494 2 2 2.36494 2 3.25843V28.7416C2 29.6351 2.36494 30 3.25843 30H7.1973C8.0782 30 8.45573 29.6476 8.45573 28.7416V18.6742H24.0602V28.7416C24.0602 29.6225 24.4252 30 25.3187 30H29.2324C30.1133 30 30.4908 29.6351 30.4908 28.7416V3.25843C30.4656 2.4027 30.1007 2 29.2198 2Z" fill="#D50C2D"/>
</svg>
