<svg width="32" height="32" viewBox="0 0 32 32" fill="none" xmlns="http://www.w3.org/2000/svg">
<path d="M28.7509 2H24.9046C24.0389 2 23.6678 2.35866 23.6678 3.23675V12.97H8.34452V3.23675C8.34452 2.37102 7.98587 2 7.10777 2H3.23675C2.35866 2 2 2.35866 2 3.23675V28.2809C2 29.159 2.35866 29.5177 3.23675 29.5177H7.10777C7.9735 29.5177 8.34452 29.1714 8.34452 28.2809V18.3869H23.6802V28.2809C23.6802 29.1466 24.0389 29.5177 24.917 29.5177H28.7633C29.629 29.5177 30 29.159 30 28.2809V3.23675C29.9753 2.39576 29.6166 2 28.7509 2Z" fill="#D50C2D"/>
</svg>
