<svg width="32" height="32" viewBox="0 0 32 32" fill="none" xmlns="http://www.w3.org/2000/svg">
<path d="M2 7.50722C2 4.46568 4.46568 2 7.50722 2H24.4928C27.5343 2 30 4.46568 30 7.50722V24.4928C30 27.5343 27.5343 30 24.4928 30H7.50722C4.46568 30 2 27.5343 2 24.4928V7.50722Z" fill="#FA7216"/>
<path d="M9.87502 11.1509H12.8524V13.0592C12.8524 13.4846 12.8524 14.4158 13.621 14.4158H19.1428L21.6531 16.9621C21.6751 16.9922 21.7085 17.0205 21.7474 17.0536C21.8941 17.1784 22.1201 17.3706 22.1201 17.9795V20.8764H19.1428V18.9681C19.1428 18.5428 19.1428 17.6116 18.3741 17.6116H12.8232L10.342 15.0653C10.32 15.0352 10.2867 15.0068 10.2478 14.9738C10.101 14.849 9.87502 14.6568 9.87502 14.0479V11.1509Z" fill="white"/>
<path d="M12.8524 7.85157V11.1509H19.1573V7.85157H12.8524ZM12.8232 20.8764V24.1758H19.1573V20.8764H12.8232Z" fill="white"/>
<path d="M19.1573 11.1509L19.1428 14.4158H22.125L22.1201 11.1509H19.1573ZM9.87502 17.6116V20.8764H12.8232V17.6116H9.87502Z" fill="white"/>
</svg>
