<svg width="90" height="32" viewBox="0 0 90 32" fill="none" xmlns="http://www.w3.org/2000/svg">
<path d="M9.76017 5.50459H23.7285V26.432H9.76017V5.50459Z" fill="white"/>
<path d="M2 7.50722C2 4.46568 4.46568 2 7.50722 2H24.4928C27.5343 2 30 4.46568 30 7.50722V24.4928C30 27.5343 27.5343 30 24.4928 30H7.50722C4.46568 30 2 27.5343 2 24.4928V7.50722Z" fill="#FA7216"/>
<path d="M9.87502 11.1509H12.8524V13.0592C12.8524 13.4846 12.8524 14.4158 13.621 14.4158H19.1428L21.6531 16.9621C21.6751 16.9922 21.7085 17.0205 21.7474 17.0536C21.8941 17.1784 22.1201 17.3706 22.1201 17.9795V20.8764H19.1428V18.9681C19.1428 18.5428 19.1428 17.6116 18.3741 17.6116H12.8232L10.342 15.0653C10.32 15.0352 10.2867 15.0068 10.2478 14.9738C10.101 14.849 9.87502 14.6568 9.87502 14.0479V11.1509Z" fill="white"/>
<path d="M12.8524 7.85157V11.1509H19.1573V7.85157H12.8524ZM12.8232 20.8764V24.1758H19.1573V20.8764H12.8232Z" fill="white"/>
<path d="M19.1573 11.1509L19.1428 14.4158H22.125L22.1201 11.1509H19.1573ZM9.87502 17.6116V20.8764H12.8232V17.6116H9.87502Z" fill="white"/>
<path d="M39.7791 21.9812C38.3909 21.9812 37.2829 21.6794 36.4552 21.0759C35.636 20.4637 35.1876 19.6186 35.11 18.5408H37.1407C37.2096 19.1444 37.4726 19.6014 37.9296 19.9118C38.3952 20.2222 39.0333 20.3774 39.8438 20.3774C40.5766 20.3774 41.1285 20.2567 41.4993 20.0153C41.8787 19.7653 42.0684 19.4031 42.0684 18.9288C42.0684 18.5581 41.9433 18.2606 41.6933 18.0364C41.4519 17.8036 41.0682 17.6355 40.5422 17.532L38.4211 17.1052C37.4726 16.9069 36.7569 16.5706 36.2741 16.0964C35.7999 15.6222 35.5627 15.01 35.5627 14.2598C35.5627 13.3027 35.9206 12.5526 36.6362 12.0094C37.3519 11.4662 38.3305 11.1946 39.5721 11.1946C40.8225 11.1946 41.8313 11.4791 42.5986 12.0482C43.3746 12.6172 43.8144 13.4148 43.9178 14.4409H41.8873C41.6286 13.32 40.8181 12.7595 39.4557 12.7595C38.8436 12.7595 38.3607 12.8759 38.0072 13.1087C37.6623 13.3329 37.4899 13.6562 37.4899 14.0787C37.4899 14.7427 37.9641 15.1738 38.9125 15.3721L41.1113 15.8119C42.0942 16.0102 42.8185 16.3551 43.2841 16.8466C43.7583 17.3294 43.9954 17.9718 43.9954 18.7736C43.9954 19.7911 43.6247 20.5801 42.8832 21.1405C42.1503 21.701 41.1156 21.9812 39.7791 21.9812ZM49.1465 21.9812C48.3187 21.9812 47.5945 21.8174 46.9736 21.4897C46.3614 21.1535 45.8872 20.6835 45.5509 20.0799C45.2233 19.4678 45.0594 18.7478 45.0594 17.92C45.0594 17.0923 45.2233 16.3809 45.5509 15.786C45.8786 15.1824 46.3442 14.7211 46.9478 14.4021C47.5514 14.0744 48.2584 13.9106 49.0689 13.9106C49.8621 13.9106 50.5433 14.0658 51.1124 14.3762C51.6815 14.678 52.1212 15.1178 52.4316 15.6954C52.742 16.2645 52.8972 16.9414 52.8972 17.726V18.3986H46.909C46.9866 19.0539 47.2151 19.5583 47.5945 19.9118C47.9825 20.2567 48.4955 20.4292 49.1335 20.4292C49.6078 20.4292 49.9915 20.3429 50.2846 20.1705C50.5864 19.9894 50.7977 19.7221 50.9184 19.3686H52.8587C52.6774 20.1877 52.2594 20.8301 51.6039 21.2957C50.9572 21.7527 50.1381 21.9812 49.1465 21.9812ZM46.9607 17.0923H51.0477C50.9787 16.5577 50.7718 16.1524 50.4269 15.8765C50.0906 15.592 49.6379 15.4497 49.0689 15.4497C48.5084 15.4497 48.0471 15.592 47.685 15.8765C47.3228 16.161 47.0814 16.5663 46.9607 17.0923ZM56.5155 21.826L53.1916 14.0658H55.2223L57.5243 19.6531H57.5763L59.8393 14.0658H61.8184L58.4945 21.826H56.5155ZM64.9946 21.9683C64.0894 21.9683 63.3779 21.7484 62.8608 21.3087C62.3521 20.8689 62.0978 20.2869 62.0978 19.5626C62.0978 18.8038 62.3561 18.2175 62.8738 17.8036C63.3995 17.3897 64.154 17.1828 65.1373 17.1828H67.5039V16.8724C67.5039 15.924 66.9521 15.4497 65.8482 15.4497C64.9085 15.4497 64.3437 15.786 64.154 16.4586H62.2269C62.3907 15.6308 62.7832 15.0013 63.404 14.5702C64.0248 14.1305 64.8394 13.9106 65.8482 13.9106C66.9867 13.9106 67.8533 14.1693 68.4481 14.6866C69.0429 15.1953 69.3403 15.9412 69.3403 16.9242V19.8989H70.259V21.826H68.2799V20.5844H67.7367C67.4693 21.0241 67.1073 21.3647 66.6502 21.6061C66.2022 21.8476 65.6499 21.9683 64.9946 21.9683ZM65.2794 20.4809C65.702 20.4809 66.081 20.4033 66.4174 20.2481C66.7539 20.0843 67.0167 19.8687 67.2065 19.6014C67.4047 19.3255 67.5039 19.0194 67.5039 18.6831V18.502H65.2404C64.3697 18.502 63.9342 18.8254 63.9342 19.4721C63.9342 19.7911 64.0508 20.0411 64.2836 20.2222C64.525 20.3947 64.8569 20.4809 65.2794 20.4809ZM71.7414 21.826V10.9617H73.6684V21.826H71.7414ZM75.5915 21.826V10.9617H77.5185V21.826H75.5915ZM81.8336 21.9683C80.9284 21.9683 80.217 21.7484 79.6998 21.3087C79.1912 20.8689 78.9368 20.2869 78.9368 19.5626C78.9368 18.8038 79.1952 18.2175 79.7129 17.8036C80.2385 17.3898 80.993 17.1828 81.9758 17.1828H84.3429V16.8724C84.3429 15.924 83.7912 15.4497 82.6873 15.4497C81.7475 15.4497 81.1828 15.786 80.993 16.4586H79.066C79.2297 15.6308 79.6222 15.0013 80.2431 14.5702C80.8639 14.1305 81.6784 13.9106 82.6873 13.9106C83.8257 13.9106 84.6919 14.1693 85.2872 14.6866C85.882 15.1953 86.1793 15.9412 86.1793 16.9242V19.8989H87.0975V21.826H85.1189V20.5844H84.5757C84.3084 21.0241 83.9464 21.3647 83.4893 21.6061C83.0407 21.8476 82.489 21.9683 81.8336 21.9683ZM82.1185 20.4809C82.5406 20.4809 82.9201 20.4033 83.2565 20.2481C83.5929 20.0843 83.8558 19.8687 84.0455 19.6014C84.2438 19.3255 84.3429 19.0194 84.3429 18.6831V18.502H82.0795C81.2088 18.502 80.7732 18.8254 80.7732 19.4721C80.7732 19.7911 80.8894 20.0411 81.1222 20.2222C81.364 20.3947 81.696 20.4809 82.1185 20.4809ZM60.8847 28.7741C60.724 28.7741 60.5863 28.7448 60.4711 28.6862C60.3579 28.6273 60.264 28.5369 60.2008 28.4259H60.0646V28.735H59.6025V28.2892H59.8268V26.0015H60.2694V27.0754H60.2824C60.341 26.9691 60.4246 26.8877 60.5327 26.8313C60.6434 26.7727 60.7725 26.7434 60.9202 26.7434C61.107 26.7434 61.2662 26.7846 61.3989 26.8671C61.533 26.9496 61.6352 27.0678 61.7048 27.2218C61.7764 27.3737 61.8119 27.5526 61.8119 27.7588C61.8119 27.9649 61.7748 28.1439 61.7012 28.2957C61.6297 28.4476 61.5245 28.5658 61.3858 28.6504C61.2492 28.7329 61.0819 28.7741 60.8847 28.7741ZM60.8061 28.3933C60.9883 28.3933 61.1275 28.3369 61.2231 28.2241C61.3208 28.1113 61.3693 27.9562 61.3693 27.7588C61.3693 27.5614 61.3208 27.4062 61.2231 27.2934C61.1275 27.1806 60.9883 27.1242 60.8061 27.1242C60.6434 27.1242 60.5137 27.1708 60.4161 27.2641C60.3184 27.3574 60.2694 27.4832 60.2694 27.6416V27.8759C60.2694 28.0343 60.3184 28.1601 60.4161 28.2534C60.5137 28.3467 60.6434 28.3933 60.8061 28.3933ZM62.1323 29.5161V29.1614H62.5844L62.7636 28.7318L61.9045 26.7825H62.3666L62.9814 28.2144H62.998L63.5902 26.7825H64.0328L63.1997 28.735L63.0205 29.1581C62.9729 29.2709 62.9208 29.3588 62.8643 29.4217C62.8102 29.4846 62.7201 29.5161 62.5944 29.5161H62.1323ZM65.8687 29.0101H66.8009V27.4588H68.4631C68.6704 27.4588 68.7735 27.5513 68.7735 27.7362V29.0101H69.7057V27.9074C69.7057 27.6227 69.6517 27.3987 69.5425 27.2348C69.4339 27.0714 69.2582 26.9513 69.0143 26.8757C69.2371 26.7807 69.4079 26.621 69.527 26.3952C69.6462 26.17 69.7052 25.8961 69.7052 25.5736V25.4811H68.773V25.6444C68.773 26 68.6879 26.2637 68.5167 26.4342C68.3455 26.6048 68.0786 26.6907 67.7171 26.6907H66.8004V24.8337H65.8687V29.0101ZM70.8858 25.2037C71.057 25.2037 71.1967 25.1562 71.3053 25.0613C71.4145 24.9664 71.4686 24.8433 71.4686 24.6913C71.4686 24.5394 71.4155 24.4163 71.3093 24.3214C71.2032 24.2265 71.0625 24.1791 70.8858 24.1791C70.7096 24.1791 70.5754 24.2265 70.4662 24.3214C70.3576 24.4163 70.303 24.5394 70.303 24.6913C70.303 24.8433 70.3576 24.9664 70.4662 25.0613C70.5754 25.1562 70.7151 25.2037 70.8858 25.2037ZM85.8834 28.2846H84.4075C84.2002 28.2846 84.0971 28.1921 84.0971 28.0071V26.4846C84.0971 26.2997 84.2002 26.2072 84.4075 26.2072H85.8834C86.0902 26.2072 86.1939 26.2997 86.1939 26.4846V28.0071C86.1939 28.1921 86.0902 28.2846 85.8834 28.2846ZM84.9432 29.1097C85.2276 29.1097 85.4734 29.0683 85.6812 28.9854C85.8885 28.9026 86.0772 28.771 86.2484 28.5903V29.0101H87.1261V25.4811H86.2484V25.9009C86.0772 25.7207 85.8885 25.5892 85.6812 25.5057C85.4744 25.4229 85.2286 25.3814 84.9432 25.3814C84.3579 25.3814 83.9024 25.5508 83.5764 25.8901C83.25 26.2294 83.0873 26.6811 83.0873 27.2456C83.0873 27.8101 83.2505 28.2618 83.5764 28.6011C83.9029 28.9404 84.3655 29.1097 84.9432 29.1097ZM82.147 29.0101H82.9471V28.2558H82.108C81.9007 28.2558 81.7971 28.1633 81.7971 27.9783V26.2348H82.9466V25.4805H81.7971V24.719H80.943V25.1814C80.943 25.3808 80.8393 25.4805 80.6321 25.4805H80.1119V26.2348H80.8649V27.8569C80.8649 28.2173 80.9775 28.4996 81.2023 28.7038C81.4281 28.908 81.742 29.0095 82.146 29.0095M76.5928 29.0095H78.4257C79.4766 29.0095 80.0022 28.6667 80.0022 27.9777C80.0022 27.6648 79.9001 27.4264 79.6953 27.2624C79.4911 27.099 79.1531 26.9861 78.682 26.9243L77.905 26.8174C77.6822 26.7843 77.5375 26.7495 77.4704 26.7141C77.4028 26.6786 77.3693 26.6156 77.3693 26.5255V26.4613C77.3693 26.3808 77.3933 26.3225 77.4399 26.2871C77.4859 26.2516 77.566 26.2336 77.6802 26.2336H79.7459V25.4793H78.0377C77.509 25.4793 77.1104 25.5682 76.8411 25.746C76.5717 25.9238 76.4371 26.1886 76.4371 26.5393C76.4371 26.8432 76.5422 27.0756 76.752 27.2366C76.9618 27.3981 77.3047 27.5116 77.7813 27.5783L78.5343 27.678C78.695 27.6972 78.8112 27.7159 78.8838 27.735C78.9559 27.7543 79.0059 27.7801 79.0315 27.8131C79.057 27.8462 79.07 27.8936 79.07 27.9555V28.0263C79.07 28.1068 79.045 28.165 78.9959 28.2005C78.9469 28.2359 78.8683 28.254 78.7591 28.254H76.5928V29.0095ZM72.1269 29.0095H73.0591V26.4834C73.0591 26.2985 73.1628 26.206 73.37 26.206H74.7288C74.9361 26.206 75.0397 26.2985 75.0397 26.4834V29.0095H75.972V26.6048C75.972 26.2348 75.8388 25.9381 75.5719 25.7153C75.3051 25.4925 74.9236 25.3808 74.4264 25.3808C74.1265 25.3808 73.8532 25.4259 73.6074 25.5159C73.3615 25.606 73.1608 25.734 73.0056 25.9003V25.4805H72.1274L72.1269 29.0095ZM70.4187 29.0095H71.3509V25.4811H70.4187V29.0095Z" fill="white"/>
</svg>
