<svg width="32" height="32" viewBox="0 0 32 32" fill="none" xmlns="http://www.w3.org/2000/svg">
<path d="M11.7533 4.66667C11.6296 4.4643 11.4563 4.29686 11.2499 4.18019C11.0434 4.06353 10.8105 4.00151 10.5733 4H3.4C3.0287 4 2.6726 4.1475 2.41005 4.41005C2.1475 4.6726 2 5.0287 2 5.4C2 5.66393 2.0739 5.92258 2.21333 6.14667L3.68667 8.48L13.2267 6.98667L11.7533 4.66667Z" fill="#007BFC"/>
<path d="M13.2267 6.98667C13.1019 6.78378 12.9275 6.61607 12.7198 6.49942C12.5122 6.38276 12.2782 6.32101 12.04 6.32H4.87333C4.50203 6.32 4.14593 6.4675 3.88338 6.73005C3.62083 6.9926 3.47333 7.3487 3.47333 7.72C3.46879 7.98454 3.54305 8.24446 3.68667 8.46667L5.74667 11.7333L15.2867 10.24L13.2267 6.98667Z" fill="#51B9FF"/>
<path d="M5.74667 11.7467C5.60305 11.5245 5.52879 11.2645 5.53333 11C5.53333 10.6287 5.68083 10.2726 5.94338 10.0101C6.20593 9.7475 6.56203 9.6 6.93333 9.6H14.1C14.3382 9.60101 14.5722 9.66276 14.7798 9.77942C14.9875 9.89607 15.1619 10.0638 15.2867 10.2667L21.7 20.4467C21.846 20.6681 21.9226 20.9281 21.92 21.1933C21.9198 21.4582 21.8435 21.7174 21.7 21.94L18.12 27.6267C17.9929 27.8263 17.8176 27.9906 17.6102 28.1045C17.4027 28.2183 17.1699 28.278 16.9333 28.278C16.6967 28.278 16.4639 28.2183 16.2565 28.1045C16.0491 27.9906 15.8737 27.8263 15.7467 27.6267L5.74667 11.7467Z" fill="white"/>
<path d="M23.8267 14.7933C23.9537 14.9929 24.1291 15.1573 24.3365 15.2711C24.5439 15.385 24.7767 15.4447 25.0133 15.4447C25.2499 15.4447 25.4827 15.385 25.6902 15.2711C25.8976 15.1573 26.0729 14.9929 26.2 14.7933L29.7867 9.10667C29.9261 8.88258 30 8.62393 30 8.36C29.9989 8.09622 29.9251 7.83785 29.7867 7.61333L27.92 4.66667C27.7948 4.46421 27.6202 4.29685 27.4127 4.18025C27.2051 4.06365 26.9714 4.00163 26.7333 4H19.56C19.3761 4 19.1941 4.03621 19.0242 4.10657C18.8544 4.17693 18.7001 4.28005 18.5701 4.41005C18.44 4.54005 18.3369 4.69439 18.2666 4.86424C18.1962 5.0341 18.16 5.21615 18.16 5.4C18.1574 5.66523 18.234 5.9252 18.38 6.14667L23.8267 14.7933Z" fill="white"/>
</svg>
