<svg width="122" height="36" viewBox="0 0 122 36" fill="none" xmlns="http://www.w3.org/2000/svg">
<path d="M119.001 24.3255L116.056 19.2482C117.026 18.8348 117.824 18.0988 118.314 17.1649C118.804 16.2309 118.957 15.1562 118.746 14.1227C118.535 13.0892 117.974 12.1602 117.157 11.493C116.34 10.8258 115.317 10.4613 114.263 10.4611H107.802C107.587 10.4611 107.382 10.5462 107.23 10.6976C107.079 10.8491 106.994 11.0545 106.994 11.2687V24.7293C106.994 24.9435 107.079 25.1489 107.23 25.3004C107.382 25.4519 107.587 25.537 107.802 25.537H108.34C108.554 25.537 108.76 25.4519 108.911 25.3004C109.063 25.1489 109.148 24.9435 109.148 24.7293V19.6143H113.853L117.057 25.1331C117.128 25.2572 117.231 25.36 117.355 25.431C117.479 25.502 117.62 25.5386 117.762 25.537H118.301C118.515 25.537 118.72 25.4519 118.872 25.3004C119.023 25.1489 119.108 24.9435 119.108 24.7293C119.109 24.5875 119.072 24.4481 119.001 24.3255ZM109.148 12.6148H114.263C114.905 12.6148 115.521 12.8701 115.976 13.3244C116.43 13.7788 116.686 14.3951 116.686 15.0377C116.686 15.6803 116.43 16.2966 115.976 16.7509C115.521 17.2053 114.905 17.4606 114.263 17.4606H109.148V12.6148Z" fill="white"/>
<path d="M102.417 10.4611H91.1104C90.8962 10.4611 90.6908 10.5462 90.5393 10.6976C90.3879 10.8491 90.3028 11.0545 90.3028 11.2687V11.8071C90.3028 12.0213 90.3879 12.2268 90.5393 12.3782C90.6908 12.5297 90.8962 12.6148 91.1104 12.6148H95.687V24.7293C95.687 24.9435 95.7721 25.1489 95.9236 25.3004C96.075 25.4519 96.2804 25.537 96.4946 25.537H97.0331C97.2473 25.537 97.4527 25.4519 97.6041 25.3004C97.7556 25.1489 97.8407 24.9435 97.8407 24.7293V12.6148H102.417C102.631 12.6148 102.837 12.5297 102.988 12.3782C103.14 12.2268 103.225 12.0213 103.225 11.8071V11.2687C103.225 11.0545 103.14 10.8491 102.988 10.6976C102.837 10.5462 102.631 10.4611 102.417 10.4611Z" fill="white"/>
<path d="M90.572 23.3833H83.3032V11.2687C83.3032 11.0545 83.2182 10.8491 83.0667 10.6976C82.9152 10.5462 82.7098 10.4611 82.4956 10.4611H81.9572C81.743 10.4611 81.5376 10.5462 81.3861 10.6976C81.2346 10.8491 81.1496 11.0545 81.1496 11.2687V24.7293C81.1496 24.9435 81.2346 25.1489 81.3861 25.3004C81.5376 25.4519 81.743 25.537 81.9572 25.537H90.572C90.7862 25.537 90.9916 25.4519 91.1431 25.3004C91.2945 25.1489 91.3796 24.9435 91.3796 24.7293V24.1909C91.3796 23.9767 91.2945 23.7713 91.1431 23.6198C90.9916 23.4684 90.7862 23.3833 90.572 23.3833Z" fill="white"/>
<path d="M76.8422 11.2687C76.8422 11.0545 76.7571 10.8491 76.6056 10.6976C76.4541 10.5462 76.2487 10.4611 76.0345 10.4611H75.4961C75.2819 10.4611 75.0765 10.5462 74.925 10.6976C74.7736 10.8491 74.6885 11.0545 74.6885 11.2687V19.6143C74.6885 20.6853 74.263 21.7124 73.5057 22.4697C72.7484 23.227 71.7213 23.6525 70.6503 23.6525C69.5793 23.6525 68.5522 23.227 67.7949 22.4697C67.0376 21.7124 66.6121 20.6853 66.6121 19.6143V11.2687C66.6121 11.0545 66.527 10.8491 66.3756 10.6976C66.2241 10.5462 66.0187 10.4611 65.8045 10.4611H65.266C65.0518 10.4611 64.8464 10.5462 64.695 10.6976C64.5435 10.8491 64.4584 11.0545 64.4584 11.2687V19.6143C64.4584 21.2565 65.1108 22.8314 66.272 23.9926C67.4332 25.1538 69.0081 25.8062 70.6503 25.8062C72.2925 25.8062 73.8674 25.1538 75.0286 23.9926C76.1898 22.8314 76.8422 21.2565 76.8422 19.6143V11.2687Z" fill="white"/>
<path d="M60.4202 10.4611H59.8818C59.7208 10.4613 59.5636 10.5095 59.4302 10.5997C59.2969 10.6899 59.1935 10.8179 59.1334 10.9672L54.4976 22.6241L49.8348 10.9672C49.7747 10.8179 49.6714 10.6899 49.538 10.5997C49.4046 10.5095 49.2474 10.4613 49.0864 10.4611H48.548C48.3385 10.4681 48.1399 10.5562 47.9942 10.707C47.8485 10.8577 47.7672 11.0591 47.7673 11.2687C47.7682 11.372 47.7883 11.4743 47.8265 11.5702L53.2107 25.0308C53.2702 25.1806 53.3734 25.309 53.5069 25.3993C53.6404 25.4895 53.798 25.5375 53.9591 25.537H55.036C55.1971 25.5375 55.3547 25.4895 55.4882 25.3993C55.6217 25.309 55.7249 25.1806 55.7844 25.0308L61.1686 11.5702C61.2069 11.4743 61.227 11.372 61.2279 11.2687C61.2279 11.0545 61.1428 10.8491 60.9913 10.6976C60.8399 10.5462 60.6344 10.4611 60.4202 10.4611Z" fill="white"/>
<path d="M13.2543 4.75379C13.1091 4.52356 12.9081 4.33373 12.67 4.20195C12.4318 4.07017 12.1643 4.0007 11.8921 4H3.6165C3.32752 3.99978 3.04378 4.07709 2.79485 4.22386C2.54592 4.37064 2.34093 4.58151 2.20125 4.83448C2.06156 5.08746 1.9923 5.37327 2.00068 5.66213C2.00906 5.95099 2.09478 6.2323 2.24891 6.47675L3.94494 9.16887L14.9557 7.44591L13.2543 4.75379Z" fill="#007BFC"/>
<path d="M14.9557 7.44591C14.8101 7.21491 14.6082 7.0246 14.3691 6.89277C14.1299 6.76095 13.8612 6.69191 13.5881 6.69212H5.31254C5.02356 6.6919 4.73981 6.76921 4.49089 6.91598C4.24196 7.06276 4.03697 7.27363 3.89728 7.5266C3.75759 7.77958 3.68833 8.06539 3.69672 8.35425C3.7051 8.6431 3.79082 8.92442 3.94494 9.16887L6.30862 12.9378L17.314 11.2149L14.9557 7.44591Z" fill="#51B9FF"/>
<path d="M6.30862 12.9378C6.14961 12.6792 6.06917 12.3799 6.0771 12.0764C6.0771 11.648 6.24728 11.2371 6.5502 10.9342C6.85312 10.6313 7.26397 10.4611 7.69237 10.4611H15.9626C16.2357 10.4609 16.5043 10.5299 16.7435 10.6617C16.9827 10.7936 17.1845 10.9839 17.3302 11.2149L24.7335 22.9579C24.8961 23.2158 24.9824 23.5145 24.9824 23.8194C24.9824 24.1243 24.8961 24.423 24.7335 24.6809L20.5984 31.2443C20.453 31.4756 20.2512 31.6663 20.0121 31.7985C19.7729 31.9307 19.5041 32 19.2308 32C18.9575 32 18.6887 31.9307 18.4495 31.7985C18.2104 31.6663 18.0086 31.4756 17.8632 31.2443L6.30862 12.9378Z" fill="white"/>
<path d="M27.1887 16.4537C27.3344 16.6839 27.5359 16.8735 27.7746 17.0049C28.0132 17.1363 28.2812 17.2052 28.5536 17.2052C28.826 17.2052 29.094 17.1363 29.3327 17.0049C29.5713 16.8735 29.7728 16.6839 29.9185 16.4537L31.3453 14.1978L34.0375 9.89036C34.2012 9.63185 34.2881 9.33217 34.2881 9.02619C34.2881 8.72021 34.2012 8.42052 34.0375 8.16202L31.8838 4.74841C31.7394 4.52146 31.5407 4.33414 31.3057 4.20345C31.0706 4.07275 30.8066 4.00282 30.5377 4H22.2621C21.9731 3.99978 21.6894 4.07709 21.4405 4.22386C21.1915 4.37064 20.9866 4.58151 20.8469 4.83448C20.7072 5.08746 20.6379 5.37327 20.6463 5.66213C20.6547 5.95099 20.7404 6.2323 20.8945 6.47675L27.1887 16.4537Z" fill="white"/>
</svg>
