<?xml version="1.0" standalone="no"?>
<!DOCTYPE svg PUBLIC "-//W3C//DTD SVG 20010904//EN"
 "http://www.w3.org/TR/2001/REC-SVG-20010904/DTD/svg10.dtd">
<svg version="1.0" xmlns="http://www.w3.org/2000/svg"
 width="900.000000pt" height="900.000000pt" viewBox="0 0 900.000000 900.000000"
 preserveAspectRatio="xMidYMid meet">
<metadata>
Created by potrace 1.14, written by Peter Selinger 2001-2017
</metadata>
<g transform="translate(0.000000,900.000000) scale(0.100000,-0.100000)"
fill="#000000" stroke="none">
<path d="M4314 8983 c-16 -8 -108 -55 -204 -105 -96 -50 -211 -110 -255 -133
-44 -23 -161 -84 -260 -135 -99 -51 -223 -115 -275 -143 -52 -27 -156 -81
-230 -119 -74 -39 -189 -98 -255 -133 -66 -34 -183 -95 -260 -135 -77 -40
-180 -94 -230 -120 -49 -26 -157 -82 -240 -125 -82 -43 -195 -101 -250 -130
-55 -29 -167 -87 -250 -130 -82 -43 -202 -105 -265 -138 -154 -80 -325 -169
-495 -257 -273 -142 -370 -193 -375 -197 -3 -3 -5 -1121 -5 -2485 l0 -2480
2017 -1009 2018 -1009 2013 1006 c1106 554 2014 1010 2017 1014 7 11 7 4957 0
4963 -3 3 -66 34 -140 70 -204 98 -369 177 -530 255 -276 133 -656 315 -775
372 -66 32 -203 98 -305 147 -102 50 -232 113 -290 141 -249 118 -374 179
-515 247 -283 136 -508 245 -800 385 -115 55 -198 95 -605 292 -236 114 -222
109 -256 91z"/>
</g>
</svg>
